<?xml version="1.0" encoding="utf-8"?>
<!-- Generator: Adobe Illustrator 24.2.0, SVG Export Plug-In . SVG Version: 6.00 Build 0)  -->
<svg version="1.1" xmlns="http://www.w3.org/2000/svg" xmlns:xlink="http://www.w3.org/1999/xlink" x="0px" y="0px"
	 viewBox="0 0 792 612" style="enable-background:new 0 0 792 612;" xml:space="preserve">
<style type="text/css">
	.st0{fill:#FFFFFF;}
	.st1{fill:#FFFFFF;stroke:#FF0000;stroke-width:1.3333;stroke-miterlimit:13.3333;}
	.st2{fill:#FFFFFF;stroke:#FF0000;stroke-width:1.3333;stroke-miterlimit:5.3333;}
</style>
<g id="Layer_1" inkscape:version="0.92.4 (5da689c313, 2019-01-14)" sodipodi:docname="Bubble Pack templatev2.svg" xmlns:cc="http://creativecommons.org/ns#" xmlns:dc="http://purl.org/dc/elements/1.1/" xmlns:inkscape="http://www.inkscape.org/namespaces/inkscape" xmlns:osb="http://www.openswatchbook.org/uri/2009/osb" xmlns:rdf="http://www.w3.org/1999/02/22-rdf-syntax-ns#" xmlns:sodipodi="http://sodipodi.sourceforge.net/DTD/sodipodi-0.dtd" xmlns:svg="http://www.w3.org/2000/svg">
	<g id="Layer_2_1_" transform="scale(1.3333333)">
		<rect id="rect4" y="0" class="st0" width="594" height="459"/>
	</g>
	<g id="svg15158" transform="scale(1.3333333)" inkscape:version="0.91 r13725" sodipodi:docname="AxiDraw_First.svg">
		<path id="path11" inkscape:connector-curvature="0" class="st1" d="M56.6,146v12.6H44.7c-17.2,0-31.2,14.1-31.2,31.3v79.4
			c0,17.2,14,31.2,31.2,31.2h11.9v12.7c0,17.2,14,31.2,31.2,31.2h130.8h12.1h275.4c17.2,0,31.2-14,31.2-31.2v-12.6h11.9
			c17.2,0,31.2-14,31.2-31.2V190c0-17.2-14-31.2-31.2-31.2h-11.9v-12.6c0-17.2-14-31.2-31.2-31.2H230.7h-12.1H87.9
			C70.7,114.8,56.6,128.9,56.6,146L56.6,146z"/>
		<path id="path7" inkscape:connector-curvature="0" class="st1" d="M43.4,204v15.9c-0.1,0-0.1,0-0.1,0c-5.3,0-9.7,4.3-9.7,9.7
			c0,5.3,4.4,9.7,9.7,9.7c0.1,0,0.1,0,0.2,0v15.9c0,2.8,2.3,5,5,5h1.9c2.8,0,5-2.3,5-5V204c0-2.8-2.3-5-5-5h-1.9
			C45.7,199,43.4,201.2,43.4,204z"/>
		<path id="path9" inkscape:connector-curvature="0" class="st1" d="M550.6,255.2v-15.9c0.1,0,0.1,0,0.2,0c5.3,0,9.7-4.3,9.7-9.7
			c0-5.3-4.3-9.7-9.7-9.7c-0.1,0-0.1,0-0.2,0V204c0-2.8-2.3-5-5-5h-1.9c-2.8,0-5,2.3-5,5v51.2c0,2.8,2.3,5,5,5h1.9
			C548.3,260.2,550.6,257.9,550.6,255.2z"/>
		<g id="g19">
			<line id="line13" class="st2" x1="297" y1="343.7" x2="297" y2="341.5"/>
			<line id="line15" class="st2" x1="297" y1="336.8" x2="297" y2="119.3"/>
			<line id="line17" class="st2" x1="297" y1="116.9" x2="297" y2="114.7"/>
		</g>
	</g>
</g>
<g id="Layer_2">
</g>
</svg>
