<?xml version="1.0" encoding="utf-8"?>
<!-- Generator: Adobe Illustrator 25.4.1, SVG Export Plug-In . SVG Version: 6.00 Build 0)  -->
<svg version="1.1" xmlns="http://www.w3.org/2000/svg" xmlns:xlink="http://www.w3.org/1999/xlink" x="0px" y="0px"
	 viewBox="0 0 792 612" style="enable-background:new 0 0 792 612;" xml:space="preserve">
<style type="text/css">
	.st0{fill:#FFFFFF;}
	.st1{fill:#FFFFFF;stroke:#FF0000;stroke-width:1.7777;stroke-miterlimit:17.7777;}
	.st2{fill:none;stroke:#FF0000;stroke-width:1.7777;stroke-miterlimit:7.1111;}
	.st3{fill:none;stroke:#000000;}
</style>
<g id="Layer_1">
	
		<g id="Layer_1_00000066479996087598506950000012748701602428794265_" inkscape:version="0.92.4 (5da689c313, 2019-01-14)" sodipodi:docname="Bubble Pack templatev2.svg" xmlns:cc="http://creativecommons.org/ns#" xmlns:dc="http://purl.org/dc/elements/1.1/" xmlns:inkscape="http://www.inkscape.org/namespaces/inkscape" xmlns:osb="http://www.openswatchbook.org/uri/2009/osb" xmlns:rdf="http://www.w3.org/1999/02/22-rdf-syntax-ns#" xmlns:sodipodi="http://sodipodi.sourceforge.net/DTD/sodipodi-0.dtd" xmlns:svg="http://www.w3.org/2000/svg">
		<g id="Layer_2_1_" transform="scale(1.3333333)">
			<rect id="rect4" x="-2.1" y="0" class="st0" width="594" height="459"/>
		</g>
		<g id="svg15158" transform="scale(1.3333333)" inkscape:version="0.91 r13725" sodipodi:docname="AxiDraw_First.svg">
			<path id="path11" inkscape:connector-curvature="0" class="st1" d="M54.5,146v12.6H42.6c-17.2,0-31.2,14.1-31.2,31.3v79.4
				c0,17.2,14,31.2,31.2,31.2h11.9v12.7c0,17.2,14,31.2,31.2,31.2h130.8h12.1H504c17.2,0,31.2-14,31.2-31.2v-12.6h11.9
				c17.2,0,31.2-14,31.2-31.2V190c0-17.2-14-31.2-31.2-31.2h-11.9v-12.6c0-17.2-14-31.2-31.2-31.2H228.6h-12.1H85.8
				C68.6,114.8,54.5,128.9,54.5,146L54.5,146z"/>
			<path id="path7" inkscape:connector-curvature="0" class="st1" d="M41.3,204v15.9c-0.1,0-0.1,0-0.1,0c-5.3,0-9.7,4.3-9.7,9.7
				c0,5.3,4.4,9.7,9.7,9.7c0.1,0,0.1,0,0.2,0v15.9c0,2.8,2.3,5,5,5h1.9c2.8,0,5-2.3,5-5V204c0-2.8-2.3-5-5-5h-1.9
				C43.6,199,41.3,201.2,41.3,204z"/>
			<path id="path9" inkscape:connector-curvature="0" class="st1" d="M548.5,255.2v-15.9c0.1,0,0.1,0,0.2,0c5.3,0,9.7-4.3,9.7-9.7
				c0-5.3-4.3-9.7-9.7-9.7c-0.1,0-0.1,0-0.2,0V204c0-2.8-2.3-5-5-5h-1.9c-2.8,0-5,2.3-5,5v51.2c0,2.8,2.3,5,5,5h1.9
				C546.2,260.2,548.5,257.9,548.5,255.2z"/>
			<g id="g19">
				<line id="line13" class="st2" x1="294.9" y1="343.7" x2="294.9" y2="341.5"/>
				<line id="line15" class="st2" x1="294.9" y1="336.8" x2="294.9" y2="119.3"/>
				<line id="line17" class="st2" x1="294.9" y1="116.9" x2="294.9" y2="114.7"/>
			</g>
		</g>
	</g>
	<g id="Layer_2_00000005267674938470384930000007299763746156256904_">
	</g>
	<g>
		<path class="st3" d="M165.5,333.4l11-0.1l0,2.9l-4.6,0l0,0.9l4.6,0l0,2.9l-11,0.1l0-2.9l3.9,0l0-0.9l-3.9,0L165.5,333.4z"/>
		<path class="st3" d="M170.6,326.1l2.2,0c0.8,0,1.4,0,1.8,0.1c0.4,0.1,0.7,0.3,1.1,0.5c0.3,0.3,0.6,0.6,0.7,1
			c0.2,0.4,0.2,0.9,0.2,1.4c0,0.6-0.1,1.1-0.2,1.5c-0.1,0.4-0.3,0.8-0.6,1c-0.3,0.2-0.6,0.4-1,0.5c-0.4,0.1-1,0.2-1.7,0.2l-2.3,0
			c-0.8,0-1.5-0.1-2-0.3c-0.5-0.2-0.9-0.5-1.1-1c-0.3-0.5-0.4-1.1-0.4-1.8c0-0.6,0.1-1.1,0.3-1.6c0.2-0.4,0.4-0.8,0.7-1
			c0.3-0.2,0.6-0.4,0.9-0.5C169.5,326.1,170,326.1,170.6,326.1z M169.9,328.8c-0.5,0-0.8,0-0.9,0.1c-0.1,0.1-0.2,0.2-0.2,0.3
			c0,0.2,0.1,0.3,0.2,0.3s0.4,0.1,0.9,0.1l4.1,0c0.4,0,0.7,0,0.8-0.1c0.1-0.1,0.2-0.2,0.2-0.3c0-0.2-0.1-0.3-0.2-0.3
			c-0.1-0.1-0.4-0.1-0.8-0.1L169.9,328.8z"/>
		<path class="st3" d="M167.4,322.4l0.8,0c-0.3-0.2-0.6-0.4-0.7-0.7c-0.2-0.3-0.3-0.6-0.3-1c0-0.5,0.1-0.9,0.3-1.2
			c0.2-0.3,0.5-0.5,0.8-0.6c0.3-0.1,0.9-0.1,1.7-0.1l6.3,0l0,2.7l-6.2,0c-0.6,0-1,0-1.1,0.1c-0.1,0-0.2,0.2-0.2,0.3
			c0,0.2,0.1,0.3,0.2,0.4c0.2,0,0.6,0.1,1.3,0.1l6.1,0l0,2.7l-9,0.1L167.4,322.4z"/>
		<path class="st3" d="M165.4,311.7l11-0.1l0,2.7l-0.7,0c0.3,0.3,0.5,0.5,0.6,0.8c0.1,0.3,0.2,0.6,0.2,0.9c0,0.4-0.1,0.8-0.3,1.1
			c-0.2,0.3-0.5,0.5-0.8,0.6c-0.3,0.1-0.8,0.1-1.4,0.1l-4.2,0c-0.7,0-1.2,0-1.5-0.1c-0.3-0.1-0.5-0.3-0.8-0.6
			c-0.2-0.3-0.3-0.7-0.3-1.1c0-0.3,0.1-0.7,0.2-0.9c0.1-0.3,0.3-0.5,0.5-0.8l-2.6,0L165.4,311.7z M169.6,314.4c-0.3,0-0.6,0-0.7,0.1
			s-0.2,0.2-0.2,0.3c0,0.2,0.1,0.3,0.2,0.3c0.1,0.1,0.3,0.1,0.7,0.1l4.4,0c0.4,0,0.6,0,0.7-0.1c0.1-0.1,0.2-0.2,0.2-0.3
			c0-0.2-0.1-0.3-0.2-0.4c-0.1-0.1-0.4-0.1-0.9-0.1L169.6,314.4z"/>
		<path class="st3" d="M170.8,308.2l0,2.6l-0.6,0c-0.7,0-1.2-0.1-1.6-0.2c-0.4-0.2-0.7-0.5-1-1c-0.3-0.5-0.4-1.1-0.4-1.9
			c0-0.9,0.2-1.6,0.5-2.1s0.7-0.8,1.2-0.9c0.5-0.1,1.5-0.2,2.9-0.2l4.5,0l0,2.7l-0.8,0c0.3,0.2,0.6,0.4,0.7,0.6
			c0.2,0.3,0.2,0.6,0.2,0.9c0,0.5-0.1,0.9-0.4,1.3c-0.3,0.4-0.9,0.6-1.8,0.6l-0.7,0c-0.7,0-1.1-0.1-1.4-0.3
			c-0.2-0.2-0.5-0.7-0.9-1.6c-0.4-0.9-0.6-1.4-0.7-1.4c-0.1-0.1-0.4-0.1-0.7-0.1c-0.5,0-0.8,0-0.9,0.1c-0.1,0.1-0.2,0.2-0.2,0.4
			c0,0.2,0.1,0.3,0.2,0.3c0.1,0,0.4,0.1,0.9,0.1L170.8,308.2z M172.1,307.4c0.3,0.4,0.6,0.7,0.8,0.8c0.2,0.1,0.5,0.1,0.9,0.1
			c0.5,0,0.8,0,0.9-0.1c0.1-0.1,0.2-0.2,0.2-0.4c0-0.2-0.1-0.3-0.2-0.3c-0.1-0.1-0.4-0.1-0.8-0.1L172.1,307.4z"/>
		<path class="st3" d="M168.6,295.1l0,2.7l-0.8,0c-0.4,0-0.6,0-0.7,0.1c-0.1,0.1-0.2,0.2-0.2,0.3c0,0.2,0.1,0.3,0.2,0.4
			c0.1,0.1,0.4,0.1,0.6,0.1c0.4,0,0.6-0.1,0.8-0.2c0.2-0.1,0.4-0.4,0.7-0.8c0.7-1.3,1.4-2.1,1.8-2.4c0.5-0.3,1.3-0.5,2.3-0.5
			c0.8,0,1.4,0.1,1.7,0.3c0.4,0.2,0.7,0.5,0.9,1.1c0.3,0.5,0.4,1.1,0.4,1.8c0,0.8-0.1,1.4-0.4,2c-0.3,0.5-0.7,0.9-1.1,1.1
			c-0.4,0.2-1.1,0.3-1.9,0.3l-0.7,0l0-2.7l1.3,0c0.4,0,0.7,0,0.8-0.1c0.1-0.1,0.2-0.2,0.2-0.4c0-0.2-0.1-0.3-0.2-0.4
			c-0.1-0.1-0.4-0.1-0.7-0.1c-0.6,0-1.1,0.1-1.3,0.3c-0.2,0.2-0.5,0.6-1,1.3c-0.5,0.7-0.8,1.2-1,1.4c-0.2,0.2-0.5,0.4-0.9,0.6
			s-0.9,0.2-1.4,0.2c-0.8,0-1.5-0.1-1.8-0.3c-0.4-0.2-0.7-0.6-0.9-1c-0.2-0.5-0.3-1.1-0.3-1.7c0-0.7,0.1-1.4,0.3-1.9
			c0.2-0.5,0.5-0.9,0.9-1c0.4-0.2,1-0.3,1.9-0.3L168.6,295.1z"/>
		<path class="st3" d="M174.4,288.1l1.9,0l0,6l-1.6,0c-2.9-1.8-4.8-2.8-5.4-3.2c-0.7-0.3-1.2-0.5-1.6-0.5c-0.3,0-0.5,0.1-0.7,0.2
			c-0.1,0.1-0.2,0.3-0.2,0.5c0,0.2,0.1,0.4,0.2,0.5c0.2,0.1,0.5,0.2,1,0.1l1,0l0,2.5l-0.4,0c-0.6,0-1.1,0-1.5-0.1
			c-0.4-0.1-0.7-0.2-1.1-0.5c-0.3-0.2-0.6-0.6-0.8-1c-0.2-0.4-0.3-0.9-0.3-1.4c0-1.1,0.3-1.9,0.8-2.5c0.5-0.6,1.2-0.8,2-0.9
			c0.6,0,1.3,0.1,2,0.5c0.7,0.3,2.2,1.2,4.5,2.8L174.4,288.1z"/>
		<path class="st3" d="M168.9,280.6l3.7,0c0.8,0,1.4,0,1.8,0.1c0.4,0.1,0.7,0.3,1.1,0.6c0.3,0.3,0.6,0.6,0.7,1
			c0.1,0.4,0.2,0.9,0.2,1.4c0,0.7-0.1,1.2-0.2,1.6c-0.1,0.4-0.4,0.8-0.7,1c-0.3,0.3-0.7,0.4-1,0.6c-0.4,0.1-0.9,0.2-1.7,0.2l-3.8,0
			c-1,0-1.8-0.1-2.3-0.2c-0.5-0.2-0.9-0.5-1.2-1c-0.3-0.5-0.5-1.1-0.5-1.9c0-0.6,0.1-1.1,0.3-1.6c0.2-0.5,0.5-0.8,0.8-1.1
			s0.6-0.4,1-0.5C167.5,280.6,168.1,280.6,168.9,280.6z M168,283.3c-0.6,0-0.9,0-1.1,0.1c-0.1,0.1-0.2,0.2-0.2,0.4
			c0,0.2,0.1,0.3,0.2,0.4c0.2,0.1,0.5,0.1,1.1,0.1l5.4,0c0.6,0,1,0,1.2-0.1c0.1-0.1,0.2-0.2,0.2-0.4c0-0.2-0.1-0.3-0.2-0.4
			c-0.2-0.1-0.5-0.1-1-0.1L168,283.3z"/>
		<path class="st3" d="M168.9,273.1l3.7,0c0.8,0,1.4,0,1.8,0.1c0.4,0.1,0.7,0.3,1.1,0.6c0.3,0.3,0.6,0.6,0.7,1
			c0.1,0.4,0.2,0.9,0.2,1.4c0,0.7-0.1,1.2-0.2,1.6c-0.1,0.4-0.4,0.8-0.7,1s-0.7,0.4-1,0.6c-0.4,0.1-0.9,0.2-1.7,0.2l-3.8,0
			c-1,0-1.8-0.1-2.3-0.2c-0.5-0.2-0.9-0.5-1.2-1c-0.3-0.5-0.5-1.1-0.5-1.9c0-0.6,0.1-1.1,0.3-1.6c0.2-0.5,0.5-0.8,0.8-1.1
			c0.3-0.2,0.6-0.4,1-0.5C167.4,273.2,168,273.1,168.9,273.1z M168,275.9c-0.6,0-0.9,0-1.1,0.1c-0.1,0.1-0.2,0.2-0.2,0.4
			c0,0.2,0.1,0.3,0.2,0.4c0.2,0.1,0.5,0.1,1.1,0.1l5.4,0c0.6,0,1,0,1.2-0.1c0.1-0.1,0.2-0.2,0.2-0.4c0-0.2-0.1-0.3-0.2-0.4
			c-0.2-0.1-0.5-0.1-1-0.1L168,275.9z"/>
		<path class="st3" d="M168.8,265.7l3.7,0c0.8,0,1.4,0,1.8,0.1c0.4,0.1,0.7,0.3,1.1,0.6c0.3,0.3,0.6,0.6,0.7,1
			c0.1,0.4,0.2,0.9,0.2,1.4c0,0.7-0.1,1.2-0.2,1.6c-0.1,0.4-0.4,0.8-0.7,1c-0.3,0.3-0.7,0.4-1,0.6c-0.4,0.1-0.9,0.2-1.7,0.2l-3.8,0
			c-1,0-1.8-0.1-2.3-0.2c-0.5-0.2-0.9-0.5-1.2-1c-0.3-0.5-0.5-1.1-0.5-1.9c0-0.6,0.1-1.1,0.3-1.6c0.2-0.5,0.5-0.8,0.8-1.1
			c0.3-0.2,0.6-0.4,1-0.5C167.4,265.7,168,265.7,168.8,265.7z M167.9,268.4c-0.6,0-0.9,0-1.1,0.1c-0.1,0.1-0.2,0.2-0.2,0.4
			c0,0.2,0.1,0.3,0.2,0.4c0.2,0.1,0.5,0.1,1.1,0.1l5.4,0c0.6,0,1,0,1.2-0.1c0.1-0.1,0.2-0.2,0.2-0.4s-0.1-0.3-0.2-0.4
			c-0.2-0.1-0.5-0.1-1-0.1L167.9,268.4z"/>
	</g>
</g>
<g id="Layer_2">
	<g>
		<path d="M619.5,263.3c-1,0.4-1,1.1-0.8,2.2c2,7.7,4.1,15.4,5.9,23.1c1.5,6.9,1.6,14,0.8,21.1c-0.1,1.1-0.5,2.1-1,3.1
			c-2.5,4.7-5.1,9.3-7.5,14c-0.6,1.2-0.9,2.6-1,3.9c-0.3,5.5-0.1,11.1-1.5,16.5c-1.4,5.2-3.2,10.2-5.8,14.9c-1.1,2-2.7,3-5,3
			c-1.5,0-3.1,0.1-4.6,0c-2.8-0.1-4.6-1.7-4.7-4.5c-0.2-3.2-0.1-6.4-0.1-9.6c0-0.8-0.2-1.4-1-1.8c-6.3-4-6.3-12.8-0.1-16.9
			c0.7-0.5,1-0.9,1-1.7c-0.1-14.9-0.2-29.9-0.4-44.8c0-0.6-0.5-1.3-0.9-1.7c-6.3-4.1-6.3-12.8,0-17c0.4-0.3,0.8-0.7,0.8-1.2
			c0.7-3.2,1.2-6.4,1.9-9.5c0.2-0.7,0.8-1.4,1.5-1.7c2.4-1.1,4.9-2.2,7.4-3c0.7-0.3,1.7,0,2.5,0.3c0.6,0.2,1.1,0.7,1.6,1.1
			c1.6,1.3,3.2,2,5.3,1.8c1.7-0.2,2.2,1.1,2.6,2.6c0.7-0.5,1.4-1,2.1-1.3c0.8-0.4,1.1-1,1.1-2c-0.1-1.4,0-2.8,0-4.2
			c0-2,0.1-2.1,2.1-2.2c1.2,0,2.4,0,3.6,0c0.9,0,1.4,0.4,1.4,1.4c0,4.4,0,8.9,0.1,13.3c0,1-0.4,1.4-1.3,1.4c-1.4,0-2.9,0.1-4.3,0
			C620.6,263.8,620,263.5,619.5,263.3z M595.9,298c2.3-1.1,4.4-2.1,6.5-3c2.4-1.1,4.9-1.7,7.5-1.7c1,0,1.3-0.3,1.6-1.1
			c1.5-4.2,3.1-8.4,4.8-12.5c0.2-0.5,0.8-0.8,1.2-1.2c0.4,0.5,0.9,1,1,1.5c0.9,5.5,1.9,11,2.5,16.5c0.6,6.1,0.1,12.1-2.6,17.8
			c-2,4.3-4.2,8.4-6.4,12.6c-0.2,0.5-0.9,0.7-1.3,1.1c-0.3-0.5-0.7-1-0.7-1.5c-0.1-5.2-0.2-10.3-0.1-15.5c0.1-5.2-0.6-10.4,0.5-15.9
			c-2,0.4-3.9,0.6-5.6,1.2c-2.6,0.9-5,2.3-7.6,3.3c-1,0.4-1.3,0.9-1.3,2c0.1,9.3,0.2,18.5,0.2,27.8c0,0.5,0,0.9,0,1.5
			c0.9-0.1,1.6-0.1,2.3-0.2c6.7-0.2,11.9,6.3,9.8,12.7c-0.7,2.1-0.8,4.2-0.8,6.3c0,1.2,0,2.4,0,3.6c0,2.2,0,4.4,0,6.6
			c0.4-0.3,0.6-0.6,0.8-0.9c2.4-4.9,4.3-10.1,5-15.6c0.5-4.1,0.6-8.4,0.8-12.5c0.1-1.8,0.4-3.4,1.3-5c2.6-4.6,5-9.3,7.5-14
			c0.3-0.6,0.7-1.3,0.7-2c0.8-7,0.8-14.1-0.8-20.9c-2.5-10.4-5.4-20.7-8.1-31.1c-0.2-0.8-0.6-1.2-1.5-1.1c-1.9,0.3-3.4-0.3-4.9-1.5
			c-0.6-0.6-1.4-1-2.1-1.5c-1-0.7-1.4-0.5-1.5,0.8c-0.5,3.6-0.9,7.3-1.4,10.9c-0.2,1.1,0.1,1.6,0.9,2.2c3.5,2.6,4.9,7,3.5,11.1
			c-1.4,4.1-5.1,6.8-9.5,6.9c-0.7,0-1.5,0-2.3,0C595.8,289.6,595.8,293.6,595.9,298z M617.1,282.9c-0.2,0-0.3,0-0.5-0.1
			c-1.6,5.1-3.2,10.2-4.9,15.3c-0.1,0.3-0.1,0.7-0.1,1c0,7.3,0.1,14.6,0.1,21.9c0,0.4,0.1,0.7,0.1,0.8
			C621,309.9,620.2,296.6,617.1,282.9z M596.2,350.4c0,3.5,0,7,0.1,10.4c0.1,1.5,1.1,2.2,2.7,2.2c1.7,0,3.3-0.1,5,0
			c0.9,0,1.3-0.2,1.3-1.3c0-4.2,0-8.4,0-12.6c0-0.3-0.1-0.5-0.1-1C602.5,350.3,599.6,351.1,596.2,350.4z M598.5,348.7
			c4.5,0,8.1-3.6,8.1-8.1c0-4.4-3.6-8.1-8.1-8.1c-4.5,0-8.1,3.7-8,8.1C590.5,345.1,594.1,348.7,598.5,348.7z M598.2,283.5
			c4.5,0,8.1-3.7,8-8.2c-0.1-4.4-3.7-8-8.1-8c-4.4,0-8.1,3.7-8.1,8.1C590,280,593.7,283.6,598.2,283.5z M601.2,265.6
			c0.5-3.6,0.9-7.3,1.4-11.3c-1.7,0.7-3.2,1.3-4.7,2c-0.3,0.1-0.6,0.6-0.6,1c-0.5,2.4-1.1,4.8-1.5,7.2c-0.1,0.3,0,0.7,0,1.1
			C597.5,265.6,599.3,265.6,601.2,265.6z M621.6,249.7c0,4.1,0.1,8,0.1,12c1,0,2,0,2.9,0c0-4-0.1-8-0.1-12
			C623.5,249.7,622.6,249.7,621.6,249.7z M619.5,257.8c-2.8,1.4-2.9,1.8-1.5,4C619.8,261,619.9,259.6,619.5,257.8z"/>
		<path d="M606.1,306.6c0,0.8,0.1,1.5,0,2.3c-0.1,0.4-0.6,0.9-0.8,0.9c-0.4-0.1-1-0.5-1-0.9c-0.1-1.5-0.1-3,0-4.6
			c0-0.4,0.6-0.7,0.9-1c0.3,0.3,0.9,0.6,0.9,1C606.2,305.1,606.1,305.9,606.1,306.6C606.1,306.6,606.1,306.6,606.1,306.6z"/>
		<path d="M598.5,346.2c-3.1,0-5.5-2.4-5.6-5.5c0-3,2.6-5.7,5.6-5.7c3.1,0,5.6,2.6,5.6,5.7C604.1,343.8,601.6,346.2,598.5,346.2z
			 M598.5,344.2c2,0,3.6-1.6,3.6-3.6c0-2-1.7-3.6-3.6-3.6c-2,0-3.6,1.7-3.6,3.7C594.9,342.6,596.5,344.3,598.5,344.2z"/>
		<path d="M603.7,275.5c0,3.1-2.5,5.5-5.5,5.6c-3.1,0-5.7-2.5-5.6-5.6c0-3,2.5-5.5,5.6-5.6C601.2,269.9,603.7,272.4,603.7,275.5z
			 M594.5,275.6c0.1,2,1.7,3.6,3.7,3.5c2,0,3.6-1.7,3.5-3.7c0-2-1.7-3.6-3.7-3.5C596,271.9,594.4,273.6,594.5,275.6z"/>
	</g>
	<g>
		<path class="st3" d="M697.4,265l-19.2,0.2l-0.1-5l8.1-0.1l0-1.5l-8.1,0.1l-0.1-5l19.2-0.2l0.1,5l-6.9,0.1l0,1.5l6.9-0.1L697.4,265
			z"/>
		<path class="st3" d="M688.6,277.8l-3.9,0c-1.4,0-2.5,0-3.1-0.2c-0.7-0.1-1.3-0.4-1.9-0.9c-0.6-0.5-1-1.1-1.3-1.8
			c-0.3-0.7-0.4-1.6-0.4-2.5c0-1.1,0.1-2,0.3-2.7c0.2-0.7,0.6-1.3,1-1.7c0.5-0.4,1-0.7,1.7-0.9c0.7-0.2,1.7-0.3,3-0.3l4,0
			c1.5,0,2.6,0.1,3.4,0.4c0.8,0.3,1.5,0.9,2,1.7c0.5,0.8,0.8,1.9,0.8,3.1c0,1.1-0.1,2-0.4,2.8c-0.3,0.8-0.7,1.4-1.2,1.8
			c-0.5,0.4-1,0.7-1.6,0.9C690.6,277.7,689.7,277.8,688.6,277.8z M689.7,273c0.8,0,1.3-0.1,1.5-0.1c0.2-0.1,0.3-0.3,0.3-0.6
			c0-0.3-0.1-0.5-0.3-0.6c-0.2-0.1-0.7-0.1-1.5-0.1l-7.1,0.1c-0.7,0-1.2,0.1-1.5,0.2c-0.2,0.1-0.3,0.3-0.3,0.6
			c0,0.3,0.1,0.5,0.3,0.6c0.2,0.1,0.6,0.1,1.3,0.1L689.7,273z"/>
		<path class="st3" d="M696.3,284.3l-2.5,0l0,1.3l-2.5,0l0-1.3l-8.4,0.1c-1,0-1.6,0.1-1.7,0.2c-0.1,0.1-0.2,0.6-0.2,1.3l-2.5,0
			l0-1.9c0-1.1,0-1.9,0.1-2.3c0.1-0.5,0.3-0.9,0.6-1.2c0.3-0.4,0.7-0.6,1.1-0.7c0.4-0.1,1.4-0.1,3-0.2l8-0.1l0-1l2.5,0l0,1l2.5,0
			L696.3,284.3z"/>
		<path class="st3" d="M698,309.9l-19.2-2l-0.1-6.2c2.9-0.6,6.3-1.1,10-1.6c-1.6-0.2-5-0.6-10.1-1.3l-0.1-6.2l19.2-2.5l0.1,4.8
			l-6.7,0.6l-6.5,0.6c3.4,0.1,7.7,0.6,13.2,1.2l0.1,5.2c-0.6,0.1-2.7,0.3-6.3,0.6l-7.3,0.6c4.7,0.2,9.2,0.6,13.7,1.2L698,309.9z"/>
		<path class="st3" d="M698.1,315.5l-4.3,0.1c0.4,0.4,0.7,0.8,0.9,1.3c0.2,0.5,0.3,1,0.3,1.5c0,0.8-0.2,1.6-0.6,2.1s-0.9,1-1.5,1.1
			c-0.6,0.1-1.6,0.2-3,0.2l-10.8,0.1l-0.1-4.8l11.1-0.1c0.9,0,1.5-0.1,1.8-0.2c0.3-0.1,0.4-0.3,0.4-0.6c0-0.3-0.1-0.5-0.4-0.6
			c-0.3-0.1-0.8-0.1-1.6-0.1l-11.2,0.1l-0.1-4.8l19.2-0.2L698.1,315.5z"/>
		<path class="st3" d="M686.7,334.4l-0.1-6.2l-3.4,0c-0.7,0-1.2,0.1-1.4,0.2c-0.2,0.1-0.3,0.3-0.3,0.6c0,0.4,0.1,0.6,0.4,0.7
			c0.3,0.1,0.8,0.2,1.6,0.2l2.1,0l0.1,4.5l-1.2,0c-1,0-1.7,0-2.2-0.2c-0.5-0.1-1.1-0.4-1.7-0.8c-0.6-0.4-1.1-1-1.4-1.7
			c-0.3-0.7-0.5-1.6-0.5-2.6c0-1,0.1-1.9,0.4-2.7c0.3-0.8,0.7-1.4,1.2-1.8c0.5-0.4,1.1-0.7,1.7-0.9c0.6-0.2,1.5-0.3,2.7-0.3l4.6-0.1
			c1.4,0,2.5,0.2,3.3,0.5c0.8,0.4,1.4,1,1.8,1.8c0.4,0.8,0.7,1.8,0.7,2.9c0,1.3-0.2,2.5-0.7,3.3s-1.2,1.5-2,1.9
			c-0.8,0.4-2,0.6-3.5,0.6L686.7,334.4z M689.2,329.6l1.2,0c0.8,0,1.3-0.1,1.6-0.1s0.4-0.3,0.3-0.5c0-0.3-0.1-0.5-0.3-0.6
			c-0.2-0.1-0.7-0.1-1.6-0.1l-1.2,0L689.2,329.6z"/>
		<path class="st3" d="M686.8,346.8l-0.1-6.2l-3.4,0c-0.7,0-1.2,0.1-1.4,0.2c-0.2,0.1-0.3,0.3-0.3,0.6c0,0.4,0.1,0.6,0.4,0.7
			c0.3,0.1,0.8,0.2,1.6,0.2l2.1,0l0.1,4.5l-1.2,0c-1,0-1.7,0-2.2-0.2c-0.5-0.1-1.1-0.4-1.7-0.8c-0.6-0.4-1.1-1-1.4-1.7
			c-0.3-0.7-0.5-1.6-0.5-2.6c0-1,0.1-1.9,0.4-2.7c0.3-0.8,0.7-1.4,1.2-1.8c0.5-0.4,1.1-0.7,1.7-0.9s1.5-0.3,2.7-0.3l4.6-0.1
			c1.4,0,2.5,0.2,3.3,0.5c0.8,0.4,1.4,1,1.8,1.8c0.4,0.8,0.7,1.8,0.7,2.9c0,1.3-0.2,2.5-0.7,3.3s-1.2,1.5-2,1.9
			c-0.8,0.4-2,0.6-3.5,0.6L686.8,346.8z M689.3,342l1.2,0c0.8,0,1.3-0.1,1.6-0.1s0.4-0.3,0.3-0.5c0-0.3-0.1-0.5-0.3-0.6
			c-0.2-0.1-0.7-0.1-1.6-0.1l-1.2,0L689.3,342z"/>
		<path class="st3" d="M698.5,353.2l-19.2,0.2l-0.1-4.9l19.2-0.2L698.5,353.2z"/>
		<path class="st3" d="M690.2,364.8l-0.1-4.2l0.9,0c0.7,0,1.2-0.1,1.4-0.1c0.2-0.1,0.3-0.3,0.3-0.6c0-0.3-0.1-0.5-0.3-0.6
			s-0.4-0.2-0.8-0.2c-0.5,0-0.8,0-1.1,0.1c-0.2,0.1-0.5,0.3-0.7,0.6c-0.3,0.3-0.6,1-1.1,2.1c-0.7,1.4-1.3,2.3-1.9,2.8
			c-0.6,0.4-1.5,0.7-2.6,0.7c-1.3,0-2.2-0.1-2.9-0.5s-1.2-0.9-1.5-1.6c-0.4-0.8-0.5-1.7-0.6-2.8c0-1.2,0.2-2.3,0.5-3.1
			c0.4-0.9,0.9-1.5,1.5-1.8c0.6-0.3,1.6-0.5,2.9-0.5l0.8,0l0.1,4.2l-1,0c-0.8,0-1.4,0.1-1.6,0.2c-0.3,0.1-0.4,0.3-0.4,0.6
			c0,0.3,0.1,0.6,0.3,0.7c0.2,0.1,0.5,0.2,1.1,0.2c0.8,0,1.2-0.1,1.4-0.3c0.2-0.2,0.7-1.1,1.6-2.8c0.8-1.4,1.5-2.3,2.1-2.6
			c0.6-0.3,1.4-0.5,2.3-0.5c1.3,0,2.2,0.1,2.8,0.5c0.6,0.3,1.1,0.9,1.4,1.7c0.3,0.8,0.5,1.7,0.5,2.8c0,1-0.1,1.9-0.4,2.7
			c-0.3,0.7-0.6,1.3-1,1.7c-0.4,0.4-0.8,0.6-1.2,0.7c-0.4,0.1-1,0.1-1.7,0.1L690.2,364.8z"/>
	</g>
	<g>
		<path class="st3" d="M669.9,262l0,1.7c0,1.2,0,2-0.1,2.4s-0.3,0.8-0.7,1c-0.4,0.3-1,0.4-1.8,0.4c-0.7,0-1.2-0.1-1.5-0.3
			s-0.4-0.5-0.5-1.1c-0.1,0.5-0.3,0.8-0.5,1c-0.2,0.2-0.4,0.3-0.6,0.3c-0.2,0-0.6,0.1-1.4,0.1l-2.5,0l0-2.3l3.2,0
			c0.5,0,0.8,0,0.9-0.1s0.2-0.3,0.2-0.6l-4.3,0l0-2.5L669.9,262z M668.3,264.5l-2.1,0c0,0.3,0,0.5,0.1,0.6c0.1,0.1,0.3,0.2,0.7,0.2
			l0.5,0c0.3,0,0.5-0.1,0.6-0.2C668.2,265,668.3,264.8,668.3,264.5z"/>
		<path class="st3" d="M665.2,270.6l0-2.2l0.5,0c0.6,0,1.1,0.1,1.4,0.2s0.6,0.4,0.9,0.8c0.3,0.4,0.4,1,0.4,1.6
			c0,0.8-0.1,1.4-0.4,1.8s-0.6,0.7-1,0.7c-0.4,0.1-1.3,0.1-2.5,0.1l-3.9,0l0-2.3l0.7,0c-0.3-0.1-0.5-0.3-0.6-0.6
			c-0.1-0.2-0.2-0.5-0.2-0.8c0-0.4,0.1-0.8,0.3-1.1c0.2-0.3,0.7-0.5,1.5-0.5l0.6,0c0.6,0,1,0.1,1.2,0.3c0.2,0.2,0.5,0.6,0.8,1.4
			c0.3,0.8,0.5,1.2,0.6,1.2c0.1,0.1,0.3,0.1,0.6,0.1c0.4,0,0.7,0,0.8-0.1c0.1-0.1,0.2-0.2,0.2-0.3c0-0.2-0.1-0.3-0.2-0.3
			s-0.4-0.1-0.8-0.1L665.2,270.6z M664.2,271.3c-0.3-0.4-0.5-0.6-0.7-0.7s-0.5-0.1-0.8-0.1c-0.4,0-0.7,0-0.8,0.1
			c-0.1,0.1-0.2,0.2-0.2,0.3c0,0.1,0,0.2,0.1,0.3s0.3,0.1,0.7,0.1L664.2,271.3z"/>
		<path class="st3" d="M665.4,279.7l0-2.2l0.9,0c0.3,0,0.5,0,0.6-0.1s0.2-0.1,0.2-0.3c0-0.1-0.1-0.2-0.1-0.3s-0.3-0.1-0.7-0.1
			l-3.7,0c-0.3,0-0.5,0-0.6,0.1c-0.1,0.1-0.2,0.2-0.2,0.3c0,0.2,0.1,0.3,0.2,0.3c0.1,0.1,0.4,0.1,0.8,0.1l0.9,0l0,2.1
			c-0.6,0-1.1,0-1.4-0.1c-0.3,0-0.6-0.2-1-0.4s-0.6-0.5-0.7-0.9c-0.2-0.4-0.3-0.8-0.3-1.3c0-0.7,0.1-1.2,0.3-1.6s0.5-0.7,1-0.8
			c0.4-0.2,1-0.3,1.8-0.3l2.2,0c0.7,0,1.2,0.1,1.5,0.2c0.3,0.1,0.6,0.4,0.9,0.8c0.3,0.4,0.4,1,0.4,1.6c0,0.6-0.1,1.1-0.4,1.6
			c-0.3,0.4-0.6,0.7-1,0.9C666.7,279.6,666.1,279.7,665.4,279.7z"/>
		<path class="st3" d="M664.4,285.8l0-3.1l-1.7,0c-0.4,0-0.6,0-0.7,0.1c-0.1,0.1-0.2,0.1-0.1,0.3c0,0.2,0.1,0.3,0.2,0.4
			c0.1,0.1,0.4,0.1,0.8,0.1l1,0l0,2.2l-0.6,0c-0.5,0-0.9,0-1.1-0.1c-0.3-0.1-0.5-0.2-0.8-0.4c-0.3-0.2-0.5-0.5-0.7-0.8
			c-0.1-0.3-0.2-0.8-0.2-1.3c0-0.5,0.1-0.9,0.2-1.3c0.1-0.4,0.3-0.7,0.6-0.9c0.2-0.2,0.5-0.4,0.8-0.4s0.7-0.1,1.3-0.1l2.3,0
			c0.7,0,1.2,0.1,1.6,0.3c0.4,0.2,0.7,0.5,0.9,0.9s0.3,0.9,0.3,1.4c0,0.7-0.1,1.2-0.4,1.6c-0.2,0.4-0.6,0.7-1,0.9s-1,0.3-1.8,0.3
			L664.4,285.8z M665.6,283.4l0.6,0c0.4,0,0.7,0,0.8-0.1c0.1,0,0.2-0.1,0.2-0.3c0-0.2-0.1-0.3-0.2-0.3s-0.4-0.1-0.8-0.1l-0.6,0
			L665.6,283.4z"/>
		<path class="st3" d="M665.5,291.8l0-2.2l0.9,0c0.3,0,0.5,0,0.6-0.1c0.1-0.1,0.2-0.1,0.2-0.3c0-0.1-0.1-0.2-0.1-0.3
			s-0.3-0.1-0.7-0.1l-3.7,0c-0.3,0-0.5,0-0.6,0.1c-0.1,0.1-0.2,0.2-0.2,0.3c0,0.2,0.1,0.3,0.2,0.3c0.1,0.1,0.4,0.1,0.8,0.1l0.9,0
			l0,2.1c-0.6,0-1.1,0-1.4-0.1s-0.6-0.2-1-0.4s-0.6-0.5-0.7-0.9c-0.2-0.4-0.3-0.8-0.3-1.3c0-0.7,0.1-1.2,0.3-1.6
			c0.2-0.4,0.5-0.7,1-0.8c0.4-0.2,1-0.3,1.8-0.3l2.2,0c0.7,0,1.2,0.1,1.5,0.2c0.3,0.1,0.6,0.4,0.9,0.8c0.3,0.4,0.4,1,0.4,1.6
			c0,0.6-0.1,1.1-0.4,1.6c-0.3,0.4-0.6,0.7-1,0.9C666.8,291.7,666.2,291.8,665.5,291.8z"/>
		<path class="st3" d="M665.5,294.6l0-2.2l0.5,0c0.6,0,1.1,0.1,1.4,0.2s0.6,0.4,0.9,0.8c0.3,0.4,0.4,1,0.4,1.6
			c0,0.8-0.1,1.4-0.4,1.8s-0.6,0.7-1,0.7c-0.4,0.1-1.3,0.1-2.5,0.1l-3.9,0l0-2.3l0.7,0c-0.3-0.1-0.5-0.3-0.6-0.6s-0.2-0.5-0.2-0.8
			c0-0.4,0.1-0.8,0.3-1.1c0.2-0.3,0.7-0.5,1.5-0.5l0.6,0c0.6,0,1,0.1,1.2,0.3s0.5,0.6,0.8,1.4c0.3,0.8,0.5,1.2,0.6,1.2
			c0.1,0.1,0.3,0.1,0.6,0.1c0.4,0,0.7,0,0.8-0.1c0.1-0.1,0.2-0.2,0.2-0.3c0-0.2-0.1-0.3-0.2-0.3s-0.4-0.1-0.8-0.1L665.5,294.6z
			 M664.4,295.4c-0.3-0.4-0.5-0.6-0.7-0.7s-0.5-0.1-0.8-0.1c-0.4,0-0.7,0-0.8,0.1c-0.1,0.1-0.2,0.2-0.2,0.3c0,0.1,0,0.2,0.1,0.3
			s0.3,0.1,0.7,0.1L664.4,295.4z"/>
		<path class="st3" d="M668.5,300.9l-1-0.1c0.7,0.3,1.1,0.8,1.2,1.5l-2.7,0c0-0.4-0.1-0.8-0.2-1s-0.3-0.3-0.5-0.4
			c-0.2,0-0.7-0.1-1.4-0.1l-3.1,0l0-2.4l7.8-0.1L668.5,300.9z"/>
		<path class="st3" d="M666.2,310.8l0-2.5l1.6,0c0.5,0,0.8,0,0.9-0.1c0.1-0.1,0.2-0.2,0.2-0.3c0-0.2-0.1-0.3-0.2-0.4
			c-0.1-0.1-0.5-0.1-0.9-0.1l-4.4,0c-0.5,0-0.8,0-0.9,0.1c-0.1,0.1-0.2,0.2-0.2,0.4c0,0.2,0.1,0.3,0.2,0.4c0.1,0.1,0.5,0.1,1,0.1
			l1.2,0l0,2.5l-0.4,0c-1,0-1.7-0.1-2.1-0.2s-0.8-0.4-1.1-0.9c-0.3-0.5-0.5-1.1-0.5-1.8c0-0.7,0.1-1.3,0.4-1.8
			c0.3-0.5,0.6-0.8,1.1-0.9c0.5-0.2,1.2-0.2,2.1-0.2l2.8,0c0.7,0,1.2,0,1.5,0.1c0.3,0,0.7,0.2,1,0.4c0.3,0.2,0.6,0.5,0.8,1
			s0.3,0.9,0.3,1.4c0,0.7-0.1,1.3-0.4,1.8c-0.3,0.5-0.6,0.8-1,0.9c-0.4,0.2-1.1,0.2-2,0.2L666.2,310.8z"/>
		<path class="st3" d="M665.9,317l-1.9,0c-0.7,0-1.2,0-1.5-0.1c-0.3-0.1-0.6-0.2-0.9-0.4c-0.3-0.2-0.5-0.5-0.6-0.9
			c-0.1-0.4-0.2-0.8-0.2-1.2c0-0.5,0-1,0.2-1.3s0.3-0.6,0.5-0.9c0.2-0.2,0.5-0.3,0.8-0.4c0.3-0.1,0.8-0.1,1.5-0.1l2,0
			c0.7,0,1.3,0.1,1.7,0.2c0.4,0.2,0.7,0.4,1,0.8c0.2,0.4,0.4,0.9,0.4,1.6c0,0.5-0.1,1-0.2,1.4c-0.2,0.4-0.4,0.7-0.6,0.9
			s-0.5,0.4-0.8,0.4C666.9,316.9,666.5,317,665.9,317z M666.5,314.6c0.4,0,0.7,0,0.8-0.1c0.1,0,0.2-0.1,0.2-0.3
			c0-0.1-0.1-0.2-0.2-0.3s-0.4-0.1-0.8-0.1l-3.5,0c-0.4,0-0.6,0-0.7,0.1c-0.1,0-0.2,0.1-0.2,0.3c0,0.1,0.1,0.2,0.2,0.3
			c0.1,0,0.3,0.1,0.7,0.1L666.5,314.6z"/>
		<path class="st3" d="M670.4,320.1l-9.5,0.1l0-2.4l9.5-0.1L670.4,320.1z"/>
		<path class="st3" d="M670.4,323.4l-9.5,0.1l0-2.4l9.5-0.1L670.4,323.4z"/>
		<path class="st3" d="M664.8,329.7l0-3.1l-1.7,0c-0.4,0-0.6,0-0.7,0.1s-0.2,0.1-0.2,0.3c0,0.2,0.1,0.3,0.2,0.4
			c0.1,0.1,0.4,0.1,0.8,0.1l1,0l0,2.2l-0.6,0c-0.5,0-0.8,0-1.1-0.1c-0.3-0.1-0.5-0.2-0.8-0.4c-0.3-0.2-0.5-0.5-0.7-0.8
			c-0.2-0.3-0.2-0.8-0.2-1.3c0-0.5,0.1-0.9,0.2-1.3c0.1-0.4,0.3-0.7,0.6-0.9c0.2-0.2,0.5-0.4,0.8-0.4c0.3-0.1,0.7-0.1,1.3-0.1l2.3,0
			c0.7,0,1.2,0.1,1.6,0.3c0.4,0.2,0.7,0.5,0.9,0.9c0.2,0.4,0.3,0.9,0.3,1.4c0,0.7-0.1,1.2-0.4,1.6c-0.2,0.4-0.6,0.7-1,0.9
			c-0.4,0.2-1,0.3-1.8,0.3L664.8,329.7z M666,327.3l0.6,0c0.4,0,0.7,0,0.8-0.1s0.2-0.1,0.2-0.3c0-0.2-0.1-0.3-0.2-0.3
			s-0.4-0.1-0.8-0.1l-0.6,0L666,327.3z"/>
		<path class="st3" d="M665.9,335.7l0-2.2l0.9,0c0.3,0,0.5,0,0.6-0.1c0.1-0.1,0.2-0.1,0.2-0.3c0-0.1-0.1-0.2-0.1-0.3
			c-0.1,0-0.3-0.1-0.7-0.1l-3.7,0c-0.3,0-0.5,0-0.6,0.1c-0.1,0.1-0.2,0.2-0.2,0.3c0,0.2,0.1,0.3,0.2,0.3c0.1,0.1,0.4,0.1,0.8,0.1
			l0.9,0l0,2.1c-0.6,0-1.1,0-1.4-0.1s-0.6-0.2-1-0.4c-0.3-0.2-0.6-0.5-0.7-0.9c-0.2-0.4-0.3-0.8-0.3-1.3c0-0.7,0.1-1.2,0.3-1.6
			c0.2-0.4,0.5-0.7,1-0.8c0.4-0.2,1-0.3,1.8-0.3l2.2,0c0.7,0,1.2,0.1,1.5,0.2s0.6,0.4,0.9,0.8s0.4,1,0.4,1.6c0,0.6-0.1,1.1-0.4,1.6
			c-0.3,0.4-0.6,0.7-1,0.9C667.2,335.6,666.6,335.7,665.9,335.7z"/>
		<path class="st3" d="M669.9,338.8l-1.2,0l0,0.6l-1.2,0l0-0.6l-4.2,0c-0.5,0-0.8,0-0.9,0.1c-0.1,0.1-0.1,0.3-0.1,0.7l-1.3,0l0-1
			c0-0.5,0-0.9,0.1-1.2c0-0.2,0.1-0.4,0.3-0.6s0.3-0.3,0.6-0.3s0.7-0.1,1.5-0.1l3.9,0l0-0.5l1.2,0l0,0.5l1.2,0L669.9,338.8z"/>
		<path class="st3" d="M668.9,342.4l-7.8,0.1l0-2.4l7.8-0.1L668.9,342.4z M670.6,342.4l-1.2,0l0-2.4l1.2,0L670.6,342.4z"/>
		<path class="st3" d="M666.2,348.7l-1.9,0c-0.7,0-1.2,0-1.5-0.1c-0.3-0.1-0.6-0.2-0.9-0.4c-0.3-0.2-0.5-0.5-0.6-0.9
			c-0.1-0.4-0.2-0.8-0.2-1.2c0-0.5,0-1,0.2-1.3s0.3-0.6,0.5-0.9c0.2-0.2,0.5-0.3,0.8-0.4c0.3-0.1,0.8-0.1,1.5-0.1l2,0
			c0.7,0,1.3,0.1,1.7,0.2c0.4,0.2,0.7,0.4,1,0.8c0.2,0.4,0.4,0.9,0.4,1.6c0,0.5-0.1,1-0.2,1.4c-0.2,0.4-0.4,0.7-0.6,0.9
			s-0.5,0.4-0.8,0.4C667.2,348.6,666.8,348.7,666.2,348.7z M666.8,346.3c0.4,0,0.7,0,0.8-0.1s0.2-0.1,0.2-0.3c0-0.1-0.1-0.2-0.2-0.3
			s-0.4-0.1-0.8-0.1l-3.5,0c-0.4,0-0.6,0-0.7,0.1c-0.1,0-0.2,0.1-0.2,0.3c0,0.1,0.1,0.2,0.2,0.3c0.1,0,0.3,0.1,0.7,0.1L666.8,346.3z
			"/>
		<path class="st3" d="M669,351.8l-0.7,0c0.3,0.2,0.5,0.4,0.6,0.6c0.1,0.2,0.2,0.5,0.2,0.9c0,0.4-0.1,0.7-0.3,1
			c-0.2,0.3-0.4,0.4-0.7,0.5c-0.3,0.1-0.8,0.1-1.5,0.1l-5.4,0l0-2.4l5.4,0c0.5,0,0.9,0,1-0.1c0.1,0,0.2-0.1,0.2-0.3
			c0-0.2-0.1-0.3-0.2-0.3c-0.1,0-0.5-0.1-1.1-0.1l-5.3,0l0-2.4l7.8-0.1L669,351.8z"/>
	</g>
	<g>
		<path d="M628.2,178.8c1.5,4.9,1.1,9.5,0,14.3c0.2-0.2,0.3-0.3,0.4-0.4c4.7-5.2,10.7-7.5,18-6.6c6.4,0.7,11.9,3.8,16.2,9
			c2.5,3.1,4.2,6.5,5,10.2c0.8,3.5,0.7,6.9-0.2,10.3c-1.2,4.7-3.9,8.3-7.7,11c-2.8,2-6.1,3.1-9.7,3.5c-4.6,0.4-9.1-0.5-13.3-2.8
			c-5-2.7-8.7-6.6-11-11.8c-1-2.2-1.7-4.5-2.2-6.8c-0.5-2.5,0-5,0.6-7.4c0.8-3.1,1.8-6.1,2.6-9.2c0.8-3.4,1.2-6.8,0.5-10.4
			c-0.2-1.1-0.6-2.2-0.9-3.2c-0.3-1-0.1-1.3,0.9-1.1c1.7,0.3,3.3,0.9,4.7,2.1c0.3,0.3,0.5,0.6,0.7,0.9c0.3,0.4,0.4,0.7,0,1
			c-0.4,0.3-0.8,0.1-1.1-0.3c-0.8-1.1-2-1.7-3.2-2.1C628.5,178.8,628.4,178.8,628.2,178.8z M662.1,222.9c7.6-8.5,6.1-21.4-2.3-29.2
			c-9.2-8.6-22-8.2-29.3-0.7c-8,8.3-6.4,21.6,2.1,29.5C641.6,230.8,654.5,230.8,662.1,222.9z"/>
		<path d="M644.8,164.7c0.4,0.6,0.7,1.1,1,1.6c1,1.8,0.5,3.3-1.3,3.8c-2.5,0.8-4.9,0.2-7.3-1.1c-2.3-1.3-4.2-3.2-6.1-5.1
			c0.2,0.6,0.4,1.2,0.6,1.7c0.8,1.5,1.8,2.8,3.1,4c1.3,1.2,2.4,2.5,2.9,4.3c0.6,2.2,0.2,4.2-0.4,6.2c-0.6,1.8-1.7,3.4-2.8,4.9
			c-0.3,0.4-0.6,0.7-1.1,0.3c-0.6-0.4-0.3-0.9,0-1.3c1.4-1.8,2.5-3.7,3-6c0.6-2.6,0.1-5-2.1-7.1c-1.4-1.4-2.8-2.8-3.7-4.5
			c-0.7-1.2-1.1-2.5-0.9-3.8c0.1-0.5,0.1-1.2,0.8-1.3c0.6-0.1,1,0.5,1.3,0.9c1.8,2.3,3.8,4.3,6.4,5.7c1.7,1,3.6,1.4,5.4,0.9
			c1.5-0.3,1.8-1.1,0.8-2.4c-0.6-0.8-1.3-1.5-1.9-2.2c-0.2-0.2-0.4-0.7-0.3-0.8c0.1-0.2,0.5-0.4,0.8-0.4c3.4,0.4,6.5,1.6,9,4.4
			c1.7,1.9,2.6,4.1,3.2,6.4c0.7,2.7,1.4,5.4,2.2,8c0.4,1.4,1.4,2.5,2.7,3.2c0.2,0.1,0.3,0.2,0.5,0.3c0.5,0.3,0.7,0.6,0.5,1.1
			c-0.3,0.5-0.7,0.4-1.1,0.1c-2.2-1.2-3.6-2.9-4.2-5.2c-0.7-2.4-1.3-4.8-1.9-7.2c-0.7-2.7-1.7-5.2-4-7.1
			C648.3,165.9,646.6,165.2,644.8,164.7z"/>
		<path d="M661.4,178.7c0.2,1,0.7,1.9,1.5,2.7c1,0.9,2,1.9,2.5,3.2c0.5,1.4,0.4,2.7-0.1,3.9c-0.5,1.1-1.5,1.4-2.6,1.5
			c-0.6,0-1.2,0-1.8-0.2c-0.3-0.1-0.5-0.5-0.7-0.7c0.2-0.2,0.5-0.5,0.8-0.6c0.2-0.1,0.5,0,0.8,0.1c2.1,0.2,2.8-0.8,2.5-2.9
			c-0.1-1.1-0.7-2-1.6-2.8c-1.5-1.3-2.6-2.8-2.7-4.7c-0.1-0.9,0.2-1.9,0.4-2.8c0-0.2,0.4-0.4,0.6-0.4c0.2,0.1,0.6,0.4,0.7,0.6
			c0.6,2.3,2.1,3.9,4.1,4.9c6.5,3.3,11.4,12.7,7.9,20.6c-0.4,0.9-0.9,1.8-1.4,2.7c-0.2,0.4-0.6,0.6-1.1,0.3
			c-0.5-0.3-0.4-0.7-0.2-1.1c1.1-1.7,1.9-3.5,2.2-5.6c0.7-5.1-1.1-9.5-4.9-13.4c-0.7-0.8-1.7-1.3-2.5-2c-0.8-0.6-1.7-1-2.4-1.6
			C662.7,180.1,662.1,179.3,661.4,178.7z"/>
		<path d="M644.6,177.6c0.2,0.3,0.4,0.7,0.6,1c1.2,1.9,1,4.2-0.4,5.7c-0.1,0.1-0.2,0.2-0.3,0.3c-0.3,0-0.7,0.1-1,0
			c-0.4-0.3-0.3-0.7,0-1c0.4-0.5,0.8-1,1-1.6c0.3-0.9,0-1.8-0.5-2.8c-0.5-1-1-2.1-1.3-3.2c-0.1-0.5,0.1-1.2,0.4-1.7
			c0.4-0.6,1-0.5,1.4,0.2c0.8,1.5,1.8,3,3.1,4.1c0.7,0.6,1.5,1.1,2.4,1.2c0.3,0,0.7,0.4,0.8,0.7c0.1,0.5-0.3,0.7-0.8,0.7
			c-1.7-0.1-2.9-1.1-4.1-2.3C645.4,178.5,645.1,178,644.6,177.6C644.7,177.6,644.6,177.6,644.6,177.6z"/>
		<path d="M661.1,222c-7,7.5-19.5,7.3-27.8-0.4c-8.2-7.7-9.3-20.2-2.2-27.7c7.2-7.6,19.4-7.4,27.8,0.4
			C667.4,202.3,668,214.6,661.1,222z M632.2,194.9c-6.6,7-5.7,18.4,2,25.7c7.4,7,19,7.7,25.9,0.4c6.5-6.9,5.5-18.6-2.1-25.7
			C650.3,188.1,638.8,188,632.2,194.9z"/>
		<path d="M656,197.5c6.4,6,7.1,15.6,1.7,21.4c-5.5,5.9-15.1,5.7-21.5-0.3c-6.4-6-7.1-15.6-1.5-21.5
			C640.1,191.3,649.7,191.5,656,197.5z M659.8,210.5c-1.9,0.8-3,0.4-4.2-1.4c-0.1-0.1-0.3-0.3-0.4-0.3c-1.4-0.1-2.8-0.1-4.2-0.2
			c-0.3,0.9-0.5,1.6-0.8,2.3c1,1,2.1,2,3.2,3c0.1,0.1,0.5,0.1,0.7,0.1c1.1-0.3,2.1-0.1,2.9,0.8c0.3,0.4,0.6,0.8,0.9,1.3
			C659,214.7,659.8,212.3,659.8,210.5z M643.5,211.8c-0.9,0.9-1.8,1.9-2.6,2.8c-0.1,0.1-0.1,0.5,0,0.7c0.4,1.1,0.3,2-0.4,2.8
			c-0.4,0.4-0.9,0.6-1.4,0.9c1.8,1.2,3.8,2.1,5.9,2.4c-1-2.2-0.8-2.9,1-4.1c0.1-0.1,0.2-0.2,0.2-0.3c-0.1-1.5-0.1-2.9-0.2-4.2
			C645,212.5,644.3,212.2,643.5,211.8z M656.7,200.2c-1,2.1-1.5,2.4-3.8,1.9c-0.1,0-0.3,0-0.4,0.1c-0.9,1-1.9,2-2.7,2.9
			c0.4,0.8,0.7,1.5,1,2.2c1.3,0,2.6,0.1,4,0.1c0.4,0,0.6-0.1,0.8-0.5c0.5-1.2,1.7-1.7,3-1.3c0.3,0.1,0.6,0.2,1,0.4
			C659,203.9,658.1,202,656.7,200.2z M634.3,199.8c-1.2,1.8-1.8,3.7-2,5.8c1.9-0.9,3.1-0.5,4.3,1.2c0.1,0.1,0.3,0.3,0.5,0.3
			c1.4,0,2.8,0.1,4.2,0.1c0.2-0.6,0.3-1.2,0.6-1.7c0.2-0.4,0.1-0.6-0.2-0.9c-0.9-0.8-1.7-1.6-2.6-2.4c-0.3-0.3-0.5-0.4-1-0.2
			c-1.2,0.4-2.5-0.1-3.2-1.1C634.7,200.6,634.5,200.2,634.3,199.8z M653.3,197c-1.9-1.3-3.9-2.1-6-2.5c1,2.2,0.8,2.8-1,4.2
			c-0.1,0.1-0.2,0.2-0.2,0.3c0.1,1.4,0.2,2.9,0.3,4.2c0.7,0.3,1.3,0.6,1.9,0.8c0.2,0.1,0.5,0,0.6-0.1c0.8-0.8,1.6-1.7,2.4-2.6
			c0.1-0.1,0.2-0.4,0.1-0.6C650.9,198.6,651.3,197.8,653.3,197z M645.1,203.2c-0.1-1.3-0.2-2.7-0.4-4.1c0-0.2-0.2-0.4-0.3-0.5
			c-1.8-1.1-2.3-2.2-1.5-4.2c-2.1,0.3-4,1-5.6,2.3c2.1,0.8,2.7,1.8,2.4,3.9c0,0.2,0.1,0.4,0.2,0.5c1,1,2.1,2,3.1,3
			C643.7,203.7,644.3,203.5,645.1,203.2z M655,219.3c-2.1-0.8-2.7-1.8-2.4-3.8c0-0.1,0-0.4-0.1-0.4c-1.1-1.1-2.2-2.1-3.2-3.1
			c-0.8,0.3-1.4,0.6-1.9,0.8c0.1,1.4,0.1,2.8,0.2,4.1c0,0.2,0.2,0.5,0.4,0.6c0.8,0.4,1.5,1,1.6,1.9c0.1,0.7,0,1.5,0,2.2
			C651.5,221.3,653.3,220.5,655,219.3z M635.5,215.8c0.1-0.1,0.1-0.1,0.1-0.1c0.6-1.9,1.5-2.4,3.5-1.9c0.2,0,0.4,0,0.5-0.1
			c0.8-0.8,1.6-1.7,2.4-2.6c0.1-0.1,0.2-0.4,0.1-0.6c-0.3-0.6-0.6-1.2-0.9-1.8c-1.3,0-2.6,0-3.9-0.1c-0.4,0-0.6,0.1-0.8,0.5
			c-0.5,1.3-1.9,1.8-3.2,1.2c-0.2-0.1-0.4-0.2-0.8-0.3C633.2,212.1,634.2,214,635.5,215.8z M648.7,210.4c1.2-1.3,1.1-3.4-0.4-4.8
			c-1.4-1.3-3.5-1.3-4.8,0c-1.2,1.2-1,3.4,0.4,4.7C645.4,211.7,647.5,211.7,648.7,210.4z M638,200.4c0.5-0.5,0.4-1.3-0.1-1.8
			c-0.5-0.5-1.4-0.6-1.8-0.1c-0.5,0.5-0.4,1.3,0.1,1.8C636.7,200.9,637.6,200.9,638,200.4z M646,195.2c-0.6-0.5-1.4-0.5-1.8,0
			c-0.4,0.5-0.4,1.3,0.2,1.8c0.6,0.5,1.4,0.6,1.8,0.1C646.7,196.6,646.6,195.7,646,195.2z M658.9,207.3c-0.6-0.5-1.4-0.5-1.8,0
			c-0.4,0.5-0.4,1.3,0.1,1.8c0.5,0.5,1.4,0.5,1.8,0.1C659.5,208.6,659.5,207.9,658.9,207.3z M656.2,217.5c0.5-0.5,0.4-1.3-0.2-1.8
			c-0.6-0.5-1.4-0.5-1.8,0c-0.4,0.5-0.3,1.3,0.2,1.8C654.9,218,655.8,218,656.2,217.5z M635.1,206.9c-0.6-0.5-1.4-0.6-1.8-0.1
			c-0.4,0.5-0.4,1.3,0.1,1.8c0.5,0.5,1.4,0.6,1.9,0.1C635.7,208.3,635.6,207.5,635.1,206.9z M637.4,215.4c-0.5,0.5-0.4,1.3,0.1,1.8
			c0.5,0.5,1.3,0.5,1.8,0c0.5-0.5,0.5-1.3-0.1-1.8C638.7,214.9,637.9,214.9,637.4,215.4z M654.8,198.8c-0.6-0.5-1.4-0.5-1.8,0
			c-0.4,0.5-0.4,1.3,0.1,1.8c0.5,0.5,1.3,0.6,1.8,0.1C655.4,200.2,655.3,199.4,654.8,198.8z M647.9,219c-0.5-0.5-1.4-0.5-1.8,0
			c-0.4,0.5-0.4,1.3,0.2,1.8c0.5,0.5,1.4,0.6,1.8,0.1C648.5,220.3,648.5,219.5,647.9,219z"/>
	</g>
	<g>
		<path d="M628.6,428.9c1.2-0.4,2.4-0.9,3.2-2.1c0.3-0.4,0.6-0.6,1.1-0.3c0.4,0.3,0.3,0.7,0,1c-0.2,0.3-0.5,0.6-0.7,0.9
			c-1.3,1.3-3,1.8-4.7,2.1c-1,0.2-1.3-0.2-0.9-1.1c0.4-1.1,0.7-2.1,0.9-3.2c0.7-3.6,0.3-7.1-0.5-10.4c-0.8-3.1-1.8-6.1-2.6-9.2
			c-0.6-2.4-1.1-4.9-0.6-7.4c0.4-2.3,1.2-4.6,2.2-6.8c2.2-5.2,6-9.1,11-11.8c4.3-2.3,8.7-3.2,13.3-2.8c3.6,0.3,6.8,1.5,9.7,3.5
			c3.9,2.7,6.5,6.4,7.7,11c0.9,3.3,1,6.8,0.2,10.3c-0.8,3.7-2.5,7.1-5,10.2c-4.3,5.2-9.8,8.3-16.2,9c-7.3,0.8-13.3-1.5-18-6.6
			c-0.1-0.1-0.2-0.2-0.4-0.4c1.1,4.8,1.5,9.4,0,14.3C628.4,428.9,628.5,428.9,628.6,428.9z M632.5,385.4
			c-8.4,7.9-10.1,21.1-2.1,29.5c7.3,7.5,20,7.9,29.3-0.7c8.4-7.8,10-20.8,2.3-29.2C654.5,377,641.6,376.9,632.5,385.4z"/>
		<path d="M644.8,443c0.4-0.6,0.7-1.1,1-1.6c1-1.8,0.5-3.3-1.3-3.8c-2.5-0.8-4.9-0.2-7.3,1.1c-2.3,1.3-4.2,3.2-6.1,5.1
			c0.2-0.6,0.4-1.2,0.6-1.7c0.8-1.5,1.8-2.8,3.1-4c1.3-1.2,2.4-2.5,2.9-4.3c0.6-2.2,0.2-4.2-0.4-6.2c-0.6-1.8-1.7-3.4-2.8-4.9
			c-0.3-0.4-0.6-0.7-1.1-0.3c-0.6,0.4-0.3,0.9,0,1.3c1.4,1.8,2.5,3.7,3,6c0.6,2.6,0.1,5-2.1,7.1c-1.4,1.4-2.8,2.8-3.7,4.5
			c-0.7,1.2-1.1,2.5-0.9,3.8c0.1,0.5,0.1,1.2,0.8,1.3c0.6,0.1,1-0.5,1.3-0.9c1.8-2.3,3.8-4.3,6.4-5.7c1.7-1,3.6-1.4,5.4-0.9
			c1.5,0.3,1.8,1.1,0.8,2.4c-0.6,0.8-1.3,1.5-1.9,2.2c-0.2,0.2-0.4,0.7-0.3,0.8c0.1,0.2,0.5,0.4,0.8,0.4c3.4-0.4,6.5-1.6,9-4.4
			c1.7-1.9,2.6-4.1,3.2-6.4c0.7-2.7,1.4-5.4,2.2-8c0.4-1.4,1.4-2.5,2.7-3.2c0.2-0.1,0.3-0.2,0.5-0.3c0.5-0.3,0.7-0.6,0.5-1.1
			c-0.3-0.5-0.7-0.4-1.1-0.1c-2.2,1.2-3.6,2.9-4.2,5.2c-0.7,2.4-1.3,4.8-1.9,7.2c-0.7,2.7-1.7,5.2-4,7.1
			C648.3,441.9,646.6,442.6,644.8,443z"/>
		<path d="M661.4,429.1c0.2-1,0.7-1.9,1.5-2.7c1-0.9,2-1.9,2.5-3.2c0.5-1.4,0.4-2.7-0.1-3.9c-0.5-1.1-1.5-1.4-2.6-1.5
			c-0.6,0-1.2,0-1.8,0.2c-0.3,0.1-0.5,0.5-0.7,0.7c0.2,0.2,0.5,0.5,0.8,0.6c0.2,0.1,0.5,0,0.8-0.1c2.1-0.2,2.8,0.8,2.5,2.9
			c-0.1,1.1-0.7,2-1.6,2.8c-1.5,1.3-2.6,2.8-2.7,4.7c-0.1,0.9,0.2,1.9,0.4,2.8c0,0.2,0.4,0.4,0.6,0.4c0.2-0.1,0.6-0.4,0.7-0.6
			c0.6-2.3,2.1-3.9,4.1-4.9c6.5-3.3,11.4-12.7,7.9-20.6c-0.4-0.9-0.9-1.8-1.4-2.7c-0.2-0.4-0.6-0.6-1.1-0.3
			c-0.5,0.3-0.4,0.7-0.2,1.1c1.1,1.7,1.9,3.5,2.2,5.6c0.7,5.1-1.1,9.5-4.9,13.4c-0.7,0.8-1.7,1.3-2.5,2c-0.8,0.6-1.7,1-2.4,1.6
			C662.7,427.7,662.1,428.4,661.4,429.1z"/>
		<path d="M644.6,430.2c0.2-0.3,0.4-0.7,0.6-1c1.2-1.9,1-4.2-0.4-5.7c-0.1-0.1-0.2-0.2-0.3-0.3c-0.3,0-0.7-0.1-1,0
			c-0.4,0.3-0.3,0.7,0,1c0.4,0.5,0.8,1,1,1.6c0.3,0.9,0,1.8-0.5,2.8c-0.5,1-1,2.1-1.3,3.2c-0.1,0.5,0.1,1.2,0.4,1.7
			c0.4,0.6,1,0.5,1.4-0.2c0.8-1.5,1.8-3,3.1-4.1c0.7-0.6,1.5-1.1,2.4-1.2c0.3,0,0.7-0.4,0.8-0.7c0.1-0.5-0.3-0.7-0.8-0.7
			c-1.7,0.1-2.9,1.1-4.1,2.3C645.4,429.3,645.1,429.8,644.6,430.2C644.7,430.2,644.6,430.2,644.6,430.2z"/>
		<path d="M658.9,413.4c-8.3,7.8-20.6,8-27.8,0.4c-7.1-7.5-6.1-20,2.2-27.7c8.3-7.7,20.7-7.9,27.8-0.4
			C668,393.2,667.4,405.4,658.9,413.4z M658,412.4c7.6-7.1,8.6-18.8,2.1-25.7c-6.9-7.3-18.5-6.7-25.9,0.4c-7.7,7.3-8.5,18.7-2,25.7
			C638.8,419.8,650.3,419.6,658,412.4z"/>
		<path d="M634.7,410.7c-5.6-5.9-4.9-15.5,1.5-21.5c6.4-6,16-6.1,21.5-0.3c5.4,5.8,4.6,15.4-1.7,21.4
			C649.7,416.3,640.1,416.5,634.7,410.7z M657.9,391.7c-0.3,0.4-0.5,0.9-0.9,1.3c-0.8,0.9-1.8,1.1-2.9,0.8c-0.2-0.1-0.6,0-0.7,0.1
			c-1.1,1-2.2,2-3.2,3c0.3,0.7,0.5,1.4,0.8,2.3c1.3-0.1,2.7-0.1,4.2-0.2c0.1,0,0.4-0.1,0.4-0.3c1.1-1.8,2.3-2.1,4.2-1.4
			C659.8,395.4,659,393.1,657.9,391.7z M645.9,394.9c0.1-1.3,0.1-2.8,0.2-4.2c0-0.1-0.1-0.3-0.2-0.3c-1.8-1.2-2-2-1-4.1
			c-2.2,0.4-4.1,1.2-5.9,2.4c0.5,0.3,1.1,0.5,1.4,0.9c0.7,0.8,0.8,1.7,0.4,2.8c-0.1,0.2-0.1,0.6,0,0.7c0.9,1,1.8,1.9,2.6,2.8
			C644.3,395.6,645,395.3,645.9,394.9z M659.5,401.7c-0.4,0.1-0.7,0.3-1,0.4c-1.3,0.4-2.5-0.2-3-1.3c-0.2-0.4-0.4-0.5-0.8-0.5
			c-1.3,0.1-2.7,0.1-4,0.1c-0.3,0.7-0.7,1.4-1,2.2c0.9,0.9,1.8,1.9,2.7,2.9c0.1,0.1,0.3,0.2,0.4,0.1c2.3-0.5,2.8-0.2,3.8,1.9
			C658.1,405.8,659,403.9,659.5,401.7z M634.9,406.9c0.7-1.1,2-1.6,3.2-1.1c0.4,0.1,0.7,0.1,1-0.2c0.8-0.8,1.7-1.6,2.6-2.4
			c0.3-0.3,0.4-0.5,0.2-0.9c-0.3-0.5-0.4-1.1-0.6-1.7c-1.3,0-2.8,0-4.2,0.1c-0.1,0-0.4,0.1-0.5,0.3c-1.2,1.8-2.4,2.1-4.3,1.2
			c0.2,2.2,0.8,4.1,2,5.8C634.5,407.5,634.7,407.2,634.9,406.9z M651.5,407c0-0.2,0-0.4-0.1-0.6c-0.8-0.9-1.6-1.7-2.4-2.6
			c-0.1-0.1-0.4-0.2-0.6-0.1c-0.6,0.2-1.2,0.5-1.9,0.8c-0.1,1.3-0.2,2.8-0.3,4.2c0,0.1,0.1,0.3,0.2,0.3c1.8,1.3,2,2,1,4.2
			c2.2-0.4,4.1-1.2,6-2.5C651.3,410,650.9,409.1,651.5,407z M642.9,403.7c-1,1-2.1,1.9-3.1,3c-0.1,0.1-0.2,0.4-0.2,0.5
			c0.3,2.1-0.2,3-2.4,3.9c1.7,1.3,3.5,2,5.6,2.3c-0.7-2-0.3-3.1,1.5-4.2c0.2-0.1,0.3-0.3,0.3-0.5c0.1-1.4,0.2-2.8,0.4-4.1
			C644.3,404.3,643.7,404,642.9,403.7z M649.6,386.2c0,0.7,0.2,1.5,0,2.2c-0.1,0.9-0.8,1.5-1.6,1.9c-0.2,0.1-0.4,0.4-0.4,0.6
			c-0.1,1.4-0.1,2.7-0.2,4.1c0.5,0.2,1.2,0.5,1.9,0.8c1-1,2.1-2,3.2-3.1c0.1-0.1,0.1-0.3,0.1-0.4c-0.4-2,0.3-3.1,2.4-3.8
			C653.3,387.2,651.5,386.5,649.6,386.2z M632.7,397.8c0.3-0.1,0.5-0.2,0.8-0.3c1.4-0.5,2.7,0,3.2,1.2c0.2,0.4,0.4,0.5,0.8,0.5
			c1.3-0.1,2.6-0.1,3.9-0.1c0.3-0.6,0.6-1.2,0.9-1.8c0.1-0.2,0-0.5-0.1-0.6c-0.8-0.9-1.6-1.7-2.4-2.6c-0.1-0.1-0.4-0.2-0.5-0.1
			c-2,0.5-3,0-3.5-1.9c0,0-0.1-0.1-0.1-0.1C634.2,393.7,633.2,395.6,632.7,397.8z M643.9,397.4c-1.4,1.3-1.6,3.5-0.4,4.7
			c1.2,1.3,3.4,1.3,4.8,0c1.5-1.3,1.6-3.5,0.4-4.8C647.5,396.1,645.4,396.1,643.9,397.4z M636.2,407.4c-0.5,0.5-0.6,1.4-0.1,1.8
			c0.5,0.5,1.3,0.5,1.8-0.1c0.5-0.5,0.6-1.4,0.1-1.8C637.6,406.9,636.7,406.9,636.2,407.4z M646.2,410.7c-0.5-0.5-1.3-0.5-1.8,0.1
			c-0.5,0.5-0.6,1.3-0.2,1.8c0.5,0.5,1.3,0.5,1.8,0C646.6,412,646.7,411.2,646.2,410.7z M659,398.6c-0.5-0.5-1.3-0.5-1.8,0.1
			c-0.5,0.5-0.6,1.3-0.1,1.8c0.5,0.5,1.3,0.5,1.8,0C659.5,399.9,659.5,399.1,659,398.6z M654.4,390.3c-0.5,0.5-0.6,1.3-0.2,1.8
			c0.5,0.5,1.3,0.5,1.8,0c0.6-0.5,0.7-1.3,0.2-1.8C655.8,389.8,654.9,389.8,654.4,390.3z M635.2,399c-0.5-0.5-1.3-0.4-1.9,0.1
			c-0.5,0.5-0.6,1.3-0.1,1.8c0.5,0.5,1.3,0.5,1.8-0.1C635.6,400.3,635.7,399.5,635.2,399z M639.2,392.4c0.5-0.5,0.6-1.3,0.1-1.8
			c-0.5-0.5-1.2-0.5-1.8,0c-0.6,0.5-0.6,1.3-0.1,1.8C637.9,392.9,638.7,392.9,639.2,392.4z M654.9,407.1c-0.5-0.5-1.3-0.5-1.8,0.1
			c-0.5,0.5-0.6,1.3-0.1,1.8c0.5,0.5,1.3,0.5,1.8,0C655.3,408.4,655.4,407.6,654.9,407.1z M648.1,386.9c-0.5-0.5-1.3-0.5-1.8,0.1
			c-0.5,0.5-0.6,1.3-0.2,1.8c0.5,0.5,1.3,0.5,1.8,0C648.5,388.2,648.5,387.4,648.1,386.9z"/>
	</g>
	<path d="M114.8,281.4c3.6,0.1,7.1,1,10.3,3c9.1,5.7,18.3,11.4,27.5,17.1c2.1,1.3,2.1,1.9,0,3.2c-9.1,5.7-18.3,11.3-27.4,17
		c-9,5.6-20.9,3.3-27.2-5.3c-8.4-11.4-4.6-26.9,8-33.1C108.7,282,111.6,281.5,114.8,281.4z M146.9,303.2c-0.3-0.3-0.4-0.4-0.6-0.4
		c-8-5-16-10.1-24.2-14.9c-1.9-1.1-4.2-1.8-6.4-1.9c-11.7-0.9-20.7,10.7-17.3,22.1c3.2,10.9,15.5,16.1,25.3,9.6
		c5.7-3.8,11.7-7.3,17.6-10.9C143.1,305.6,144.9,304.4,146.9,303.2z"/>
	<path d="M106.5,303c0-4.8,3.9-8.7,8.6-8.7c4.9,0,8.7,3.8,8.8,8.7c0,4.7-3.9,8.6-8.7,8.6C110.4,311.7,106.5,307.8,106.5,303z
		 M115.1,296.5c-3.5,0-6.4,2.9-6.4,6.4c0,3.6,2.9,6.5,6.5,6.5c3.6,0,6.5-2.9,6.5-6.5C121.7,299.4,118.8,296.5,115.1,296.5z"/>
	<g id="Dgqkwl.tif">
		<g>
			<path d="M108.7,417.1c-0.4,0.2-0.7,0.3-1,0.5c-0.5,0.3-1.1,0.5-1.4-0.2c-0.3-0.6,0.2-0.9,0.7-1.2c3.5-1.8,7-3.7,10.6-5.5
				c4-2.1,8.1-4.2,12.2-6.4c-0.3-0.2-0.6-0.4-0.9-0.5c-7-4.2-14-8.4-21-12.6c-0.5-0.3-1.2-0.6-0.8-1.3c0.4-0.7,1-0.3,1.5,0
				c0.2,0.1,0.5,0.3,0.9,0.5c0.3-1.1,0.5-2,0.7-3c0.2-1.2,0.3-2.4,0.4-3.6c0.2-1.9,1.1-3.4,2.4-4.7c1.6-1.7,3.3-3.3,4.9-4.9
				c1.5-1.5,2.4-3.4,2.6-5.6c0.1-0.9,0.6-1.2,1.5-0.7c5.1,3,10.3,6,15.4,8.9c0.5,0.3,0.7,0.7,0.6,1.3c-0.3,2-1.3,3.6-2.6,5
				c-1.8,2-3.6,3.9-5.5,5.8c-1.9,1.8-2.5,4-2.2,6.6c0.2,1.8,0.3,3.7-0.7,5.5c1.4,0.8,2.8,1.7,4.2,2.5c0.2,0.1,0.6-0.1,0.8-0.2
				c4.4-2.3,8.7-4.6,13.1-6.8c0.1-0.1,0.3-0.2,0.4-0.2c0.4,0.1,0.9,0.1,1.1,0.3c0.3,0.4,0,0.8-0.4,1.1c-1,0.5-2,1-2.9,1.5
				c-3.4,1.8-6.8,3.6-10.4,5.4c0.3,0.2,0.6,0.4,0.8,0.5c3.9,2.3,7.7,4.6,11.6,6.9c0.1,0.1,0.2,0.1,0.3,0.2c0.5,0.3,0.8,0.7,0.5,1.3
				c-0.3,0.6-0.8,0.4-1.3,0.1c-1.3-0.7-2.5-1.5-3.8-2.2c-3-1.8-6.1-3.6-9.1-5.5c-0.5-0.3-0.8-0.3-1.3,0c-1.1,0.6-2.2,1.1-3.3,1.8
				c-0.2,0.1-0.4,0.5-0.4,0.6c0.6,1.7,0.3,3.4,0.2,5.1c0,1.1-0.1,2.1,0,3.2c0.1,0.8,0.3,1.6,0.8,2.2c1,1.4,2.1,2.6,3.2,3.9
				c1.6,1.8,3.4,3.5,4.4,5.8c0.4,0.9,0.6,1.8,0.9,2.7c0.2,0.8,0,1.3-0.8,1.6c-4.9,2.4-9.7,4.9-14.6,7.4c-0.5,0.2-0.9,0.5-1.4,0.7
				c-0.6,0.3-1.3-0.1-1.2-0.7c0.3-3-1.5-5-3.3-7.1c-1.3-1.6-2.8-3-4.1-4.6c-1.4-1.6-1.6-3.5-1.8-5.5c-0.1-1.6-0.3-3.3-0.5-4.9
				C108.8,417.5,108.7,417.3,108.7,417.1z M120,438.5c0.1,0,0.2,0,0.2,0c4.7-2.4,9.5-4.8,14.2-7.3c0.2-0.1,0.4-0.6,0.3-0.7
				c-0.4-1-0.7-2.1-1.4-3c-1.4-1.9-2.9-3.8-4.6-5.4c-2.6-2.6-3.8-5.6-3.1-9.3c0.3-1.4,0.1-2.8-0.3-4.3c-5.2,2.7-10.2,5.4-15.1,7.9
				c0.2,2.2,0.4,4.2,0.5,6.3c0.1,2.1,0.7,4,2.2,5.6c1,1,1.9,2.1,2.9,3.2C118,433.3,119.6,435.5,120,438.5z M110.7,391.1
				c5,3,10,6,15.1,9c0.2-1,0.4-1.9,0.4-2.7c0-1.2-0.1-2.3-0.1-3.5c0-1.7,0.2-3.4,1.5-4.8c1.8-2,3.7-3.9,5.6-5.9
				c1.3-1.3,2.3-2.8,3-4.5c0.3-0.6,0.2-0.9-0.4-1.3c-3.2-1.8-6.5-3.7-9.7-5.6c-1.3-0.8-2.7-1.5-4-2.3c-0.4,2.3-1.7,4.1-3.2,5.7
				c-1.4,1.5-2.8,2.9-4.3,4.3c-1.6,1.6-2.5,3.4-2.7,5.6C111.8,387.2,111.8,389.2,110.7,391.1z"/>
		</g>
	</g>
	<g id="Dgqkwl.tif_00000028313352052233688150000005719026302104046756_">
		<g>
			<path d="M108.7,222.2c-0.4,0.2-0.7,0.3-1,0.5c-0.5,0.3-1.1,0.5-1.4-0.2c-0.3-0.6,0.2-0.9,0.7-1.2c3.5-1.8,7-3.7,10.6-5.5
				c4-2.1,8.1-4.2,12.2-6.4c-0.3-0.2-0.6-0.4-0.9-0.5c-7-4.2-14-8.4-21-12.6c-0.5-0.3-1.2-0.6-0.8-1.3c0.4-0.7,1-0.3,1.5,0
				c0.2,0.1,0.5,0.3,0.9,0.5c0.3-1.1,0.5-2,0.7-3c0.2-1.2,0.3-2.4,0.4-3.6c0.2-1.9,1.1-3.4,2.4-4.7c1.6-1.7,3.3-3.3,4.9-4.9
				c1.5-1.5,2.4-3.4,2.6-5.6c0.1-0.9,0.6-1.2,1.5-0.7c5.1,3,10.3,6,15.4,8.9c0.5,0.3,0.7,0.7,0.6,1.3c-0.3,2-1.3,3.6-2.6,5
				c-1.8,2-3.6,3.9-5.5,5.8c-1.9,1.8-2.5,4-2.2,6.6c0.2,1.8,0.3,3.7-0.7,5.5c1.4,0.8,2.8,1.7,4.2,2.5c0.2,0.1,0.6-0.1,0.8-0.2
				c4.4-2.3,8.7-4.6,13.1-6.8c0.1-0.1,0.3-0.2,0.4-0.2c0.4,0.1,0.9,0.1,1.1,0.3c0.3,0.4,0,0.8-0.4,1.1c-1,0.5-2,1-2.9,1.5
				c-3.4,1.8-6.8,3.6-10.4,5.4c0.3,0.2,0.6,0.4,0.8,0.5c3.9,2.3,7.7,4.6,11.6,6.9c0.1,0.1,0.2,0.1,0.3,0.2c0.5,0.3,0.8,0.7,0.5,1.3
				c-0.3,0.6-0.8,0.4-1.3,0.1c-1.3-0.7-2.5-1.5-3.8-2.2c-3-1.8-6.1-3.6-9.1-5.5c-0.5-0.3-0.8-0.3-1.3,0c-1.1,0.6-2.2,1.1-3.3,1.8
				c-0.2,0.1-0.4,0.5-0.4,0.6c0.6,1.7,0.3,3.4,0.2,5.1c0,1.1-0.1,2.1,0,3.2c0.1,0.8,0.3,1.6,0.8,2.2c1,1.4,2.1,2.6,3.2,3.9
				c1.6,1.8,3.4,3.5,4.4,5.8c0.4,0.9,0.6,1.8,0.9,2.7c0.2,0.8,0,1.3-0.8,1.6c-4.9,2.4-9.7,4.9-14.6,7.4c-0.5,0.2-0.9,0.5-1.4,0.7
				c-0.6,0.3-1.3-0.1-1.2-0.7c0.3-3-1.5-5-3.3-7.1c-1.3-1.6-2.8-3-4.1-4.6c-1.4-1.6-1.6-3.5-1.8-5.5c-0.1-1.6-0.3-3.3-0.5-4.9
				C108.8,222.6,108.7,222.5,108.7,222.2z M120,243.6c0.1,0,0.2,0,0.2,0c4.7-2.4,9.5-4.8,14.2-7.3c0.2-0.1,0.4-0.6,0.3-0.7
				c-0.4-1-0.7-2.1-1.4-3c-1.4-1.9-2.9-3.8-4.6-5.4c-2.6-2.6-3.8-5.6-3.1-9.3c0.3-1.4,0.1-2.8-0.3-4.3c-5.2,2.7-10.2,5.4-15.1,7.9
				c0.2,2.2,0.4,4.2,0.5,6.3c0.1,2.1,0.7,4,2.2,5.6c1,1,1.9,2.1,2.9,3.2C118,238.4,119.6,240.7,120,243.6z M110.7,196.2
				c5,3,10,6,15.1,9c0.2-1,0.4-1.9,0.4-2.7c0-1.2-0.1-2.3-0.1-3.5c0-1.7,0.2-3.4,1.5-4.8c1.8-2,3.7-3.9,5.6-5.9
				c1.3-1.3,2.3-2.8,3-4.5c0.3-0.6,0.2-0.9-0.4-1.3c-3.2-1.8-6.5-3.7-9.7-5.6c-1.3-0.8-2.7-1.5-4-2.3c-0.4,2.3-1.7,4.1-3.2,5.7
				c-1.4,1.5-2.8,2.9-4.3,4.3c-1.6,1.6-2.5,3.4-2.7,5.6C111.8,192.4,111.8,194.4,110.7,196.2z"/>
		</g>
	</g>
</g>
</svg>
