<?xml version="1.0" encoding="utf-8"?>
<!-- Generator: Adobe Illustrator 25.4.1, SVG Export Plug-In . SVG Version: 6.00 Build 0)  -->
<svg version="1.1" id="Layer_1" xmlns="http://www.w3.org/2000/svg" xmlns:xlink="http://www.w3.org/1999/xlink" x="0px" y="0px"
	 viewBox="0 0 792 612" style="enable-background:new 0 0 792 612;" xml:space="preserve">
<style type="text/css">
	.st0{fill:#FFFFFF;stroke:#FF0000;stroke-width:1.000000e-03;stroke-miterlimit:42.1397;}
	.st1{fill:#FFFFFF;stroke:#FF0000;stroke-width:1.000000e-03;stroke-miterlimit:10;}
</style>
<g id="svg15158" transform="scale(1.3333333)">
	<path id="path11" class="st0" d="M54.5,146v12.6H42.6c-17.2,0-31.2,14.1-31.2,31.3v79.4c0,17.2,14,31.2,31.2,31.2h11.9v12.7
		c0,17.2,14,31.2,31.2,31.2h130.8h12.1H504c17.2,0,31.2-14,31.2-31.2v-12.6h11.9c17.2,0,31.2-14,31.2-31.2V190
		c0-17.2-14-31.2-31.2-31.2h-11.9v-12.6c0-17.2-14-31.2-31.2-31.2H228.6h-12.1H85.8C68.6,114.8,54.5,128.9,54.5,146L54.5,146z"/>
	<path id="path7" class="st0" d="M41.3,204v15.9c-0.1,0-0.1,0-0.1,0c-5.3,0-9.7,4.3-9.7,9.7c0,5.3,4.4,9.7,9.7,9.7
		c0.1,0,0.1,0,0.2,0v15.9c0,2.8,2.3,5,5,5h1.9c2.8,0,5-2.3,5-5V204c0-2.8-2.3-5-5-5h-1.9C43.6,199,41.3,201.2,41.3,204z"/>
	<path id="path9" class="st0" d="M548.5,255.2v-15.9c0.1,0,0.1,0,0.2,0c5.3,0,9.7-4.3,9.7-9.7c0-5.3-4.3-9.7-9.7-9.7
		c-0.1,0-0.1,0-0.2,0V204c0-2.8-2.3-5-5-5h-1.9c-2.8,0-5,2.3-5,5v51.2c0,2.8,2.3,5,5,5h1.9C546.2,260.2,548.5,257.9,548.5,255.2z"/>
</g>
<g id="Layer_2_00000005267674938470384930000007299763746156256904_">
</g>
<path class="st1" d="M510,209.4V404c0,6.9-5.6,12.6-12.6,12.6h-54.9c-6.9,0-12.6-5.6-12.6-12.6V209.4c0-6.9,5.6-12.6,12.6-12.6h54.9
	C504.4,196.8,510,202.5,510,209.4z"/>
</svg>
