<?xml version="1.0" encoding="utf-8"?>
<!-- Generator: Adobe Illustrator 25.4.1, SVG Export Plug-In . SVG Version: 6.00 Build 0)  -->
<svg version="1.1" id="Layer_1" xmlns="http://www.w3.org/2000/svg" xmlns:xlink="http://www.w3.org/1999/xlink" x="0px" y="0px"
	 viewBox="0 0 792 612" style="enable-background:new 0 0 792 612;" xml:space="preserve">
<style type="text/css">
	.st0{fill:#FFFFFF;stroke:#000000;stroke-miterlimit:10;}
	.st1{fill:none;stroke:#000000;}
	.st2{fill:none;stroke:#000000;stroke-miterlimit:10;}
</style>
<rect x="0.6" y="0.9" class="st0" width="792" height="612"/>
<g id="Layer_2_00000005267674938470384930000007299763746156256904_">
</g>
<g>
	<path class="st1" d="M550.1,264.7l-15,0.3v-4h6.3v-1.2h-6.3v-4l15-0.3v4h-5.3v1.2h5.3V264.7z"/>
	<path class="st1" d="M543.3,274.7h-3c-1.1,0-1.9,0-2.5-0.1c-0.5-0.1-1-0.4-1.5-0.7c-0.4-0.4-0.8-0.8-1-1.4
		c-0.3-0.5-0.3-1.2-0.3-1.9c0-0.8,0.1-1.5,0.3-2c0.1-0.5,0.4-1.1,0.8-1.4c0.4-0.3,0.8-0.5,1.4-0.7s1.4-0.3,2.3-0.3h3.1
		c1.1,0,2,0.1,2.7,0.4s1.2,0.7,1.5,1.4c0.4,0.7,0.5,1.5,0.5,2.5c0,0.8-0.1,1.5-0.4,2.2c-0.3,0.5-0.5,1.1-1,1.4s-0.8,0.5-1.2,0.7
		C544.8,274.7,544.1,274.7,543.3,274.7z M544.2,271c0.7,0,1.1,0,1.2-0.1c0.1-0.1,0.3-0.3,0.3-0.4c0-0.3-0.1-0.4-0.3-0.4
		c-0.1,0-0.5-0.1-1.2-0.1h-5.6c-0.5,0-1,0-1.1,0.1s-0.3,0.3-0.3,0.4c0,0.3,0.1,0.4,0.3,0.4c0.1,0.1,0.5,0.1,1.1,0.1H544.2z"/>
	<path class="st1" d="M547.6,279.7h-1.1c0.4,0.3,0.8,0.5,1,1c0.3,0.4,0.4,0.8,0.4,1.4c0,0.7-0.1,1.2-0.4,1.6
		c-0.3,0.4-0.7,0.7-1.1,0.8c-0.4,0.1-1.2,0.1-2.3,0.1h-8.6V281h8.5c0.8,0,1.4,0,1.5-0.1c0.1,0,0.3-0.3,0.3-0.4
		c0-0.3-0.1-0.4-0.3-0.5c-0.3,0-0.8-0.1-1.8-0.1h-8.3V276l12.3-0.1L547.6,279.7z"/>
	<path class="st1" d="M550.4,294.3l-15,0.3v-3.7h1c-0.4-0.4-0.7-0.7-0.8-1.1s-0.3-0.8-0.3-1.2c0-0.5,0.1-1.1,0.4-1.5
		c0.3-0.4,0.7-0.7,1.1-0.8c0.4-0.1,1.1-0.1,1.9-0.1h5.7c1,0,1.6,0,2,0.1s0.7,0.4,1.1,0.8c0.3,0.4,0.4,1,0.4,1.5c0,0.4-0.1,1-0.3,1.2
		c-0.1,0.4-0.4,0.7-0.7,1.1h3.5L550.4,294.3z M544.6,290.6c0.4,0,0.8,0,1-0.1c0.1-0.1,0.3-0.3,0.3-0.4c0-0.3-0.1-0.4-0.3-0.4
		c-0.1-0.1-0.4-0.1-1-0.1h-6c-0.5,0-0.8,0-1,0.1c-0.1,0.1-0.3,0.3-0.3,0.4c0,0.3,0.1,0.4,0.3,0.5c0.1,0.1,0.5,0.1,1.2,0.1
		L544.6,290.6z"/>
	<path class="st1" d="M543.1,299.1v-3.5h0.8c1,0,1.6,0.1,2.2,0.3c0.5,0.3,1,0.7,1.4,1.4c0.4,0.7,0.5,1.5,0.5,2.6
		c0,1.2-0.3,2.2-0.7,2.9s-1,1.1-1.6,1.2c-0.7,0.1-2,0.3-4,0.3h-6.1v-3.7h1.1c-0.4-0.3-0.8-0.5-1-0.8c-0.3-0.4-0.3-0.8-0.3-1.2
		c0-0.7,0.1-1.2,0.5-1.8c0.4-0.5,1.2-0.8,2.5-0.8h1c1,0,1.5,0.1,1.9,0.4c0.3,0.3,0.7,1,1.2,2.2s0.8,1.9,1,1.9c0.1,0.1,0.5,0.1,1,0.1
		c0.7,0,1.1,0,1.2-0.1c0.1-0.1,0.3-0.3,0.3-0.5c0-0.3-0.1-0.4-0.3-0.4c-0.1,0-0.5-0.1-1.2-0.1L543.1,299.1z M541.3,300.2
		c-0.4-0.5-0.8-1-1.1-1.1s-0.7-0.1-1.2-0.1c-0.7,0-1.1,0-1.2,0.1c-0.1,0.1-0.3,0.3-0.3,0.5c0,0.3,0.1,0.4,0.3,0.4
		c0.1,0.1,0.5,0.1,1.1,0.1h2.4V300.2z"/>
	<path class="st1" d="M546.1,317v-3.7h1.1c0.5,0,0.8,0,1-0.1c0.1-0.1,0.3-0.3,0.3-0.4c0-0.3-0.1-0.4-0.3-0.5
		c-0.1-0.1-0.5-0.1-0.8-0.1c-0.5,0-0.8,0.1-1.1,0.3c-0.3,0.1-0.5,0.5-1,1.1c-1,1.8-1.9,2.9-2.5,3.3c-0.7,0.4-1.8,0.7-3.1,0.7
		c-1.1,0-1.9-0.1-2.3-0.4c-0.5-0.3-1-0.7-1.2-1.5c-0.4-0.7-0.5-1.5-0.5-2.5c0-1.1,0.1-1.9,0.5-2.7c0.4-0.7,1-1.2,1.5-1.5
		s1.5-0.4,2.6-0.4h1v3.7h-1.8c-0.5,0-1,0-1.1,0.1s-0.3,0.3-0.3,0.5c0,0.3,0.1,0.4,0.3,0.5c0.1,0.1,0.5,0.1,1,0.1
		c0.8,0,1.5-0.1,1.8-0.4s0.7-0.8,1.4-1.8s1.1-1.6,1.4-1.9c0.3-0.3,0.7-0.5,1.2-0.8s1.2-0.3,1.9-0.3c1.1,0,2,0.1,2.5,0.4
		s1,0.8,1.2,1.4c0.3,0.7,0.4,1.5,0.4,2.3c0,1-0.1,1.9-0.4,2.6c-0.3,0.7-0.7,1.2-1.2,1.4c-0.5,0.3-1.4,0.4-2.6,0.4L546.1,317z"/>
	<path class="st1" d="M538.3,326.5h-2.6v-8.2h2.2c4,2.5,6.5,3.8,7.4,4.4c1,0.4,1.6,0.7,2.2,0.7c0.4,0,0.7-0.1,1-0.3
		c0.1-0.1,0.3-0.4,0.3-0.7c0-0.3-0.1-0.5-0.3-0.7c-0.3-0.1-0.7-0.3-1.4-0.1h-1.4v-3.4h0.5c0.8,0,1.5,0,2,0.1s1,0.3,1.5,0.7
		c0.4,0.3,0.8,0.8,1.1,1.4c0.3,0.5,0.4,1.2,0.4,1.9c0,1.5-0.4,2.6-1.1,3.4c-0.7,0.8-1.6,1.1-2.7,1.2c-0.8,0-1.8-0.1-2.7-0.7
		c-1-0.4-3-1.6-6.1-3.8L538.3,326.5z"/>
	<path class="st1" d="M545.9,336.8h-5c-1.1,0-1.9,0-2.5-0.1c-0.5-0.1-1-0.4-1.5-0.8c-0.4-0.4-0.8-0.8-1-1.4
		c-0.1-0.5-0.3-1.2-0.3-1.9c0-1,0.1-1.6,0.3-2.2c0.1-0.5,0.5-1.1,1-1.4c0.4-0.4,1-0.5,1.4-0.8c0.5-0.1,1.2-0.3,2.3-0.3h5.2
		c1.4,0,2.5,0.1,3.1,0.3c0.7,0.3,1.2,0.7,1.6,1.4c0.4,0.7,0.7,1.5,0.7,2.6c0,0.8-0.1,1.5-0.4,2.2c-0.3,0.7-0.7,1.1-1.1,1.5
		c-0.4,0.4-0.8,0.5-1.4,0.7C547.8,336.8,546.9,336.8,545.9,336.8z M547.1,333.1c0.8,0,1.2,0,1.5-0.1c0.1-0.1,0.3-0.3,0.3-0.5
		c0-0.3-0.1-0.4-0.3-0.5c-0.3-0.1-0.7-0.1-1.5-0.1h-7.4c-0.8,0-1.4,0-1.6,0.1c-0.1,0.1-0.3,0.3-0.3,0.5c0,0.3,0.1,0.4,0.3,0.5
		c0.3,0.1,0.7,0.1,1.4,0.1H547.1z"/>
	<path class="st1" d="M545.9,347h-5c-1.1,0-1.9,0-2.5-0.1c-0.5-0.1-1-0.4-1.5-0.8c-0.4-0.4-0.8-0.8-1-1.4c-0.1-0.5-0.3-1.2-0.3-1.9
		c0-1,0.1-1.6,0.3-2.2c0.1-0.5,0.5-1.1,1-1.4s1-0.5,1.4-0.8c0.5-0.1,1.2-0.3,2.3-0.3h5.2c1.4,0,2.5,0.1,3.1,0.3
		c0.7,0.3,1.2,0.7,1.6,1.4c0.4,0.7,0.7,1.5,0.7,2.6c0,0.8-0.1,1.5-0.4,2.2c-0.3,0.7-0.7,1.1-1.1,1.5c-0.4,0.3-0.8,0.5-1.4,0.7
		C547.9,346.8,547.1,347,545.9,347z M547.1,343.2c0.8,0,1.2,0,1.5-0.1c0.1-0.1,0.3-0.3,0.3-0.5c0-0.3-0.1-0.4-0.3-0.5
		c-0.3-0.1-0.7-0.1-1.5-0.1h-7.4c-0.8,0-1.4,0-1.6,0.1c-0.1,0.1-0.3,0.3-0.3,0.5c0,0.3,0.1,0.4,0.3,0.5c0.3,0.1,0.7,0.1,1.4,0.1
		H547.1z"/>
	<path class="st1" d="M546.1,357.1h-5c-1.1,0-1.9,0-2.5-0.1c-0.5-0.1-1-0.4-1.5-0.8c-0.4-0.4-0.8-0.8-1-1.4
		c-0.1-0.5-0.3-1.2-0.3-1.9c0-1,0.1-1.6,0.3-2.2c0.1-0.5,0.5-1.1,1-1.4c0.4-0.4,1-0.5,1.4-0.8c0.5-0.1,1.2-0.3,2.3-0.3h5.2
		c1.4,0,2.5,0.1,3.1,0.3c0.7,0.3,1.2,0.7,1.6,1.4s0.7,1.5,0.7,2.6c0,0.8-0.1,1.5-0.4,2.2c-0.3,0.7-0.7,1.1-1.1,1.5
		c-0.4,0.3-0.8,0.5-1.4,0.7C548,357.1,547.2,357.1,546.1,357.1z M547.4,353.4c0.8,0,1.2,0,1.5-0.1c0.1-0.1,0.3-0.3,0.3-0.5
		c0-0.3-0.1-0.4-0.3-0.5c-0.3-0.1-0.7-0.1-1.5-0.1H540c-0.8,0-1.4,0-1.6,0.1c-0.1,0.1-0.3,0.3-0.3,0.5c0,0.3,0.1,0.4,0.3,0.5
		c0.3,0.1,0.7,0.1,1.4,0.1H547.4z"/>
</g>
<g>
	<path class="st1" d="M703,248.8l-24.1,0.3l-0.1-6.3l10.2-0.1v-1.9l-10.2,0.1l-0.1-6.3l24.1-0.3l0.1,6.3l-8.7,0.1v1.9l8.7-0.1
		L703,248.8z"/>
	<path class="st1" d="M692,264.8h-5c-1.8,0-3.1,0-3.9-0.3c-0.9-0.1-1.6-0.5-2.4-1.1c-0.8-0.6-1.3-1.4-1.6-2.3
		c-0.4-0.9-0.5-2-0.5-3.1c0-1.4,0.1-2.5,0.4-3.4c0.3-0.9,0.8-1.6,1.3-2.1c0.6-0.5,1.3-0.9,2.1-1.1c0.9-0.3,2.1-0.4,3.8-0.4h5
		c1.9,0,3.3,0.1,4.3,0.5s1.9,1.1,2.5,2.1s1,2.4,1,3.9c0,1.4-0.1,2.5-0.5,3.5s-0.9,1.8-1.5,2.3s-1.3,0.9-2,1.1
		C694.5,264.7,693.3,264.8,692,264.8z M693.3,258.8c1,0,1.6-0.1,1.9-0.1c0.3-0.1,0.4-0.4,0.4-0.8s-0.1-0.6-0.4-0.8s-0.9-0.1-1.9-0.1
		l-8.9,0.1c-0.9,0-1.5,0.1-1.9,0.3c-0.3,0.1-0.4,0.4-0.4,0.8s0.1,0.6,0.4,0.8c0.3,0.1,0.8,0.1,1.6,0.1L693.3,258.8z"/>
	<path class="st1" d="M701.6,273h-3.1v1.6h-3.1V273l-10.6,0.1c-1.3,0-2,0.1-2.1,0.3c-0.1,0.1-0.3,0.8-0.3,1.6h-3.1v-2.4
		c0-1.4,0-2.4,0.1-2.9c0.1-0.6,0.4-1.1,0.8-1.5c0.4-0.5,0.9-0.8,1.4-0.9s1.8-0.1,3.8-0.3l10.1-0.1v-1.3h3.1v1.3h3.1L701.6,273z"/>
	<path class="st1" d="M703.8,305.2l-24.1-2.5l-0.1-7.8c3.6-0.8,7.9-1.4,12.6-2c-2-0.3-6.3-0.8-12.7-1.6l-0.1-7.8l24.1-3.1l0.1,6
		l-8.4,0.8L687,288c4.3,0.1,9.7,0.8,16.6,1.5l0.1,6.5c-0.8,0.1-3.4,0.4-7.9,0.8l-9.2,0.8c5.9,0.3,11.6,0.8,17.2,1.5L703.8,305.2z"/>
	<path class="st1" d="M703.9,312.2l-5.4,0.1c0.5,0.5,0.9,1,1.1,1.6c0.3,0.6,0.4,1.3,0.4,1.9c0,1-0.3,2-0.8,2.6s-1.1,1.3-1.9,1.4
		c-0.8,0.1-2,0.3-3.8,0.3l-13.6,0.1l-0.1-6l14-0.1c1.1,0,1.9-0.1,2.3-0.3s0.5-0.4,0.5-0.8s-0.1-0.6-0.5-0.8c-0.4-0.1-1-0.1-2-0.1
		l-14.1,0.1l-0.1-6l24.1-0.3L703.9,312.2z"/>
	<path class="st1" d="M689.6,336l-0.1-7.8h-4.3c-0.9,0-1.5,0.1-1.8,0.3s-0.4,0.4-0.4,0.8c0,0.5,0.1,0.8,0.5,0.9s1,0.3,2,0.3h2.6
		l0.1,5.7h-1.5c-1.3,0-2.1,0-2.8-0.3c-0.6-0.1-1.4-0.5-2.1-1c-0.8-0.5-1.4-1.3-1.8-2.1c-0.4-0.9-0.6-2-0.6-3.3s0.1-2.4,0.5-3.4
		s0.9-1.8,1.5-2.3s1.4-0.9,2.1-1.1c0.8-0.3,1.9-0.4,3.4-0.4l5.8-0.1c1.8,0,3.1,0.3,4.1,0.6c1,0.5,1.8,1.3,2.3,2.3s0.9,2.3,0.9,3.6
		c0,1.6-0.3,3.1-0.9,4.1s-1.5,1.9-2.5,2.4s-2.5,0.8-4.4,0.8H689.6z M692.7,330h1.5c1,0,1.6-0.1,2-0.1s0.5-0.4,0.4-0.6
		c0-0.4-0.1-0.6-0.4-0.8s-0.9-0.1-2-0.1h-1.5V330z"/>
	<path class="st1" d="M689.7,351.6l-0.1-7.8h-4.3c-0.9,0-1.5,0.1-1.8,0.3s-0.4,0.4-0.4,0.8c0,0.5,0.1,0.8,0.5,0.9s1,0.3,2,0.3h2.6
		l0.1,5.7h-1.5c-1.3,0-2.1,0-2.8-0.3c-0.6-0.1-1.4-0.5-2.1-1c-0.8-0.5-1.4-1.3-1.8-2.1c-0.4-0.9-0.6-2-0.6-3.3s0.1-2.4,0.5-3.4
		s0.9-1.8,1.5-2.3s1.4-0.9,2.1-1.1c0.8-0.3,1.9-0.4,3.4-0.4l5.8-0.1c1.8,0,3.1,0.3,4.1,0.6c1,0.5,1.8,1.3,2.3,2.3s0.9,2.3,0.9,3.6
		c0,1.6-0.3,3.1-0.9,4.1s-1.5,1.9-2.5,2.4s-2.5,0.8-4.4,0.8H689.7z M692.8,345.5h1.5c1,0,1.6-0.1,2-0.1s0.5-0.4,0.4-0.6
		c0-0.4-0.1-0.6-0.4-0.8c-0.3-0.1-0.9-0.1-2-0.1h-1.5V345.5z"/>
	<path class="st1" d="M704.4,359.6l-24.1,0.3l-0.1-6.2l24.1-0.3L704.4,359.6z"/>
	<path class="st1" d="M694,374.2l-0.1-5.3h1.1c0.9,0,1.5-0.1,1.8-0.1c0.3-0.1,0.4-0.4,0.4-0.8s-0.1-0.6-0.4-0.8s-0.5-0.3-1-0.3
		c-0.6,0-1,0-1.4,0.1c-0.3,0.1-0.6,0.4-0.9,0.8c-0.4,0.4-0.8,1.3-1.4,2.6c-0.9,1.8-1.6,2.9-2.4,3.5c-0.8,0.5-1.9,0.9-3.3,0.9
		c-1.6,0-2.8-0.1-3.6-0.6c-0.9-0.5-1.5-1.1-1.9-2c-0.5-1-0.6-2.1-0.8-3.5c0-1.5,0.3-2.9,0.6-3.9c0.5-1.1,1.1-1.9,1.9-2.3
		c0.8-0.4,2-0.6,3.6-0.6h1l0.1,5.3H686c-1,0-1.8,0.1-2,0.3c-0.4,0.1-0.5,0.4-0.5,0.8s0.1,0.8,0.4,0.9s0.6,0.3,1.4,0.3
		c1,0,1.5-0.1,1.8-0.4s0.9-1.4,2-3.5c1-1.8,1.9-2.9,2.6-3.3c0.8-0.4,1.8-0.6,2.9-0.6c1.6,0,2.8,0.1,3.5,0.6c0.8,0.4,1.4,1.1,1.8,2.1
		c0.4,1,0.6,2.1,0.6,3.5c0,1.3-0.1,2.4-0.5,3.4c-0.4,0.9-0.8,1.6-1.3,2.1s-1,0.8-1.5,0.9s-1.3,0.1-2.1,0.1L694,374.2z"/>
</g>
<g>
	<path class="st1" d="M664.8,246v2.3c0,1.6,0,2.7-0.1,3.2s-0.4,1.1-0.9,1.3c-0.5,0.4-1.3,0.5-2.4,0.5c-0.9,0-1.6-0.1-2-0.4
		s-0.5-0.7-0.7-1.5c-0.1,0.7-0.4,1.1-0.7,1.3c-0.3,0.3-0.5,0.4-0.8,0.4s-0.8,0.1-1.9,0.1H652v-3.1h4.3c0.7,0,1.1,0,1.2-0.1
		c0.1-0.1,0.3-0.4,0.3-0.8H652V246H664.8z M662.6,249.3h-2.8c0,0.4,0,0.7,0.1,0.8s0.4,0.3,0.9,0.3h0.7c0.4,0,0.7-0.1,0.8-0.3
		C662.5,250,662.6,249.7,662.6,249.3z"/>
	<path class="st1" d="M658.5,257.4v-2.9h0.7c0.8,0,1.5,0.1,1.9,0.3c0.4,0.1,0.8,0.5,1.2,1.1c0.4,0.5,0.5,1.3,0.5,2.1
		c0,1.1-0.1,1.9-0.5,2.4s-0.8,0.9-1.3,0.9c-0.5,0.1-1.7,0.1-3.3,0.1h-5.2v-3.1h0.9c-0.4-0.1-0.7-0.4-0.8-0.8
		c-0.1-0.3-0.3-0.7-0.3-1.1c0-0.5,0.1-1.1,0.4-1.5c0.3-0.4,0.9-0.7,2-0.7h0.8c0.8,0,1.3,0.1,1.6,0.4c0.3,0.3,0.7,0.8,1.1,1.9
		c0.4,1.1,0.7,1.6,0.8,1.6c0.1,0.1,0.4,0.1,0.8,0.1c0.5,0,0.9,0,1.1-0.1c0.1-0.1,0.3-0.3,0.3-0.4c0-0.3-0.1-0.4-0.3-0.4
		c-0.1,0-0.5-0.1-1.1-0.1L658.5,257.4z M657.2,258.4c-0.4-0.5-0.7-0.8-0.9-0.9c-0.3-0.1-0.7-0.1-1.1-0.1c-0.5,0-0.9,0-1.1,0.1
		c-0.1,0.1-0.3,0.3-0.3,0.4s0,0.3,0.1,0.4s0.4,0.1,0.9,0.1H657.2z"/>
	<path class="st1" d="M658.8,269.5v-2.9h1.2c0.4,0,0.7,0,0.8-0.1s0.3-0.1,0.3-0.4c0-0.1-0.1-0.3-0.1-0.4s-0.4-0.1-0.9-0.1H655
		c-0.4,0-0.7,0-0.8,0.1s-0.3,0.3-0.3,0.4c0,0.3,0.1,0.4,0.3,0.4c0.1,0.1,0.5,0.1,1.1,0.1h1.2v2.8c-0.8,0-1.5,0-1.9-0.1
		c-0.4,0-0.8-0.3-1.3-0.5c-0.5-0.3-0.8-0.7-0.9-1.2c-0.3-0.5-0.4-1.1-0.4-1.7c0-0.9,0.1-1.6,0.4-2.1s0.7-0.9,1.3-1.1
		c0.5-0.3,1.3-0.4,2.4-0.4h2.9c0.9,0,1.6,0.1,2,0.3c0.4,0.1,0.8,0.5,1.2,1.1c0.4,0.5,0.5,1.3,0.5,2.1c0,0.8-0.1,1.5-0.5,2.1
		c-0.4,0.5-0.8,0.9-1.3,1.2C660.5,269.4,659.7,269.5,658.8,269.5z"/>
	<path class="st1" d="M657.4,277.7v-4.1h-2.3c-0.5,0-0.8,0-0.9,0.1c-0.1,0.1-0.3,0.1-0.1,0.4c0,0.3,0.1,0.4,0.3,0.5
		c0.1,0.1,0.5,0.1,1.1,0.1h1.3v2.9H656c-0.7,0-1.2,0-1.5-0.1c-0.4-0.1-0.7-0.3-1.1-0.5c-0.4-0.3-0.7-0.7-0.9-1.1
		c-0.1-0.4-0.3-1.1-0.3-1.7c0-0.7,0.1-1.2,0.3-1.7c0.1-0.5,0.4-0.9,0.8-1.2c0.3-0.3,0.7-0.5,1.1-0.5s0.9-0.1,1.7-0.1h3.1
		c0.9,0,1.6,0.1,2.1,0.4s0.9,0.7,1.2,1.2s0.4,1.2,0.4,1.9c0,0.9-0.1,1.6-0.5,2.1c-0.3,0.5-0.8,0.9-1.3,1.2c-0.5,0.3-1.3,0.4-2.4,0.4
		L657.4,277.7z M659,274.5h0.8c0.5,0,0.9,0,1.1-0.1c0.1,0,0.3-0.1,0.3-0.4s-0.1-0.4-0.3-0.4c-0.1,0-0.5-0.1-1.1-0.1H659V274.5z"/>
	<path class="st1" d="M658.9,285.7v-2.9h1.2c0.4,0,0.7,0,0.8-0.1s0.3-0.1,0.3-0.4c0-0.1-0.1-0.3-0.1-0.4s-0.4-0.1-0.9-0.1h-4.9
		c-0.4,0-0.7,0-0.8,0.1s-0.3,0.3-0.3,0.4c0,0.3,0.1,0.4,0.3,0.4c0.1,0.1,0.5,0.1,1.1,0.1h1.2v2.8c-0.8,0-1.5,0-1.9-0.1
		s-0.8-0.3-1.3-0.5c-0.5-0.3-0.8-0.7-0.9-1.2c-0.3-0.5-0.4-1.1-0.4-1.7c0-0.9,0.1-1.6,0.4-2.1c0.3-0.5,0.7-0.9,1.3-1.1
		c0.5-0.3,1.3-0.4,2.4-0.4h2.9c0.9,0,1.6,0.1,2,0.3s0.8,0.5,1.2,1.1c0.4,0.5,0.5,1.3,0.5,2.1c0,0.8-0.1,1.5-0.5,2.1
		c-0.4,0.5-0.8,0.9-1.3,1.2C660.6,285.5,659.8,285.7,658.9,285.7z"/>
	<path class="st1" d="M658.9,289.4v-2.9h0.7c0.8,0,1.5,0.1,1.9,0.3c0.4,0.1,0.8,0.5,1.2,1.1c0.4,0.5,0.5,1.3,0.5,2.1
		c0,1.1-0.1,1.9-0.5,2.4s-0.8,0.9-1.3,0.9c-0.5,0.1-1.7,0.1-3.3,0.1h-5.2v-3.1h0.9c-0.4-0.1-0.7-0.4-0.8-0.8s-0.3-0.7-0.3-1.1
		c0-0.5,0.1-1.1,0.4-1.5c0.3-0.4,0.9-0.7,2-0.7h0.8c0.8,0,1.3,0.1,1.6,0.4s0.7,0.8,1.1,1.9s0.7,1.6,0.8,1.6c0.1,0.1,0.4,0.1,0.8,0.1
		c0.5,0,0.9,0,1.1-0.1c0.1-0.1,0.3-0.3,0.3-0.4c0-0.3-0.1-0.4-0.3-0.4c-0.1,0-0.5-0.1-1.1-0.1L658.9,289.4z M657.4,290.5
		c-0.4-0.5-0.7-0.8-0.9-0.9s-0.7-0.1-1.1-0.1c-0.5,0-0.9,0-1.1,0.1s-0.3,0.3-0.3,0.4s0,0.3,0.1,0.4s0.4,0.1,0.9,0.1H657.4z"/>
	<path class="st1" d="M662.9,297.8l-1.3-0.1c0.9,0.4,1.5,1.1,1.6,2h-3.6c0-0.5-0.1-1.1-0.3-1.3c-0.1-0.3-0.4-0.4-0.7-0.5
		c-0.3,0-0.9-0.1-1.9-0.1h-4.1v-3.2l10.4-0.1L662.9,297.8z"/>
	<path class="st1" d="M659.8,311v-3.3h2.1c0.7,0,1.1,0,1.2-0.1c0.1-0.1,0.3-0.3,0.3-0.4c0-0.3-0.1-0.4-0.3-0.5s-0.7-0.1-1.2-0.1H656
		c-0.7,0-1.1,0-1.2,0.1c-0.1,0.1-0.3,0.3-0.3,0.5c0,0.3,0.1,0.4,0.3,0.5c0.1,0.1,0.7,0.1,1.3,0.1h1.6v3.3h-0.5
		c-1.3,0-2.3-0.1-2.8-0.3c-0.5-0.1-1.1-0.5-1.5-1.2s-0.7-1.5-0.7-2.4s0.1-1.7,0.5-2.4c0.4-0.7,0.8-1.1,1.5-1.2
		c0.7-0.3,1.6-0.3,2.8-0.3h3.7c0.9,0,1.6,0,2,0.1c0.4,0,0.9,0.3,1.3,0.5c0.4,0.3,0.8,0.7,1.1,1.3s0.4,1.2,0.4,1.9
		c0,0.9-0.1,1.7-0.5,2.4c-0.4,0.7-0.8,1.1-1.3,1.2c-0.5,0.3-1.5,0.3-2.7,0.3H659.8z"/>
	<path class="st1" d="M659.4,319.2h-2.5c-0.9,0-1.6,0-2-0.1s-0.8-0.3-1.2-0.5c-0.4-0.3-0.7-0.7-0.8-1.2s-0.3-1.1-0.3-1.6
		c0-0.7,0-1.3,0.3-1.7c0.3-0.4,0.4-0.8,0.7-1.2c0.3-0.3,0.7-0.4,1.1-0.5c0.4-0.1,1.1-0.1,2-0.1h2.7c0.9,0,1.7,0.1,2.3,0.3
		c0.5,0.3,0.9,0.5,1.3,1.1c0.3,0.5,0.5,1.2,0.5,2.1c0,0.7-0.1,1.3-0.3,1.9c-0.3,0.5-0.5,0.9-0.8,1.2c-0.3,0.3-0.7,0.5-1.1,0.5
		C660.8,319.1,660.2,319.2,659.4,319.2z M660.2,316c0.5,0,0.9,0,1.1-0.1c0.1,0,0.3-0.1,0.3-0.4c0-0.1-0.1-0.3-0.3-0.4
		c-0.1-0.1-0.5-0.1-1.1-0.1h-4.7c-0.5,0-0.8,0-0.9,0.1c-0.1,0-0.3,0.1-0.3,0.4c0,0.1,0.1,0.3,0.3,0.4c0.1,0,0.4,0.1,0.9,0.1H660.2z"
		/>
	<path class="st1" d="M665.4,323.4l-12.7,0.1v-3.2l12.7-0.1V323.4z"/>
	<path class="st1" d="M665.4,327.8l-12.7,0.1v-3.2l12.7-0.1V327.8z"/>
	<path class="st1" d="M658,336.2V332h-2.3c-0.5,0-0.8,0-0.9,0.1c-0.1,0.1-0.3,0.1-0.3,0.4s0.1,0.4,0.3,0.5c0.1,0.1,0.5,0.1,1.1,0.1
		h1.3v2.9h-0.8c-0.7,0-1.1,0-1.5-0.1s-0.7-0.3-1.1-0.5c-0.4-0.3-0.7-0.7-0.9-1.1c-0.3-0.4-0.3-1.1-0.3-1.7c0-0.7,0.1-1.2,0.3-1.7
		c0.1-0.5,0.4-0.9,0.8-1.2c0.3-0.3,0.7-0.5,1.1-0.5c0.4-0.1,0.9-0.1,1.7-0.1h3.1c0.9,0,1.6,0.1,2.1,0.4s0.9,0.7,1.2,1.2
		s0.4,1.2,0.4,1.9c0,0.9-0.1,1.6-0.5,2.1c-0.3,0.5-0.8,0.9-1.3,1.2c-0.5,0.3-1.3,0.4-2.4,0.4L658,336.2z M659.6,333h0.8
		c0.5,0,0.9,0,1.1-0.1c0.1-0.1,0.3-0.1,0.3-0.4s-0.1-0.4-0.3-0.4c-0.1,0-0.5-0.1-1.1-0.1h-0.8V333z"/>
	<path class="st1" d="M659.4,344.2v-2.9h1.2c0.4,0,0.7,0,0.8-0.1s0.3-0.1,0.3-0.4c0-0.1-0.1-0.3-0.1-0.4c-0.1,0-0.4-0.1-0.9-0.1
		h-4.9c-0.4,0-0.7,0-0.8,0.1s-0.3,0.3-0.3,0.4c0,0.3,0.1,0.4,0.3,0.4c0.1,0.1,0.5,0.1,1.1,0.1h1.2v2.8c-0.8,0-1.5,0-1.9-0.1
		s-0.8-0.3-1.3-0.5c-0.4-0.3-0.8-0.7-0.9-1.2c-0.3-0.5-0.4-1.1-0.4-1.7c0-0.9,0.1-1.6,0.4-2.1c0.3-0.5,0.7-0.9,1.3-1.1
		c0.5-0.3,1.3-0.4,2.4-0.4h2.9c0.9,0,1.6,0.1,2,0.3s0.8,0.5,1.2,1.1c0.4,0.5,0.5,1.3,0.5,2.1s-0.1,1.5-0.5,2.1
		c-0.4,0.5-0.8,0.9-1.3,1.2C661.2,344,660.4,344.2,659.4,344.2z"/>
	<path class="st1" d="M664.8,348.3h-1.6v0.8h-1.6v-0.8H656c-0.7,0-1.1,0-1.2,0.1s-0.1,0.4-0.1,0.9H653V348c0-0.7,0-1.2,0.1-1.6
		c0-0.3,0.1-0.5,0.4-0.8c0.3-0.3,0.4-0.4,0.8-0.4s0.9-0.1,2-0.1h5.2v-0.7h1.6v0.7h1.6L664.8,348.3z"/>
	<path class="st1" d="M663.4,353.1l-10.4,0.1V350l10.4-0.1V353.1z M665.7,353.1h-1.6v-3.2h1.6V353.1z"/>
	<path class="st1" d="M659.8,361.5h-2.5c-0.9,0-1.6,0-2-0.1s-0.8-0.3-1.2-0.5c-0.4-0.3-0.7-0.7-0.8-1.2s-0.3-1.1-0.3-1.6
		c0-0.7,0-1.3,0.3-1.7c0.3-0.4,0.4-0.8,0.7-1.2c0.3-0.3,0.7-0.4,1.1-0.5c0.4-0.1,1.1-0.1,2-0.1h2.7c0.9,0,1.7,0.1,2.3,0.3
		c0.5,0.3,0.9,0.5,1.3,1.1c0.3,0.5,0.5,1.2,0.5,2.1c0,0.7-0.1,1.3-0.3,1.9c-0.3,0.5-0.5,0.9-0.8,1.2c-0.3,0.3-0.7,0.5-1.1,0.5
		C661.2,361.3,660.6,361.5,659.8,361.5z M660.6,358.3c0.5,0,0.9,0,1.1-0.1c0.1-0.1,0.3-0.1,0.3-0.4c0-0.1-0.1-0.3-0.3-0.4
		c-0.1-0.1-0.5-0.1-1.1-0.1H656c-0.5,0-0.8,0-0.9,0.1c-0.1,0-0.3,0.1-0.3,0.4c0,0.1,0.1,0.3,0.3,0.4c0.1,0,0.4,0.1,0.9,0.1H660.6z"
		/>
	<path class="st1" d="M663.6,365.6h-0.9c0.4,0.3,0.7,0.5,0.8,0.8s0.3,0.7,0.3,1.2s-0.1,0.9-0.4,1.3c-0.3,0.4-0.5,0.5-0.9,0.7
		c-0.4,0.1-1.1,0.1-2,0.1h-7.2v-3.2h7.2c0.7,0,1.2,0,1.3-0.1c0.1,0,0.3-0.1,0.3-0.4s-0.1-0.4-0.3-0.4s-0.7-0.1-1.5-0.1h-7.1v-3.2
		l10.4-0.1L663.6,365.6L663.6,365.6z"/>
</g>
<g>
	<path class="st2" d="M628.2,178.8c1.5,4.9,1.1,9.5,0,14.3c0.2-0.2,0.3-0.3,0.4-0.4c4.7-5.2,10.7-7.5,18-6.6
		c6.4,0.7,11.9,3.8,16.2,9c2.5,3.1,4.2,6.5,5,10.2c0.8,3.5,0.7,6.9-0.2,10.3c-1.2,4.7-3.9,8.3-7.7,11c-2.8,2-6.1,3.1-9.7,3.5
		c-4.6,0.4-9.1-0.5-13.3-2.8c-5-2.7-8.7-6.6-11-11.8c-1-2.2-1.7-4.5-2.2-6.8c-0.5-2.5,0-5,0.6-7.4c0.8-3.1,1.8-6.1,2.6-9.2
		c0.8-3.4,1.2-6.8,0.5-10.4c-0.2-1.1-0.6-2.2-0.9-3.2c-0.3-1-0.1-1.3,0.9-1.1c1.7,0.3,3.3,0.9,4.7,2.1c0.3,0.3,0.5,0.6,0.7,0.9
		c0.3,0.4,0.4,0.7,0,1s-0.8,0.1-1.1-0.3c-0.8-1.1-2-1.7-3.2-2.1C628.5,178.8,628.4,178.8,628.2,178.8z M662.1,222.9
		c7.6-8.5,6.1-21.4-2.3-29.2c-9.2-8.6-22-8.2-29.3-0.7c-8,8.3-6.4,21.6,2.1,29.5C641.6,230.8,654.5,230.8,662.1,222.9z"/>
	<path class="st2" d="M644.8,164.7c0.4,0.6,0.7,1.1,1,1.6c1,1.8,0.5,3.3-1.3,3.8c-2.5,0.8-4.9,0.2-7.3-1.1c-2.3-1.3-4.2-3.2-6.1-5.1
		c0.2,0.6,0.4,1.2,0.6,1.7c0.8,1.5,1.8,2.8,3.1,4s2.4,2.5,2.9,4.3c0.6,2.2,0.2,4.2-0.4,6.2c-0.6,1.8-1.7,3.4-2.8,4.9
		c-0.3,0.4-0.6,0.7-1.1,0.3c-0.6-0.4-0.3-0.9,0-1.3c1.4-1.8,2.5-3.7,3-6c0.6-2.6,0.1-5-2.1-7.1c-1.4-1.4-2.8-2.8-3.7-4.5
		c-0.7-1.2-1.1-2.5-0.9-3.8c0.1-0.5,0.1-1.2,0.8-1.3c0.6-0.1,1,0.5,1.3,0.9c1.8,2.3,3.8,4.3,6.4,5.7c1.7,1,3.6,1.4,5.4,0.9
		c1.5-0.3,1.8-1.1,0.8-2.4c-0.6-0.8-1.3-1.5-1.9-2.2c-0.2-0.2-0.4-0.7-0.3-0.8c0.1-0.2,0.5-0.4,0.8-0.4c3.4,0.4,6.5,1.6,9,4.4
		c1.7,1.9,2.6,4.1,3.2,6.4c0.7,2.7,1.4,5.4,2.2,8c0.4,1.4,1.4,2.5,2.7,3.2c0.2,0.1,0.3,0.2,0.5,0.3c0.5,0.3,0.7,0.6,0.5,1.1
		c-0.3,0.5-0.7,0.4-1.1,0.1c-2.2-1.2-3.6-2.9-4.2-5.2c-0.7-2.4-1.3-4.8-1.9-7.2c-0.7-2.7-1.7-5.2-4-7.1
		C648.3,165.9,646.6,165.2,644.8,164.7z"/>
	<path class="st2" d="M661.4,178.7c0.2,1,0.7,1.9,1.5,2.7c1,0.9,2,1.9,2.5,3.2c0.5,1.4,0.4,2.7-0.1,3.9c-0.5,1.1-1.5,1.4-2.6,1.5
		c-0.6,0-1.2,0-1.8-0.2c-0.3-0.1-0.5-0.5-0.7-0.7c0.2-0.2,0.5-0.5,0.8-0.6c0.2-0.1,0.5,0,0.8,0.1c2.1,0.2,2.8-0.8,2.5-2.9
		c-0.1-1.1-0.7-2-1.6-2.8c-1.5-1.3-2.6-2.8-2.7-4.7c-0.1-0.9,0.2-1.9,0.4-2.8c0-0.2,0.4-0.4,0.6-0.4c0.2,0.1,0.6,0.4,0.7,0.6
		c0.6,2.3,2.1,3.9,4.1,4.9c6.5,3.3,11.4,12.7,7.9,20.6c-0.4,0.9-0.9,1.8-1.4,2.7c-0.2,0.4-0.6,0.6-1.1,0.3s-0.4-0.7-0.2-1.1
		c1.1-1.7,1.9-3.5,2.2-5.6c0.7-5.1-1.1-9.5-4.9-13.4c-0.7-0.8-1.7-1.3-2.5-2c-0.8-0.6-1.7-1-2.4-1.6
		C662.7,180.1,662.1,179.3,661.4,178.7z"/>
	<path class="st2" d="M644.6,177.6c0.2,0.3,0.4,0.7,0.6,1c1.2,1.9,1,4.2-0.4,5.7c-0.1,0.1-0.2,0.2-0.3,0.3c-0.3,0-0.7,0.1-1,0
		c-0.4-0.3-0.3-0.7,0-1c0.4-0.5,0.8-1,1-1.6c0.3-0.9,0-1.8-0.5-2.8s-1-2.1-1.3-3.2c-0.1-0.5,0.1-1.2,0.4-1.7c0.4-0.6,1-0.5,1.4,0.2
		c0.8,1.5,1.8,3,3.1,4.1c0.7,0.6,1.5,1.1,2.4,1.2c0.3,0,0.7,0.4,0.8,0.7c0.1,0.5-0.3,0.7-0.8,0.7c-1.7-0.1-2.9-1.1-4.1-2.3
		C645.4,178.5,645.1,178,644.6,177.6C644.7,177.6,644.6,177.6,644.6,177.6z"/>
	<path class="st2" d="M661.1,222c-7,7.5-19.5,7.3-27.8-0.4c-8.2-7.7-9.3-20.2-2.2-27.7c7.2-7.6,19.4-7.4,27.8,0.4
		C667.4,202.3,668,214.6,661.1,222z M632.2,194.9c-6.6,7-5.7,18.4,2,25.7c7.4,7,19,7.7,25.9,0.4c6.5-6.9,5.5-18.6-2.1-25.7
		C650.3,188.1,638.8,188,632.2,194.9z"/>
	<path class="st2" d="M656,197.5c6.4,6,7.1,15.6,1.7,21.4c-5.5,5.9-15.1,5.7-21.5-0.3s-7.1-15.6-1.5-21.5
		C640.1,191.3,649.7,191.5,656,197.5z M659.8,210.5c-1.9,0.8-3,0.4-4.2-1.4c-0.1-0.1-0.3-0.3-0.4-0.3c-1.4-0.1-2.8-0.1-4.2-0.2
		c-0.3,0.9-0.5,1.6-0.8,2.3c1,1,2.1,2,3.2,3c0.1,0.1,0.5,0.1,0.7,0.1c1.1-0.3,2.1-0.1,2.9,0.8c0.3,0.4,0.6,0.8,0.9,1.3
		C659,214.7,659.8,212.3,659.8,210.5z M643.5,211.8c-0.9,0.9-1.8,1.9-2.6,2.8c-0.1,0.1-0.1,0.5,0,0.7c0.4,1.1,0.3,2-0.4,2.8
		c-0.4,0.4-0.9,0.6-1.4,0.9c1.8,1.2,3.8,2.1,5.9,2.4c-1-2.2-0.8-2.9,1-4.1c0.1-0.1,0.2-0.2,0.2-0.3c-0.1-1.5-0.1-2.9-0.2-4.2
		C645,212.5,644.3,212.2,643.5,211.8z M656.7,200.2c-1,2.1-1.5,2.4-3.8,1.9c-0.1,0-0.3,0-0.4,0.1c-0.9,1-1.9,2-2.7,2.9
		c0.4,0.8,0.7,1.5,1,2.2c1.3,0,2.6,0.1,4,0.1c0.4,0,0.6-0.1,0.8-0.5c0.5-1.2,1.7-1.7,3-1.3c0.3,0.1,0.6,0.2,1,0.4
		C659,203.9,658.1,202,656.7,200.2z M634.3,199.8c-1.2,1.8-1.8,3.7-2,5.8c1.9-0.9,3.1-0.5,4.3,1.2c0.1,0.1,0.3,0.3,0.5,0.3
		c1.4,0,2.8,0.1,4.2,0.1c0.2-0.6,0.3-1.2,0.6-1.7c0.2-0.4,0.1-0.6-0.2-0.9c-0.9-0.8-1.7-1.6-2.6-2.4c-0.3-0.3-0.5-0.4-1-0.2
		c-1.2,0.4-2.5-0.1-3.2-1.1C634.7,200.6,634.5,200.2,634.3,199.8z M653.3,197c-1.9-1.3-3.9-2.1-6-2.5c1,2.2,0.8,2.8-1,4.2
		c-0.1,0.1-0.2,0.2-0.2,0.3c0.1,1.4,0.2,2.9,0.3,4.2c0.7,0.3,1.3,0.6,1.9,0.8c0.2,0.1,0.5,0,0.6-0.1c0.8-0.8,1.6-1.7,2.4-2.6
		c0.1-0.1,0.2-0.4,0.1-0.6C650.9,198.6,651.3,197.8,653.3,197z M645.1,203.2c-0.1-1.3-0.2-2.7-0.4-4.1c0-0.2-0.2-0.4-0.3-0.5
		c-1.8-1.1-2.3-2.2-1.5-4.2c-2.1,0.3-4,1-5.6,2.3c2.1,0.8,2.7,1.8,2.4,3.9c0,0.2,0.1,0.4,0.2,0.5c1,1,2.1,2,3.1,3
		C643.7,203.7,644.3,203.5,645.1,203.2z M655,219.3c-2.1-0.8-2.7-1.8-2.4-3.8c0-0.1,0-0.4-0.1-0.4c-1.1-1.1-2.2-2.1-3.2-3.1
		c-0.8,0.3-1.4,0.6-1.9,0.8c0.1,1.4,0.1,2.8,0.2,4.1c0,0.2,0.2,0.5,0.4,0.6c0.8,0.4,1.5,1,1.6,1.9c0.1,0.7,0,1.5,0,2.2
		C651.5,221.3,653.3,220.5,655,219.3z M635.5,215.8c0.1-0.1,0.1-0.1,0.1-0.1c0.6-1.9,1.5-2.4,3.5-1.9c0.2,0,0.4,0,0.5-0.1
		c0.8-0.8,1.6-1.7,2.4-2.6c0.1-0.1,0.2-0.4,0.1-0.6c-0.3-0.6-0.6-1.2-0.9-1.8c-1.3,0-2.6,0-3.9-0.1c-0.4,0-0.6,0.1-0.8,0.5
		c-0.5,1.3-1.9,1.8-3.2,1.2c-0.2-0.1-0.4-0.2-0.8-0.3C633.2,212.1,634.2,214,635.5,215.8z M648.7,210.4c1.2-1.3,1.1-3.4-0.4-4.8
		c-1.4-1.3-3.5-1.3-4.8,0c-1.2,1.2-1,3.4,0.4,4.7C645.4,211.7,647.5,211.7,648.7,210.4z M638,200.4c0.5-0.5,0.4-1.3-0.1-1.8
		s-1.4-0.6-1.8-0.1c-0.5,0.5-0.4,1.3,0.1,1.8C636.7,200.9,637.6,200.9,638,200.4z M646,195.2c-0.6-0.5-1.4-0.5-1.8,0
		c-0.4,0.5-0.4,1.3,0.2,1.8c0.6,0.5,1.4,0.6,1.8,0.1C646.7,196.6,646.6,195.7,646,195.2z M658.9,207.3c-0.6-0.5-1.4-0.5-1.8,0
		c-0.4,0.5-0.4,1.3,0.1,1.8s1.4,0.5,1.8,0.1C659.5,208.6,659.5,207.9,658.9,207.3z M656.2,217.5c0.5-0.5,0.4-1.3-0.2-1.8
		c-0.6-0.5-1.4-0.5-1.8,0c-0.4,0.5-0.3,1.3,0.2,1.8S655.8,218,656.2,217.5z M635.1,206.9c-0.6-0.5-1.4-0.6-1.8-0.1
		c-0.4,0.5-0.4,1.3,0.1,1.8s1.4,0.6,1.9,0.1C635.7,208.3,635.6,207.5,635.1,206.9z M637.4,215.4c-0.5,0.5-0.4,1.3,0.1,1.8
		s1.3,0.5,1.8,0s0.5-1.3-0.1-1.8C638.7,214.9,637.9,214.9,637.4,215.4z M654.8,198.8c-0.6-0.5-1.4-0.5-1.8,0
		c-0.4,0.5-0.4,1.3,0.1,1.8s1.3,0.6,1.8,0.1C655.4,200.2,655.3,199.4,654.8,198.8z M647.9,219c-0.5-0.5-1.4-0.5-1.8,0
		c-0.4,0.5-0.4,1.3,0.2,1.8c0.5,0.5,1.4,0.6,1.8,0.1C648.5,220.3,648.5,219.5,647.9,219z"/>
</g>
<g>
	<path class="st2" d="M628.6,428.9c1.2-0.4,2.4-0.9,3.2-2.1c0.3-0.4,0.6-0.6,1.1-0.3c0.4,0.3,0.3,0.7,0,1c-0.2,0.3-0.5,0.6-0.7,0.9
		c-1.3,1.3-3,1.8-4.7,2.1c-1,0.2-1.3-0.2-0.9-1.1c0.4-1.1,0.7-2.1,0.9-3.2c0.7-3.6,0.3-7.1-0.5-10.4c-0.8-3.1-1.8-6.1-2.6-9.2
		c-0.6-2.4-1.1-4.9-0.6-7.4c0.4-2.3,1.2-4.6,2.2-6.8c2.2-5.2,6-9.1,11-11.8c4.3-2.3,8.7-3.2,13.3-2.8c3.6,0.3,6.8,1.5,9.7,3.5
		c3.9,2.7,6.5,6.4,7.7,11c0.9,3.3,1,6.8,0.2,10.3c-0.8,3.7-2.5,7.1-5,10.2c-4.3,5.2-9.8,8.3-16.2,9c-7.3,0.8-13.3-1.5-18-6.6
		c-0.1-0.1-0.2-0.2-0.4-0.4c1.1,4.8,1.5,9.4,0,14.3C628.4,428.9,628.5,428.9,628.6,428.9z M632.5,385.4c-8.4,7.9-10.1,21.1-2.1,29.5
		c7.3,7.5,20,7.9,29.3-0.7c8.4-7.8,10-20.8,2.3-29.2C654.5,377,641.6,376.9,632.5,385.4z"/>
	<path class="st2" d="M644.8,443c0.4-0.6,0.7-1.1,1-1.6c1-1.8,0.5-3.3-1.3-3.8c-2.5-0.8-4.9-0.2-7.3,1.1c-2.3,1.3-4.2,3.2-6.1,5.1
		c0.2-0.6,0.4-1.2,0.6-1.7c0.8-1.5,1.8-2.8,3.1-4s2.4-2.5,2.9-4.3c0.6-2.2,0.2-4.2-0.4-6.2c-0.6-1.8-1.7-3.4-2.8-4.9
		c-0.3-0.4-0.6-0.7-1.1-0.3c-0.6,0.4-0.3,0.9,0,1.3c1.4,1.8,2.5,3.7,3,6c0.6,2.6,0.1,5-2.1,7.1c-1.4,1.4-2.8,2.8-3.7,4.5
		c-0.7,1.2-1.1,2.5-0.9,3.8c0.1,0.5,0.1,1.2,0.8,1.3c0.6,0.1,1-0.5,1.3-0.9c1.8-2.3,3.8-4.3,6.4-5.7c1.7-1,3.6-1.4,5.4-0.9
		c1.5,0.3,1.8,1.1,0.8,2.4c-0.6,0.8-1.3,1.5-1.9,2.2c-0.2,0.2-0.4,0.7-0.3,0.8c0.1,0.2,0.5,0.4,0.8,0.4c3.4-0.4,6.5-1.6,9-4.4
		c1.7-1.9,2.6-4.1,3.2-6.4c0.7-2.7,1.4-5.4,2.2-8c0.4-1.4,1.4-2.5,2.7-3.2c0.2-0.1,0.3-0.2,0.5-0.3c0.5-0.3,0.7-0.6,0.5-1.1
		c-0.3-0.5-0.7-0.4-1.1-0.1c-2.2,1.2-3.6,2.9-4.2,5.2c-0.7,2.4-1.3,4.8-1.9,7.2c-0.7,2.7-1.7,5.2-4,7.1
		C648.3,441.9,646.6,442.6,644.8,443z"/>
	<path class="st2" d="M661.4,429.1c0.2-1,0.7-1.9,1.5-2.7c1-0.9,2-1.9,2.5-3.2c0.5-1.4,0.4-2.7-0.1-3.9c-0.5-1.1-1.5-1.4-2.6-1.5
		c-0.6,0-1.2,0-1.8,0.2c-0.3,0.1-0.5,0.5-0.7,0.7c0.2,0.2,0.5,0.5,0.8,0.6c0.2,0.1,0.5,0,0.8-0.1c2.1-0.2,2.8,0.8,2.5,2.9
		c-0.1,1.1-0.7,2-1.6,2.8c-1.5,1.3-2.6,2.8-2.7,4.7c-0.1,0.9,0.2,1.9,0.4,2.8c0,0.2,0.4,0.4,0.6,0.4c0.2-0.1,0.6-0.4,0.7-0.6
		c0.6-2.3,2.1-3.9,4.1-4.9c6.5-3.3,11.4-12.7,7.9-20.6c-0.4-0.9-0.9-1.8-1.4-2.7c-0.2-0.4-0.6-0.6-1.1-0.3c-0.5,0.3-0.4,0.7-0.2,1.1
		c1.1,1.7,1.9,3.5,2.2,5.6c0.7,5.1-1.1,9.5-4.9,13.4c-0.7,0.8-1.7,1.3-2.5,2c-0.8,0.6-1.7,1-2.4,1.6
		C662.7,427.7,662.1,428.4,661.4,429.1z"/>
	<path class="st2" d="M644.6,430.2c0.2-0.3,0.4-0.7,0.6-1c1.2-1.9,1-4.2-0.4-5.7c-0.1-0.1-0.2-0.2-0.3-0.3c-0.3,0-0.7-0.1-1,0
		c-0.4,0.3-0.3,0.7,0,1c0.4,0.5,0.8,1,1,1.6c0.3,0.9,0,1.8-0.5,2.8s-1,2.1-1.3,3.2c-0.1,0.5,0.1,1.2,0.4,1.7c0.4,0.6,1,0.5,1.4-0.2
		c0.8-1.5,1.8-3,3.1-4.1c0.7-0.6,1.5-1.1,2.4-1.2c0.3,0,0.7-0.4,0.8-0.7c0.1-0.5-0.3-0.7-0.8-0.7c-1.7,0.1-2.9,1.1-4.1,2.3
		C645.4,429.3,645.1,429.8,644.6,430.2C644.7,430.2,644.6,430.2,644.6,430.2z"/>
	<path class="st2" d="M658.9,413.4c-8.3,7.8-20.6,8-27.8,0.4c-7.1-7.5-6.1-20,2.2-27.7s20.7-7.9,27.8-0.4
		C668,393.2,667.4,405.4,658.9,413.4z M658,412.4c7.6-7.1,8.6-18.8,2.1-25.7c-6.9-7.3-18.5-6.7-25.9,0.4c-7.7,7.3-8.5,18.7-2,25.7
		C638.8,419.8,650.3,419.6,658,412.4z"/>
	<path class="st2" d="M634.7,410.7c-5.6-5.9-4.9-15.5,1.5-21.5s16-6.1,21.5-0.3c5.4,5.8,4.6,15.4-1.7,21.4
		C649.7,416.3,640.1,416.5,634.7,410.7z M657.9,391.7c-0.3,0.4-0.5,0.9-0.9,1.3c-0.8,0.9-1.8,1.1-2.9,0.8c-0.2-0.1-0.6,0-0.7,0.1
		c-1.1,1-2.2,2-3.2,3c0.3,0.7,0.5,1.4,0.8,2.3c1.3-0.1,2.7-0.1,4.2-0.2c0.1,0,0.4-0.1,0.4-0.3c1.1-1.8,2.3-2.1,4.2-1.4
		C659.8,395.4,659,393.1,657.9,391.7z M645.9,394.9c0.1-1.3,0.1-2.8,0.2-4.2c0-0.1-0.1-0.3-0.2-0.3c-1.8-1.2-2-2-1-4.1
		c-2.2,0.4-4.1,1.2-5.9,2.4c0.5,0.3,1.1,0.5,1.4,0.9c0.7,0.8,0.8,1.7,0.4,2.8c-0.1,0.2-0.1,0.6,0,0.7c0.9,1,1.8,1.9,2.6,2.8
		C644.3,395.6,645,395.3,645.9,394.9z M659.5,401.7c-0.4,0.1-0.7,0.3-1,0.4c-1.3,0.4-2.5-0.2-3-1.3c-0.2-0.4-0.4-0.5-0.8-0.5
		c-1.3,0.1-2.7,0.1-4,0.1c-0.3,0.7-0.7,1.4-1,2.2c0.9,0.9,1.8,1.9,2.7,2.9c0.1,0.1,0.3,0.2,0.4,0.1c2.3-0.5,2.8-0.2,3.8,1.9
		C658.1,405.8,659,403.9,659.5,401.7z M634.9,406.9c0.7-1.1,2-1.6,3.2-1.1c0.4,0.1,0.7,0.1,1-0.2c0.8-0.8,1.7-1.6,2.6-2.4
		c0.3-0.3,0.4-0.5,0.2-0.9c-0.3-0.5-0.4-1.1-0.6-1.7c-1.3,0-2.8,0-4.2,0.1c-0.1,0-0.4,0.1-0.5,0.3c-1.2,1.8-2.4,2.1-4.3,1.2
		c0.2,2.2,0.8,4.1,2,5.8C634.5,407.5,634.7,407.2,634.9,406.9z M651.5,407c0-0.2,0-0.4-0.1-0.6c-0.8-0.9-1.6-1.7-2.4-2.6
		c-0.1-0.1-0.4-0.2-0.6-0.1c-0.6,0.2-1.2,0.5-1.9,0.8c-0.1,1.3-0.2,2.8-0.3,4.2c0,0.1,0.1,0.3,0.2,0.3c1.8,1.3,2,2,1,4.2
		c2.2-0.4,4.1-1.2,6-2.5C651.3,410,650.9,409.1,651.5,407z M642.9,403.7c-1,1-2.1,1.9-3.1,3c-0.1,0.1-0.2,0.4-0.2,0.5
		c0.3,2.1-0.2,3-2.4,3.9c1.7,1.3,3.5,2,5.6,2.3c-0.7-2-0.3-3.1,1.5-4.2c0.2-0.1,0.3-0.3,0.3-0.5c0.1-1.4,0.2-2.8,0.4-4.1
		C644.3,404.3,643.7,404,642.9,403.7z M649.6,386.2c0,0.7,0.2,1.5,0,2.2c-0.1,0.9-0.8,1.5-1.6,1.9c-0.2,0.1-0.4,0.4-0.4,0.6
		c-0.1,1.4-0.1,2.7-0.2,4.1c0.5,0.2,1.2,0.5,1.9,0.8c1-1,2.1-2,3.2-3.1c0.1-0.1,0.1-0.3,0.1-0.4c-0.4-2,0.3-3.1,2.4-3.8
		C653.3,387.2,651.5,386.5,649.6,386.2z M632.7,397.8c0.3-0.1,0.5-0.2,0.8-0.3c1.4-0.5,2.7,0,3.2,1.2c0.2,0.4,0.4,0.5,0.8,0.5
		c1.3-0.1,2.6-0.1,3.9-0.1c0.3-0.6,0.6-1.2,0.9-1.8c0.1-0.2,0-0.5-0.1-0.6c-0.8-0.9-1.6-1.7-2.4-2.6c-0.1-0.1-0.4-0.2-0.5-0.1
		c-2,0.5-3,0-3.5-1.9l-0.1-0.1C634.2,393.7,633.2,395.6,632.7,397.8z M643.9,397.4c-1.4,1.3-1.6,3.5-0.4,4.7c1.2,1.3,3.4,1.3,4.8,0
		c1.5-1.3,1.6-3.5,0.4-4.8C647.5,396.1,645.4,396.1,643.9,397.4z M636.2,407.4c-0.5,0.5-0.6,1.4-0.1,1.8c0.5,0.5,1.3,0.5,1.8-0.1
		c0.5-0.5,0.6-1.4,0.1-1.8C637.6,406.9,636.7,406.9,636.2,407.4z M646.2,410.7c-0.5-0.5-1.3-0.5-1.8,0.1c-0.5,0.5-0.6,1.3-0.2,1.8
		c0.5,0.5,1.3,0.5,1.8,0C646.6,412,646.7,411.2,646.2,410.7z M659,398.6c-0.5-0.5-1.3-0.5-1.8,0.1c-0.5,0.5-0.6,1.3-0.1,1.8
		s1.3,0.5,1.8,0C659.5,399.9,659.5,399.1,659,398.6z M654.4,390.3c-0.5,0.5-0.6,1.3-0.2,1.8c0.5,0.5,1.3,0.5,1.8,0
		c0.6-0.5,0.7-1.3,0.2-1.8C655.8,389.8,654.9,389.8,654.4,390.3z M635.2,399c-0.5-0.5-1.3-0.4-1.9,0.1c-0.5,0.5-0.6,1.3-0.1,1.8
		s1.3,0.5,1.8-0.1C635.6,400.3,635.7,399.5,635.2,399z M639.2,392.4c0.5-0.5,0.6-1.3,0.1-1.8s-1.2-0.5-1.8,0s-0.6,1.3-0.1,1.8
		S638.7,392.9,639.2,392.4z M654.9,407.1c-0.5-0.5-1.3-0.5-1.8,0.1c-0.5,0.5-0.6,1.3-0.1,1.8s1.3,0.5,1.8,0
		C655.3,408.4,655.4,407.6,654.9,407.1z M648.1,386.9c-0.5-0.5-1.3-0.5-1.8,0.1c-0.5,0.5-0.6,1.3-0.2,1.8c0.5,0.5,1.3,0.5,1.8,0
		C648.5,388.2,648.5,387.4,648.1,386.9z"/>
</g>
<g id="Dgqkwl.tif">
	<g>
		<path class="st2" d="M141.6,385.6c-0.5,0.2-0.8,0.3-1.1,0.6c-0.6,0.3-1.3,0.6-1.6-0.2c-0.3-0.7,0.2-1,0.8-1.4c4-2,8-4.2,12.1-6.3
			c4.6-2.4,9.2-4.8,13.9-7.3c-0.3-0.2-0.7-0.5-1-0.6c-8-4.8-15.9-9.6-23.9-14.3c-0.6-0.3-1.4-0.7-0.9-1.5s1.1-0.3,1.7,0
			c0.2,0.1,0.6,0.3,1,0.6c0.3-1.3,0.6-2.3,0.8-3.4c0.2-1.4,0.3-2.7,0.5-4.1c0.2-2.2,1.3-3.9,2.7-5.4c1.8-1.9,3.8-3.8,5.6-5.6
			c1.7-1.7,2.7-3.9,3-6.4c0.1-1,0.7-1.4,1.7-0.8c5.8,3.4,11.7,6.8,17.5,10.1c0.6,0.3,0.8,0.8,0.7,1.5c-0.3,2.3-1.5,4.1-3,5.7
			c-2,2.3-4.1,4.4-6.3,6.6c-2.2,2-2.8,4.6-2.5,7.5c0.2,2,0.3,4.2-0.8,6.3c1.6,0.9,3.2,1.9,4.8,2.8c0.2,0.1,0.7-0.1,0.9-0.2
			c5-2.6,9.9-5.2,14.9-7.7c0.1-0.1,0.3-0.2,0.5-0.2c0.5,0.1,1,0.1,1.3,0.3c0.3,0.5,0,0.9-0.5,1.3c-1.1,0.6-2.3,1.1-3.3,1.7
			c-3.9,2-7.7,4.1-11.8,6.1c0.3,0.2,0.7,0.5,0.9,0.6c4.4,2.6,8.8,5.2,13.2,7.9c0.1,0.1,0.2,0.1,0.3,0.2c0.6,0.3,0.9,0.8,0.6,1.5
			c-0.3,0.7-0.9,0.5-1.5,0.1c-1.5-0.8-2.8-1.7-4.3-2.5c-3.4-2-6.9-4.1-10.4-6.3c-0.6-0.3-0.9-0.3-1.5,0c-1.3,0.7-2.5,1.3-3.8,2
			c-0.2,0.1-0.5,0.6-0.5,0.7c0.7,1.9,0.3,3.9,0.2,5.8c0,1.3-0.1,2.4,0,3.6c0.1,0.9,0.3,1.8,0.9,2.5c1.1,1.6,2.4,3,3.6,4.4
			c1.8,2,3.9,4,5,6.6c0.5,1,0.7,2,1,3.1c0.2,0.9,0,1.5-0.9,1.8c-5.6,2.7-11,5.6-16.6,8.4c-0.6,0.2-1,0.6-1.6,0.8
			c-0.7,0.3-1.5-0.1-1.4-0.8c0.3-3.4-1.7-5.7-3.8-8.1c-1.5-1.8-3.2-3.4-4.7-5.2c-1.6-1.8-1.8-4-2-6.3c-0.1-1.8-0.3-3.8-0.6-5.6
			C141.8,386.1,141.6,385.9,141.6,385.6z M154.5,410c0.1,0,0.2,0,0.2,0c5.4-2.7,10.8-5.5,16.2-8.3c0.2-0.1,0.5-0.7,0.3-0.8
			c-0.5-1.1-0.8-2.4-1.6-3.4c-1.6-2.2-3.3-4.3-5.2-6.1c-3-3-4.3-6.4-3.5-10.6c0.3-1.6,0.1-3.2-0.3-4.9c-5.9,3.1-11.6,6.1-17.2,9
			c0.2,2.5,0.5,4.8,0.6,7.2c0.1,2.4,0.8,4.6,2.5,6.4c1.1,1.1,2.2,2.4,3.3,3.6C152.2,404.1,154,406.6,154.5,410z M143.9,356
			c5.7,3.4,11.4,6.8,17.2,10.2c0.2-1.1,0.5-2.2,0.5-3.1c0-1.4-0.1-2.6-0.1-4c0-1.9,0.2-3.9,1.7-5.5c2-2.3,4.2-4.4,6.4-6.7
			c1.5-1.5,2.6-3.2,3.4-5.1c0.3-0.7,0.2-1-0.5-1.5c-3.6-2-7.4-4.2-11-6.4c-1.5-0.9-3.1-1.7-4.6-2.6c-0.5,2.6-1.9,4.7-3.6,6.5
			c-1.6,1.7-3.2,3.3-4.9,4.9c-1.8,1.8-2.8,3.9-3.1,6.4C145.2,351.6,145.2,353.9,143.9,356z"/>
	</g>
</g>
<g id="Dgqkwl.tif_00000028313352052233688150000005719026302104046756_">
	<g>
		<path class="st2" d="M141.3,243.7c-0.5,0.2-0.8,0.3-1.1,0.6c-0.6,0.3-1.3,0.6-1.6-0.2c-0.3-0.7,0.2-1,0.8-1.4
			c4-2.1,8-4.2,12.1-6.3c4.6-2.4,9.2-4.8,13.9-7.3c-0.3-0.2-0.7-0.5-1-0.6c-8-4.8-16-9.6-24-14.4c-0.6-0.3-1.4-0.7-0.9-1.5
			s1.1-0.3,1.7,0c0.2,0.1,0.6,0.3,1,0.6c0.3-1.3,0.6-2.3,0.8-3.4c0.2-1.4,0.3-2.7,0.5-4.1c0.2-2.2,1.3-3.9,2.7-5.4
			c1.8-1.9,3.8-3.8,5.6-5.6c1.7-1.7,2.7-3.9,3-6.4c0.1-1,0.7-1.4,1.7-0.8c5.8,3.4,11.7,6.8,17.6,10.2c0.6,0.3,0.8,0.8,0.7,1.5
			c-0.3,2.3-1.5,4.1-3,5.7c-2.1,2.3-4.1,4.4-6.3,6.6c-2.2,2.1-2.9,4.6-2.5,7.5c0.2,2.1,0.3,4.2-0.8,6.3c1.6,0.9,3.2,1.9,4.8,2.9
			c0.2,0.1,0.7-0.1,0.9-0.2c5-2.6,9.9-5.2,14.9-7.8c0.1-0.1,0.3-0.2,0.5-0.2c0.5,0.1,1,0.1,1.3,0.3c0.3,0.5,0,0.9-0.5,1.3
			c-1.1,0.6-2.3,1.1-3.3,1.7c-3.9,2.1-7.8,4.1-11.9,6.2c0.3,0.2,0.7,0.5,0.9,0.6c4.4,2.6,8.8,5.2,13.2,7.9c0.1,0.1,0.2,0.1,0.3,0.2
			c0.6,0.3,0.9,0.8,0.6,1.5c-0.3,0.7-0.9,0.5-1.5,0.1c-1.5-0.8-2.9-1.7-4.3-2.5c-3.4-2.1-7-4.1-10.4-6.3c-0.6-0.3-0.9-0.3-1.5,0
			c-1.3,0.7-2.5,1.3-3.8,2.1c-0.2,0.1-0.5,0.6-0.5,0.7c0.7,1.9,0.3,3.9,0.2,5.8c0,1.3-0.1,2.4,0,3.7c0.1,0.9,0.3,1.8,0.9,2.5
			c1.1,1.6,2.4,3,3.7,4.4c1.8,2.1,3.9,4,5,6.6c0.5,1,0.7,2.1,1,3.1c0.2,0.9,0,1.5-0.9,1.8c-5.6,2.7-11.1,5.6-16.7,8.4
			c-0.6,0.2-1,0.6-1.6,0.8c-0.7,0.3-1.5-0.1-1.4-0.8c0.3-3.4-1.7-5.7-3.8-8.1c-1.5-1.8-3.2-3.4-4.7-5.2c-1.6-1.8-1.8-4-2.1-6.3
			c-0.1-1.8-0.3-3.8-0.6-5.6C141.4,244.1,141.3,244,141.3,243.7z M154.2,268.1c0.1,0,0.2,0,0.2,0c5.4-2.7,10.8-5.5,16.2-8.3
			c0.2-0.1,0.5-0.7,0.3-0.8c-0.5-1.1-0.8-2.4-1.6-3.4c-1.6-2.2-3.3-4.3-5.2-6.2c-3-3-4.3-6.4-3.5-10.6c0.3-1.6,0.1-3.2-0.3-4.9
			c-5.9,3.1-11.6,6.2-17.2,9c0.2,2.5,0.5,4.8,0.6,7.2s0.8,4.6,2.5,6.4c1.1,1.1,2.2,2.4,3.3,3.7C151.9,262.2,153.7,264.8,154.2,268.1
			z M143.6,214c5.7,3.4,11.4,6.8,17.2,10.3c0.2-1.1,0.5-2.2,0.5-3.1c0-1.4-0.1-2.6-0.1-4c0-1.9,0.2-3.9,1.7-5.5
			c2.1-2.3,4.2-4.4,6.4-6.7c1.5-1.5,2.6-3.2,3.4-5.1c0.3-0.7,0.2-1-0.5-1.5c-3.7-2.1-7.4-4.2-11.1-6.4c-1.5-0.9-3.1-1.7-4.6-2.6
			c-0.5,2.6-1.9,4.7-3.7,6.5c-1.6,1.7-3.2,3.3-4.9,4.9c-1.8,1.8-2.9,3.9-3.1,6.4C144.8,209.7,144.8,212,143.6,214z"/>
	</g>
</g>
<g>
	<path class="st2" d="M322.4,260.9c-7,0-14,0.6-20.8-0.2c-11.2-1.2-22.3-0.3-33.4-0.6c-11.4-0.3-22.8-0.1-34.2-0.2
		c-1.1,0-2.2,0-3.4,0c0-0.2,0-0.4,0-0.6c1.7,0,3.4,0,5.6,0c-0.6-4-1.2-7.6-1.7-11.3c-0.1-0.8,0.6-1.6,0.8-2.3
		c0.2-0.9,0.7-1.8,0.7-2.7c0.1-4,0.1-8,0.2-12.1c1.6,5-1.1,10.6,2.5,17.1c-0.3,2.3-1,6.6-1.7,11.1c16.4,0,32.6,0.1,48.7,0.1
		c-3.4-2.1-5.5-5.5-10.1-6.6c-3.9-1-7.7-0.9-11.7-1.6c0.1-25.4,0.2-50.7,0.2-76.4c1.7,0,3.2,0.1,4.8,0c3.4-0.3,6.8-0.3,9.8-1.5
		c2.8-1.1,5-3.6,7.5-5.4c0.6-0.4,1.2-1,1.9-1.1c11.4-0.7,22.8-1.2,34.5-1.8C322.6,197.3,322.5,228.9,322.4,260.9z M285.9,251.7
		c0.1-25.7,0.2-51.3,0.2-76.7c-3.6,0-6.9,0-10.4,0c-0.1,25.7-0.2,51.2-0.2,76.7C279.2,251.7,282.4,251.7,285.9,251.7z M302.3,245.1
		c4.9-3.4,9-6,13-8.9c1.1-0.9,2-2.7,2-4.1c0.1-12.5,0.1-25,0.1-37.5c0-1,0-2.3-0.6-2.8c-4.4-3.4-8.9-6.6-13.4-9.8
		c-0.3,0.2-0.6,0.4-0.9,0.7c0,2.8,0,5.7,0,8.5c-0.3,0.2-0.7,0.3-1,0.6c-1.1-1.3-2.1-2.7-3.5-4.2c-0.1,17.4-0.1,34.4-0.2,51.4
		c1.2-1.3,2.5-2.7,3.6-3.9c0.3,0.2,0.6,0.4,0.9,0.6C302.3,238.2,302.3,241.1,302.3,245.1z M292.2,175.4c-3.2,1.8-4.7,4.5-4.6,8.6
		c0.2,19.3,0.1,38.6-0.2,57.9c-0.1,4.5,1.3,7.3,4.7,9c5-2.2,4.2-6.5,4.2-10.6c0-18.1,0.1-36.1,0.2-54.2
		C296.6,182,297.2,177.8,292.2,175.4z M270.4,247.8c0.1-22.7,0.1-45,0.2-67.5c-1.3,0-2.5,0-3.7,0c-0.1,22.6-0.1,44.9-0.2,67.5
		C267.9,247.8,269,247.8,270.4,247.8z M292.6,174.4c8.7,5.4,16.6,10.3,24.6,15.2c0-5.7,0-11.4,0.1-17.1c-5,0.8-10.2,1.3-13.8-1.8
		c-3.4-2.9-5-1.8-7.3,0.8C295.5,172.3,294.5,172.8,292.6,174.4z M317,237.2c-6.9,4-13.7,7.8-20.6,11.8c-1.2,0.8-2.2,2-3.5,3.1
		c1.6,1.6,2.9,2.7,4,3.9c1.7,1.9,3.1,3,5.2,0.2c0.9-1.1,2.9-1.8,4.5-2c3.2-0.4,6.7-0.4,10.3-0.7C317,248.2,317,242.6,317,237.2z
		 M273,249.8c0.1-24.5,0.1-48.9,0.2-73.5c-2.7,0-5.1,0-7.7,0c0,1.1,0,2,0,3c6.1-1.3,6.6-0.9,6.6,4.9c-0.1,19.9-0.1,39.7-0.2,59.5
		c0,6.1,0,6.1-6.3,5.2c-0.1,0-0.2,0.3-0.7,0.8C267.8,249.7,270.4,249.7,273,249.8z M321.5,183.9c-0.3-0.1-0.6-0.2-0.9-0.4
		c-0.3,0.9-1,1.8-1,2.7c-0.1,18.1-0.2,36.1-0.2,54.2c0,0.9,0.7,1.8,1,2.7c0.2-0.1,0.6-0.2,0.8-0.3
		C321.3,223.1,321.4,203.4,321.5,183.9z M302.2,259.3c6.6,0,12.7,0,19,0.1c-1.6-3.6-6.1-5.4-12.2-4.5
		C306.3,255.4,303.1,255.5,302.2,259.3z M302.6,168.5c5.7,5.1,17.3,4,18.5-0.9C315.3,167.9,309.2,168.1,302.6,168.5z M296.5,258.2
		c0.2-0.3,0.3-0.8,0.6-1.1c-2.1-1.3-4.2-2.8-6.6-3.8c-1.3-0.6-3-0.7-3,1.7c0,1.8,0.2,3.4,2.7,3.2C292.4,258,294.5,258.2,296.5,258.2
		z M298.1,168c-2.6,0-4.1,0-5.7,0c-4,0-4.9,1.3-3.6,5.2C293,174,294.8,170.8,298.1,168z M320.9,255.5c1.2-7.9,0.7-10.8-2.2-11.6
		C317.7,254.2,317.7,254.2,320.9,255.5z M319,183.3c4.6-3.6,1.2-8.3,2.6-12.2C317.9,172.1,317.7,173.6,319,183.3z M281.3,172.6
		c0.1,0.2,0.1,0.4,0.2,0.7c1.8,0,3.5,0,5.5,0c-0.1-1-0.2-1.8-0.3-2.8C284.8,171.4,283.1,171.9,281.3,172.6z"/>
	<path class="st2" d="M237.4,165.8c-3,0-4.6,0-6.3,0c0-0.1,0-0.3,0-0.4c21.8,0.1,43.6,0.1,65.5,0.2c0,0.1,0,0.2,0,0.3
		C276.9,165.9,257.4,165.8,237.4,165.8c0.6,4.5,1.2,8.8,1.9,13.1c-0.2-0.1-0.4-0.1-0.7-0.2c-0.6,1.2-1.5,2.3-1.6,3.6
		c-0.2,3.9-0.1,7.8-0.8,11.8c0-2.7,0.1-5.2,0-7.9C236.1,179.5,233.5,172.8,237.4,165.8z"/>
	<path class="st2" d="M232.4,223.3c0.1-1.5,0-3,0.6-4.2c0.2-0.6,2-0.3,3.1-0.4c0.4,0,0.8-0.1,1.2-0.1c1.2,0.1,3.4-0.2,3.7,0.4
		c0.7,1.3,0.4,3.1,0.2,4.6c-0.7-1.5-1.2-2.9-1.9-4.2c-0.8,0.8-1.7,1.7-2.5,2.5c-0.7-0.6-1.6-1.5-2.5-2.2c-0.4,1.2-0.8,2.6-1.2,3.8
		C232.8,223.3,232.6,223.3,232.4,223.3z"/>
	<path class="st2" d="M241.5,212.9c-2,2.3-5.9-1.2-7.3,2.8c-0.6-0.8-1.2-1.6-2.2-2.9C235.5,212.8,238.4,212.8,241.5,212.9z"/>
	<path class="st2" d="M241.8,202c-2.3,2.1-6-1-7.5,2.9c-0.6-0.8-1.2-1.7-2.1-2.9C235.5,202,238.4,202,241.8,202z"/>
	<path class="st2" d="M311.9,190.6c0,14.9-0.1,29.5-0.1,44.3c-2.1,0-4.2,0-6.6,0c0-3.9,0-7.9,0-11.8c0-9.4,0.1-18.8,0.1-28
		c0-4.7,0-4.7,4.6-4.6C310.4,190.5,311,190.5,311.9,190.6z M308.9,229.9c0.2-0.1,0.6-0.2,0.8-0.3c0-11.8,0.1-23.8,0.1-35.6
		c-0.2-0.1-0.6-0.2-0.8-0.3c-0.3,0.7-1,1.3-1,2c-0.1,10.7-0.1,21.4-0.1,32.2C307.9,228.6,308.5,229.2,308.9,229.9z"/>
</g>
<g>
	<path class="st2" d="M563.9,285.2c1.7-1.3,3.3-2.6,4.9-4c0.5-0.5,0.7-1.4,0.8-2.1c0.7-7.1,1.3-14.4,1.9-21.5c0.1-0.7-0.1-1.7,0.2-2
		c2.5-2.7,2.3-6.1,2.3-9.4c8.8-0.6,11.1-0.5,15.6,9c7.1-4.6,13.9-11.8,23.7-5c0-14,0.1-27.5,0.1-41.3c-3.7,0.6-7.4,1.1-10.4,1.5
		c-1.4-1.1-2.4-1.8-3.2-2.4c4-3.5,8.7,0.1,13.6-0.1c0-1.5,0-3,0-4.5c0.2,0,0.5,0,0.7,0c-0.1,18.2-0.1,36.4-0.2,55
		c-0.4,0.2-1.1,0.8-1.9,1.1c-5,1.4-7.5,4.9-8.6,9.8c-0.8,3.3-2,6.7-2.9,10c-1.1,4.5-0.7,8.9,0.6,13.4c3.8,12.6,4.8,25.3,2.5,38.3
		c-1.2,6.8-4.3,12.8-8.2,18.6c-0.7,1.1-1.2,2.6-1.3,4c-0.4,12.1,0.1,24.4-1,36.4c-0.6,7-3.5,13.9-5.5,20.8c-0.2,0.8-1.1,1.7-1.9,2.1
		c-6.3,4.3-12.7,8.4-19.8,13.1c0-3.2,0-5.8,0-8.6c0-2.7,0-5.6,0.1-8.3c0.1-3.3,0-6.4-2.3-9.4c-2.7-3.6-1.3-8.8,2.4-11.9
		c2.3-1.9,2.9-8.6,0.7-10.6c-1.4-1.3-1.8-2.9-1.8-4.8c0.1-21.4,0.2-42.7,0.2-64.1c0-3.1-0.4-6.4,2.9-8.9c-5.4-3.3-5.2-8.4-5.2-13.7
		c0.2-27.2,0.2-54.6,0.4-81.9c0-0.2,0.1-0.6,0.5-0.8c0,1.4,0,3,0,4.5c5.1,0.6,10-3.3,14.4,0.2c-0.6,0.6-1.3,1.3-2.3,1.9
		c-0.5,0.4-1.3,0.4-1.9,0.2c-3.3-0.5-6.5-1.1-10-1.5C564.2,234.3,564,259.8,563.9,285.2z M597.4,295.2c-0.1,0.7-0.1,1.3-0.1,1.3
		c-1-0.1-1.8-0.1-2.9-0.2c0.1,2,0.1,3.7,0.2,5.4c7.6-1.9,8.7-3.7,5.2-8.1c-0.1-4.3-0.2-8.6-0.5-13c-0.1-1.2-0.4-2.4-0.6-3.6
		c0.5-0.1,1.3,0,1.5-0.4c2.5-3.8,1.5-6.9-2.5-8.7c-0.4-0.1-0.7-0.2-1-0.4c-0.8,2.9-1.7,5.5-2.4,7.9c1.2,0.2,2.4,0.6,3.6,0.8
		c-0.5,0.6-1.1,1.2-1.5,1.7c-0.6-0.1-1.3-0.4-2.3-0.6c0,6.1,0,11.8-0.1,17.6C594.9,294.9,596.2,295.1,597.4,295.2z M592.1,303.6
		c-8.7,0-16.9-0.1-25.2-0.1c-0.1,18-0.1,35.7-0.2,53.8c8,0,15.8,0.1,23.7,0c1,0,2.6-1.9,2.6-2.9c-0.4-3,1.3-4.9,2.9-7.1
		c8.7-12.6,9.3-26.7,7.1-41.5c-3.6,0-7.3,0-11.2,0C591.9,304.9,592,304.2,592.1,303.6z M594.1,263.1c2.4,0,4.4,0,6.4,0
		c1.3,0,2.7,0.4,3.8-0.2c2.6-1.3,5.1-3,7.7-4.5c0.5-0.4,1.1-1,1.1-1.4c0.5-5-2.6-8.4-7.6-8.4c-1.5,0-3.2,0.2-4.5,1
		c-3.2,1.7-6.2,3.8-9.3,5.7c-0.8,0.6-1.7,1.1-2.6,1.7c-0.5-1-0.7-1.4-1-2c-4.4-8.6-5.4-9.6-13.4-1.8c-3.6,3.6-1.9,8.3-3.1,12.7
		c7.9,0,15.3,0,23,0.1C594.5,265.1,594.4,264.4,594.1,263.1z M582.7,392c0.7-8.8,1.4-17.3,2-25.6c-6.3,0-12.1,0-18.3-0.1
		c0,2-0.1,3.8,0,5.7c0.1,1.4,0.2,3.2,1.1,4c1.7,1.5,1.9,3.2,1.8,5.2c-0.1,1.5,0,3.1,0,4.6c6.2-0.2,7,0.1,11.3,5.1
		C581.1,391.6,581.8,391.7,582.7,392z M588.6,404.9c4.3-7.6,6.5-32.8,4-47.5c-1.5,1.1-3.2,1.9-4,3.2c-2,3.2-3.2,6.7-3.2,10.6
		c-0.1,4.2-0.5,8.3-1.1,12.4C583.2,391.3,583.7,398.6,588.6,404.9z M567.5,404.1c0,6.5,0,13-0.1,20c6.5-4.4,12.6-8.2,18.4-12.5
		c1.9-1.4,2.9-3.8,1.3-6.5c-1.5-2.7-2.5-5.7-3.8-8.6c-0.2-0.6-0.7-1.2-1.3-2.1C580.6,402.7,575.9,406.4,567.5,404.1z M570.5,280.4
		c4.4-0.5,8.1,0.4,10.8,3.6c2.7,3.3,2.6,7.1,1.5,11.2c2.9,0,5.2,0.1,7.7,0c0.7,0,1.9-0.6,2-1.1c1.4-5.7,1.9-11.4,0.2-17.3
		c-7.4,0-14.5,0-21.8-0.1C570.7,277.9,570.6,278.9,570.5,280.4z M570.8,275.4c7,0,14,0.1,20.9,0c0.5,0,1.3-0.6,1.5-1.1
		c0.8-2.1,1.5-4.4,2.4-6.9c-8.4,0-16.2-0.1-23.9-0.1C571.4,270,571.2,272.6,570.8,275.4z M566.7,365c5.8,0,11.5,0.1,17.3,0
		c0.6,0,1.4-0.6,1.8-1.1c1-1.5,1.7-3.3,2.5-5.2c-7.4,0-14.4,0-21.5-0.1C566.7,360.7,566.7,362.6,566.7,365z M568,301.1
		c0.1,0.4,0.2,0.6,0.4,1c8.3,0,16.5,0.1,25.2,0.1c-0.1-2-0.1-3.8-0.2-5.8c-3.7,0-7-0.1-10.4,0c-0.6,0-1.3,0.4-1.8,0.7
		c-2.9,3.3-6.4,4.2-10.6,3.3C569.8,300.3,568.8,300.9,568,301.1z M564.3,290.3c-0.1,5.2,3.8,9.3,8.9,9.4c4.9,0.1,9.3-4.2,9.4-9.2
		c0.1-5-4-9.3-9-9.4C568.4,281.1,564.4,285.2,564.3,290.3z M572.1,403.8c4.5,0,8.3-3.7,8.3-8.2c0.1-4.8-3.6-8.6-8.2-8.7
		c-4.6-0.1-8.4,3.6-8.6,8C563.7,399.9,567.5,403.8,572.1,403.8z M593,305.1c3.7,0,6.8,0,10,0c-0.1-1.2-0.4-2.1-0.5-3.5
		C599,301.7,595.6,301.3,593,305.1z M595.8,263.9c0.7,2.1,4.2,4.6,6.1,3.9c1.2-0.5,1.8-2.3,2.9-3.8
		C601.3,263.9,598.5,263.9,595.8,263.9z M575.3,250.6c1.7-1.2,3.1-2.1,4.8-3.3c-2,0-3.5,0-4.8,0
		C575.3,248.3,575.3,249.3,575.3,250.6z"/>
	<path class="st2" d="M585.2,218.4c0.5-0.4,1.4-1.1,2.3-1.7c1.4,2.3,5.5-1.9,6.1,2.5c0,0.1,0,0.2,0,0.2c-0.7,0.7-1.4,1.4-2.3,2.1
		C589.7,219.8,585.2,224.8,585.2,218.4z"/>
	<path class="st2" d="M585.2,203.8c0-0.5-0.1-0.8,0-1c0.7-0.7,1.5-1.4,2.3-2.1c1.4,2.1,5.6-1.9,5.9,2.6c0,0.1,0,0.2,0,0.2
		c-0.6,0.7-1.3,1.4-1.9,2.1C590,203.7,585.7,208.7,585.2,203.8z"/>
	<path class="st2" d="M585.6,211.2c0.7,1.1,1.3,2.1,2.1,3.5c0.5-0.6,0.7-0.7,0.7-0.8c-0.4-1.9,0-3.7,2.3-3.5c1,0.1,2.6,1.4,2.7,2.3
		c0.2,2.3-1.5,2.9-3.5,3C586.5,215.7,585.1,214.2,585.6,211.2z"/>
	<path class="st2" d="M593.8,197.5c-3.2,0-5.7,0-8.7,0c2-2,5.4,0.6,6.8-2.5C592.4,195.5,592.8,196.2,593.8,197.5z"/>
	<path class="st2" d="M586.7,350.4c0.6-11.5,1.1-22.6,1.5-33.8c4.8,0,9.2,0,13.4,0C603.7,326.7,595.8,344.8,586.7,350.4z M588,347.5
		c8.7-8.1,12.8-18,13.1-29.6c-4,0-7.9,0-11.8,0C588.9,327.9,588.4,337.8,588,347.5z"/>
	<path class="st2" d="M583.4,317.2c2.1,2.7,2.1,5.2-0.1,8C580.7,322.3,580.8,319.9,583.4,317.2z"/>
	<path class="st2" d="M565.4,290.4c0-4.6,3.5-8.1,8.1-8c4.5,0,8.1,3.7,8.1,8.1c0,4.5-3.8,8.2-8.3,8.2
		C568.7,298.5,565.4,295.1,565.4,290.4z M580.5,290.4c0-3.8-3.5-7.3-7.1-7.1s-6.9,3.3-7,7c-0.1,3.9,3.1,7.1,7,7.3
		C577.3,297.6,580.5,294.5,580.5,290.4z"/>
	<path class="st2" d="M579.5,395.4c0,4.3-3.2,7.4-7.5,7.4s-7.5-3.2-7.4-7.5c0.1-4,3.3-7.3,7.4-7.4
		C576.2,387.8,579.5,391.1,579.5,395.4z M565.8,395.4c0,3.6,2.9,6.4,6.3,6.4s6.4-3,6.5-6.4c0.1-3.5-3.1-6.7-6.7-6.5
		C568.6,388.9,565.7,391.8,565.8,395.4z"/>
</g>
<g id="fXjG0J.tif">
	<g>
		<path class="st2" d="M322.1,289.3c-0.1,5.5,0,10.8-0.3,15.9c-0.1,1.6-2.1,2.6-2,4.7s-0.4,4.2-0.4,6.3c-0.1,4.8-1.4,9.3-3.3,13.8
			c-1.1,2.6-0.7,6-0.7,8.9c-0.2,12.8-0.3,25.6-0.4,38.4c0,3,0.6,3.7,3.5,3.8c0.6,0,1.4,0,2.2,0c-0.1,5.8,0.1,11.5-0.4,17.1
			c-0.3,3.5-2,6.8-4.6,9.5c-2.2,2.2-2.9,4.9-2.8,8c0.1,4.3-0.1,8.7-0.1,13.2c-3.4-0.1-6.5-0.1-9.6-0.1c-13.5-0.2-26.8-0.4-40.3-0.6
			c-2.5,0-5,0-7.6-0.2c-0.5,0-1-0.8-1.6-1.3c0.1-0.3,0.3-0.5,0.4-0.8c19.2,0.3,38.5,0.6,57.7,0.9c0-0.2,0-0.5,0-0.7
			c-19.2-0.3-38.3-0.6-57.8-0.9c0.1-4,0-7.6,0.2-11.3c0.2-2.7-0.6-4.8-2.2-6.9c-1.7-2.3-4.1-4.4-3.4-7.7c-3.5-6.1,0-12.6-1.7-19
			c1-0.1,1.6-0.2,2-0.2c4.2,0,4.6-0.4,4.7-4.5c0.2-14.5,0.4-29,0.7-43.4c0-0.8,0.2-1.9-0.2-2.5c-3.9-6.9-2.7-14.5-3.7-21.8
			c-0.1-0.7-0.9-1.5-1.4-2.2c-0.3-0.4-0.6-0.9-0.6-1.5c0-5.1,0.1-10.2,0.2-15.2c0.3-0.2,0.4-0.4,0.5-0.4c3.5,0.6,5.3-1.1,7.3-4.1
			c3-4.6,6.9-8.6,10.3-12.7c-10.1-0.2-20.7-0.3-31.5-0.5c0.4,2.9,0.8,5.6,1.1,8.5c0.1,0.5-0.4,1.1-0.6,1.8c-0.2,0.7-0.6,1.5-0.6,2.3
			c-0.2,12.5-0.4,25.2-0.6,37.7c0,0.8,0,1.7,0,2.5c-0.2,0-0.3,0-0.5,0c0-0.8,0-1.8,0-2.6c0.2-12.5,0.4-25.2,0.5-37.7
			c0-0.9-0.5-1.8-0.8-2.7c-0.3,0-0.5,0.1-0.8,0.1c0.5-3.2,1.1-6.5,1.7-9.9c-1.4,0-2.6,0-3.9-0.1c0-0.1,0-0.3,0-0.4
			c0.5,0,1.1-0.1,1.7-0.1c6.8,0.1,13.5,0.2,20.3,0.3c10.1,0.1,20.3,0.2,30.4,0.3c5.8,0,11.8-0.1,17.6,0c0.9,0,2.1,0.5,2.8,1.3
			c5.2,4.5,9.5,9.8,12.7,15.9c0.3,0.6,1.4,1.1,2.1,1.4C319.6,289.4,320.8,289.2,322.1,289.3z M307.3,406c1.7,1.4,3.3,2.8,5.1,4.3
			c1.8-2.4,3.5-4.8,5.1-7c-0.7-0.4-1.4-0.8-1.9-1.1c0.5-1,1-2.1,1.5-2.7c0.1,0.3,0.2,1,0.4,1.9c0.2,0,0.4,0,0.6-0.1
			c0.1-5,0.2-9.9,0.2-14.6c-0.8-0.2-1.7-0.4-2.4-0.6c0.5-0.6,0.9-1.1,1.6-1.9c-1-1.5-2.2-2.9-3.3-4.4c-0.9,0.6-1.8,1-2.3,1.7
			c-0.9,0.9-1.8,2-2.7,3c-0.5-0.2-1-0.5-1.7-0.7c0.1-0.3,0.1-0.5,0.2-0.8c7.2-2.6,6.6-8.2,6.1-13.9c-19.7-0.3-39.3-0.6-59-0.9
			c0,2.9-0.8,6.1,0.1,8.6c0.8,2.3,3.3,4.1,5,6.2c-0.1,0.1-0.2,0.2-0.3,0.3c-1.4-1-2.6-2.1-3.7-2.8c-2.1,1.8-4,3.2-5.7,4.8
			c-0.3,0.3-0.4,1-0.4,1.7c-0.1,4.4-0.2,8.9-0.2,13.3c0,0.8,0.3,1.6,0.3,1.7c3.9,1,4.1,5,6.8,6.5c1.4-0.9,2.7-1.9,4-2.8
			c-1.3,3-6.1,3.4-5.4,7.8c19,0.3,37.8,0.6,57.2,0.9c-0.6-1.5-0.9-2.8-1.7-3.7c-0.8-1-2.2-1.7-3.2-2.6
			C307.2,407.4,307.4,406.6,307.3,406z M314.4,337.2c-19.7-0.3-39.4-0.6-58.9-0.9c-0.2,10.2-0.3,20.4-0.5,30.4
			c19.7,0.3,39.3,0.6,58.9,0.9C314.1,357.4,314.2,347.4,314.4,337.2z M311.2,310.4c-0.1-7.7,1.5-15,4-22.1c0.6-1.7-2.5-5.3-4.2-5.3
			c-16.8-0.3-33.6-0.5-50.4-0.7c-0.7,0-1.8,0.5-2.3,1.1c-2.2,2.2-2,4.7-1.3,7.6c1.4,6.2,2.2,12.3,3.2,18.7
			C276.7,309.8,293.9,310.1,311.2,310.4z M310.4,334.8c0.1-7.8,0.2-15.6,0.4-23.1c-17.3-0.3-34.2-0.5-51.5-0.8
			c-0.1,7.8-0.2,15.5-0.4,23.1c-1.3,0.1-2.4,0.2-3.4,0.3c0,0.2,0,0.4,0.1,0.5c19.6,0.3,39.3,0.6,59,0.9c0-0.2,0-0.4,0.1-0.6
			C313.3,335,312,334.9,310.4,334.8z M255.1,423.5c19,0.3,37.9,0.6,56.7,0.9c0-1.9,0.1-3.5,0.1-5.4c-19-0.3-37.8-0.6-56.7-0.9
			C255.1,419.8,255.1,421.6,255.1,423.5z M309.1,279.1c0.2-0.2,0.4-0.5,0.5-0.7c-1.6-1.5-3.2-2.7-4.7-4.3c-1.7-1.8-3.5-2.4-6-2.4
			c-8.4,0-16.6,0.3-25-0.4c-6-0.5-8.4,3.5-11.8,6.6c0.1,0.2,0.1,0.5,0.2,0.7c2.1,0,4.1,0.1,6.9,0.1c-1.3,1-2,1.6-2.7,2.2
			c12.8,0.2,25.5,0.4,38.2,0.6c-0.9-0.7-1.7-1.4-2.4-2c0.1-0.2,0.2-0.4,0.3-0.5C304.8,279.1,306.9,279.1,309.1,279.1z M311.7,331.1
			c1.4-0.9,3-1.4,3.5-2.4c1.3-2.3,2.3-4.9,2.6-7.5c0.8-5.4,0.8-11.1,1.7-16.5c0.9-5.6-0.8-10.4-3.4-15.3
			C312.5,296.1,310.9,311.7,311.7,331.1z M257.9,329.8c1.4-20.9,0.4-34.9-2.9-41.4c-1.9,4.1-4.1,7.7-3.8,12.3
			c0.4,6.9,0.5,13.8,1.3,20.7C252.7,324.7,253.8,328.4,257.9,329.8z M310.1,417c0-0.2,0-0.3,0-0.5c-17.2-0.3-34.5-0.5-51.8-0.8
			c0,0.2,0,0.3,0,0.5C275.6,416.4,292.8,416.7,310.1,417z M317.9,290.4c0.9,2.6,1.9,5,2.9,7.9c0-3,0.1-5.4,0.1-7.9
			C320,290.4,319,290.4,317.9,290.4z M248.2,397c1.5-5.7-1.3-11.3,2.8-16.1c-1,0-1.8,0-2.5,0.1C248.4,386.2,248.3,391.2,248.2,397z
			 M311,334.2c1.8,0,2.6,0,3.7,0.1c0-0.9,0-1.7,0-2.4c0-0.3-0.1-0.6-0.3-1.8C313.1,331.6,312.2,332.6,311,334.2z M250.2,289.9h-0.1
			c-0.1,4.5-0.1,8.9-0.2,13.4h0.1C250,298.9,250.1,294.4,250.2,289.9z M255.5,333.6c0.9-0.1,1.7-0.1,3-0.3c-0.9-1.5-1.7-2.5-2.4-3.7
			c-0.2,0.1-0.4,0.2-0.6,0.3C255.5,331.1,255.5,332.1,255.5,333.6z M251.5,402.9c-0.2,0.1-0.4,0.3-0.6,0.4c1.4,2,2.6,4.1,4,6.1
			c0.3-0.2,0.5-0.3,0.8-0.5C254.3,406.9,252.9,404.9,251.5,402.9z"/>
		<path class="st2" d="M233,426.4c6.1,0.1,11.9,0.2,17.7,0.3c0,0.1,0,0.2,0,0.4c-7.4-0.1-14.8-0.2-22.2-0.3c0-0.1,0-0.2,0-0.3
			c1.3,0,2.4,0,4,0.1c-0.5-3.5-0.9-6.9-1.4-10.1c0.3,0,0.5,0.1,0.8,0.1c0.3-0.9,0.8-2,0.8-2.9c0.3-17.2,0.6-34.3,0.8-51.6
			c0-0.9,0-1.8,0-2.7c0.2,0,0.3,0,0.5,0c0,0.9,0,1.9,0,2.8c-0.3,16.9-0.5,33.8-0.7,50.7c0,1.1-0.9,2.8,1.1,3.4c0.1,0,0,1-0.1,1.7
			C233.9,420.7,233.5,423.4,233,426.4z"/>
		<path class="st2" d="M233,352.7c-0.1-1.9,0-3.8,2.5-3.4c0.6,0.1,1.6,0.7,1.7,1.3c0.2,0.7,0,2.2-0.3,2.3c-1.6,0.4-3.3,0.8-4.8,0.5
			c-0.9-0.2-1.5-1.9-2.2-2.9c0.2-0.1,0.4-0.3,0.6-0.4c0.6,0.9,1.3,2,1.9,2.9C232.7,352.8,232.8,352.8,233,352.7z M235.1,349.6
			c-0.6,0.9-1.1,1.6-1.1,2.1c0,0.4,0.9,1.3,1.3,1.1c0.6-0.2,1.4-0.8,1.5-1.4C236.6,351,235.8,350.4,235.1,349.6z"/>
		<path class="st2" d="M233.7,334.5c2.1,0.7,4.1,0.7,4,3.1c-0.1,2.2-2.1,2.3-3.7,2.2c-1.7,0-3.8-0.3-3.3-2.5
			C230.7,336.3,232.6,335.5,233.7,334.5z M234.1,335.5c-1.1,0.8-2,1.5-2.7,2c0.9,0.4,1.8,1.3,2.7,1.3s1.9-0.7,2.8-1.1
			C236,337,235.2,336.3,234.1,335.5z"/>
		<path class="st2" d="M230.6,333.7c0.2-1.1,0-2.7,0.6-3.2c2.5-1.9,3.5,1.3,5.4,2.1c0.2-0.9,0.4-1.9,0.5-2.7c0.1,0,0.3,0,0.4,0.1
			c0,1.5,0,2.8-0.1,4.9c-1.1-1-1.9-1.9-2.7-2.5c-0.8-0.5-1.8-0.8-2.6-1.3c-0.3,0.8-0.6,1.8-0.8,2.6
			C231.1,333.6,230.8,333.7,230.6,333.7z"/>
		<path class="st2" d="M230.6,348c0-1.4,0-2.8,0.1-4.8c2.5,1.1,4.7,2.2,6.9,3.2c-0.1,0.2-0.2,0.5-0.3,0.7c-1.8-0.8-3.5-1.6-5.7-2.5
			c-0.1,1.3-0.3,2.3-0.4,3.4C230.9,348,230.7,348,230.6,348z"/>
		<path class="st2" d="M270.4,325.5c0.8-0.4,1.7-1,2.4-1c7.4,0,14.9,0.1,22.3,0.3c0.8,0,1.7,0.8,2.5,1.3c-0.1,0.2-0.2,0.5-0.3,0.7
			c-8.8-0.1-17.6-0.3-26.4-0.4C270.7,326.2,270.6,325.9,270.4,325.5z"/>
		<path class="st2" d="M298.7,331.2c-10-0.2-20-0.3-30.1-0.5c-0.1-0.3-0.2-0.5-0.3-0.8c0.6-0.3,1.3-0.9,1.9-0.9
			c8.9,0.1,17.9,0.3,26.7,0.5c0.7,0,1.4,0.6,2.1,0.9C299,330.8,298.8,331,298.7,331.2z"/>
		<path class="st2" d="M272.8,322.1c0.3-1,0.5-1.7,0.7-2.4c6.8,0.1,13.5,0.1,20.1,0.4c0.7,0,1.5,1.1,2.3,1.8
			c-0.2,0.2-0.3,0.4-0.5,0.6C288,322.4,280.6,322.3,272.8,322.1z M294,321.5c0-0.1,0-0.1,0-0.2c-6.4-0.1-12.6-0.2-19-0.3
			c0,0.1,0,0.1,0,0.2C281.3,321.3,287.6,321.4,294,321.5z"/>
		<path class="st2" d="M274.7,317.2c0.7-0.3,1.6-1,2.3-1c5,0,10,0.1,15,0.2c0.7,0,1.5,0.6,2.2,1c-0.1,0.3-0.2,0.5-0.3,0.8
			c-6.4-0.1-12.6-0.2-19-0.3C275,317.7,274.9,317.5,274.7,317.2z"/>
		<path class="st2" d="M302.4,278c-11-0.2-21.7-0.3-32.4-0.6c-0.6,0-1.7-1.1-1.7-1.9c0-0.7,0.8-2.1,1.4-2.1
			c10.9,0,21.8,0.2,32.8,0.4C302.5,275.3,302.4,276.5,302.4,278z M298.3,276.3c0-0.1,0-0.1,0-0.2c-8.8-0.1-17.5-0.3-26.3-0.4
			c0,0.1,0,0.1,0,0.2C280.8,276,289.6,276.2,298.3,276.3z"/>
	</g>
</g>
<g>
	<path class="st1" d="M350.3,346.8l15-0.3v4H359v1.2h6.3v4l-15,0.3v-4h5.3v-1.2h-5.3V346.8z"/>
	<path class="st1" d="M357.1,336.9h3c1.1,0,1.9,0,2.5,0.1c0.5,0.1,1,0.4,1.5,0.7c0.4,0.4,0.8,0.8,1,1.4c0.3,0.5,0.3,1.2,0.3,1.9
		c0,0.8-0.1,1.5-0.3,2c-0.1,0.5-0.4,1.1-0.8,1.4s-0.8,0.5-1.4,0.7s-1.4,0.3-2.3,0.3h-3.1c-1.1,0-2-0.1-2.7-0.4s-1.2-0.7-1.5-1.4
		c-0.4-0.7-0.5-1.5-0.5-2.5c0-0.8,0.1-1.5,0.4-2.2c0.3-0.5,0.5-1.1,1-1.4c0.4-0.3,0.8-0.5,1.2-0.7
		C355.6,336.9,356.3,336.9,357.1,336.9z M356.1,340.6c-0.7,0-1.1,0-1.2,0.1s-0.3,0.3-0.3,0.4c0,0.3,0.1,0.4,0.3,0.4
		c0.1,0,0.5,0.1,1.2,0.1h5.6c0.5,0,1,0,1.1-0.1s0.3-0.3,0.3-0.4c0-0.3-0.1-0.4-0.3-0.4c-0.1-0.1-0.5-0.1-1.1-0.1H356.1z"/>
	<path class="st1" d="M352.7,331.8h1.1c-0.4-0.3-0.8-0.5-1-1c-0.3-0.4-0.4-0.8-0.4-1.4c0-0.7,0.1-1.2,0.4-1.6s0.7-0.7,1.1-0.8
		s1.2-0.1,2.3-0.1h8.6v3.7h-8.5c-0.8,0-1.4,0-1.5,0.1c-0.1,0-0.3,0.3-0.3,0.4c0,0.3,0.1,0.4,0.3,0.5c0.3,0,0.8,0.1,1.8,0.1h8.3v3.7
		l-12.3,0.1L352.7,331.8z"/>
	<path class="st1" d="M350,317.2l15-0.3v3.7h-1c0.4,0.4,0.7,0.7,0.8,1.1c0.1,0.4,0.3,0.8,0.3,1.2c0,0.5-0.1,1.1-0.4,1.5
		s-0.7,0.7-1.1,0.8c-0.4,0.1-1.1,0.1-1.9,0.1H356c-1,0-1.6,0-2-0.1s-0.7-0.4-1.1-0.8c-0.3-0.4-0.4-1-0.4-1.5c0-0.4,0.1-1,0.3-1.2
		c0.1-0.4,0.4-0.7,0.7-1.1H350V317.2z M355.7,320.9c-0.4,0-0.8,0-1,0.1c-0.1,0.1-0.3,0.3-0.3,0.4c0,0.3,0.1,0.4,0.3,0.4
		c0.1,0.1,0.4,0.1,1,0.1h6c0.5,0,0.8,0,1-0.1c0.1-0.1,0.3-0.3,0.3-0.4c0-0.3-0.1-0.4-0.3-0.5c-0.1-0.1-0.5-0.1-1.2-0.1L355.7,320.9z
		"/>
	<path class="st1" d="M357.2,312.5v3.5h-0.8c-1,0-1.6-0.1-2.2-0.3c-0.5-0.3-1-0.7-1.4-1.4c-0.4-0.7-0.5-1.5-0.5-2.6
		c0-1.2,0.3-2.2,0.7-2.9c0.4-0.7,1-1.1,1.6-1.2c0.7-0.1,2-0.3,4-0.3h6.1v3.7h-1.1c0.4,0.3,0.8,0.5,1,0.8c0.3,0.4,0.3,0.8,0.3,1.2
		c0,0.7-0.1,1.2-0.5,1.8c-0.4,0.5-1.2,0.8-2.5,0.8h-1c-1,0-1.5-0.1-1.9-0.4c-0.3-0.3-0.7-1-1.2-2.2s-0.8-1.9-1-1.9
		c-0.1-0.1-0.5-0.1-1-0.1c-0.7,0-1.1,0-1.2,0.1s-0.3,0.3-0.3,0.5c0,0.3,0.1,0.4,0.3,0.4c0.1,0,0.5,0.1,1.2,0.1L357.2,312.5z
		 M359,311.4c0.4,0.5,0.8,1,1.1,1.1c0.3,0.1,0.7,0.1,1.2,0.1c0.7,0,1.1,0,1.2-0.1s0.3-0.3,0.3-0.5c0-0.3-0.1-0.4-0.3-0.4
		c-0.1-0.1-0.5-0.1-1.1-0.1L359,311.4z"/>
	<path class="st1" d="M354.2,294.6v3.7h-1.1c-0.5,0-0.8,0-1,0.1c-0.1,0.1-0.3,0.3-0.3,0.4c0,0.3,0.1,0.4,0.3,0.5
		c0.1,0.1,0.5,0.1,0.8,0.1c0.5,0,0.8-0.1,1.1-0.3c0.3-0.1,0.5-0.5,1-1.1c1-1.8,1.9-2.9,2.5-3.3c0.7-0.4,1.8-0.7,3.1-0.7
		c1.1,0,1.9,0.1,2.3,0.4c0.5,0.3,1,0.7,1.2,1.5c0.4,0.7,0.5,1.5,0.5,2.5c0,1.1-0.1,1.9-0.5,2.7c-0.4,0.7-1,1.2-1.5,1.5
		s-1.5,0.4-2.6,0.4h-1v-3.7h1.8c0.5,0,1,0,1.1-0.1s0.3-0.3,0.3-0.5c0-0.3-0.1-0.4-0.3-0.5s-0.5-0.1-1-0.1c-0.8,0-1.5,0.1-1.8,0.4
		s-0.7,0.8-1.4,1.8c-0.7,1-1.1,1.6-1.4,1.9s-0.7,0.5-1.2,0.8s-1.2,0.3-1.9,0.3c-1.1,0-2-0.1-2.5-0.4s-1-0.8-1.2-1.4
		c-0.3-0.7-0.4-1.5-0.4-2.3c0-1,0.1-1.9,0.4-2.6s0.7-1.2,1.2-1.4c0.5-0.3,1.4-0.4,2.6-0.4L354.2,294.6z"/>
	<path class="st1" d="M362,285h2.6v8.2h-2.2c-4-2.5-6.5-3.8-7.4-4.4c-1-0.4-1.6-0.7-2.2-0.7c-0.4,0-0.7,0.1-1,0.3
		c-0.1,0.1-0.3,0.4-0.3,0.7c0,0.3,0.1,0.5,0.3,0.7c0.3,0.1,0.7,0.3,1.4,0.1h1.4v3.4h-0.5c-0.8,0-1.5,0-2-0.1s-1-0.3-1.5-0.7
		c-0.4-0.3-0.8-0.8-1.1-1.4c-0.3-0.5-0.4-1.2-0.4-1.9c0-1.5,0.4-2.6,1.1-3.4s1.6-1.1,2.7-1.2c0.8,0,1.8,0.1,2.7,0.7
		c1,0.4,3,1.6,6.1,3.8L362,285z"/>
	<path class="st1" d="M354.5,274.8h5c1.1,0,1.9,0,2.5,0.1c0.5,0.1,1,0.4,1.5,0.8c0.4,0.4,0.8,0.8,1,1.4c0.1,0.5,0.3,1.2,0.3,1.9
		c0,1-0.1,1.6-0.3,2.2c-0.1,0.5-0.5,1.1-1,1.4c-0.4,0.4-1,0.5-1.4,0.8c-0.5,0.1-1.2,0.3-2.3,0.3h-5.2c-1.4,0-2.5-0.1-3.1-0.3
		c-0.7-0.3-1.2-0.7-1.6-1.4c-0.4-0.7-0.7-1.5-0.7-2.6c0-0.8,0.1-1.5,0.4-2.2s0.7-1.1,1.1-1.5s0.8-0.5,1.4-0.7
		C352.6,274.8,353.4,274.8,354.5,274.8z M353.3,278.5c-0.8,0-1.2,0-1.5,0.1c-0.1,0.1-0.3,0.3-0.3,0.5c0,0.3,0.1,0.4,0.3,0.5
		c0.3,0.1,0.7,0.1,1.5,0.1h7.4c0.8,0,1.4,0,1.6-0.1c0.1-0.1,0.3-0.3,0.3-0.5c0-0.3-0.1-0.4-0.3-0.5c-0.3-0.1-0.7-0.1-1.4-0.1H353.3z
		"/>
	<path class="st1" d="M354.5,264.6h5c1.1,0,1.9,0,2.5,0.1c0.5,0.1,1,0.4,1.5,0.8c0.4,0.4,0.8,0.8,1,1.4c0.1,0.5,0.3,1.2,0.3,1.9
		c0,1-0.1,1.6-0.3,2.2c-0.1,0.5-0.5,1.1-1,1.4c-0.4,0.3-1,0.5-1.4,0.8c-0.5,0.1-1.2,0.3-2.3,0.3h-5.2c-1.4,0-2.5-0.1-3.1-0.3
		c-0.7-0.3-1.2-0.7-1.6-1.4c-0.4-0.7-0.7-1.5-0.7-2.6c0-0.8,0.1-1.5,0.4-2.2s0.7-1.1,1.1-1.5c0.4-0.3,0.8-0.5,1.4-0.7
		C352.5,264.7,353.3,264.6,354.5,264.6z M353.3,268.4c-0.8,0-1.2,0-1.5,0.1c-0.1,0.1-0.3,0.3-0.3,0.5c0,0.3,0.1,0.4,0.3,0.5
		c0.3,0.1,0.7,0.1,1.5,0.1h7.4c0.8,0,1.4,0,1.6-0.1c0.1-0.1,0.3-0.3,0.3-0.5c0-0.3-0.1-0.4-0.3-0.5c-0.3-0.1-0.7-0.1-1.4-0.1H353.3z
		"/>
	<path class="st1" d="M354.2,254.5h5c1.1,0,1.9,0,2.5,0.1c0.5,0.1,1,0.4,1.5,0.8c0.4,0.4,0.8,0.8,1,1.4c0.1,0.5,0.3,1.2,0.3,1.9
		c0,1-0.1,1.6-0.3,2.2c-0.1,0.5-0.5,1.1-1,1.4c-0.4,0.4-1,0.5-1.4,0.8c-0.5,0.1-1.2,0.3-2.3,0.3h-5.2c-1.4,0-2.5-0.1-3.1-0.3
		c-0.7-0.3-1.2-0.7-1.6-1.4c-0.4-0.7-0.7-1.5-0.7-2.6c0-0.8,0.1-1.5,0.4-2.2s0.7-1.1,1.1-1.5c0.4-0.3,0.8-0.5,1.4-0.7
		C352.3,254.5,353.1,254.5,354.2,254.5z M353,258.2c-0.8,0-1.2,0-1.5,0.1c-0.1,0.1-0.3,0.3-0.3,0.5c0,0.3,0.1,0.4,0.3,0.5
		c0.3,0.1,0.7,0.1,1.5,0.1h7.4c0.8,0,1.4,0,1.6-0.1c0.1-0.1,0.3-0.3,0.3-0.5c0-0.3-0.1-0.4-0.3-0.5c-0.3-0.1-0.7-0.1-1.4-0.1H353z"
		/>
</g>
</svg>
