<?xml version="1.0" encoding="utf-8"?>
<!-- Generator: Adobe Illustrator 25.4.1, SVG Export Plug-In . SVG Version: 6.00 Build 0)  -->
<svg version="1.1" xmlns="http://www.w3.org/2000/svg" xmlns:xlink="http://www.w3.org/1999/xlink" x="0px" y="0px"
	 viewBox="0 0 792 612" style="enable-background:new 0 0 792 612;" xml:space="preserve">
<style type="text/css">
	.st0{fill:#FFFFFF;stroke:#FF0000;stroke-width:2.3703;stroke-miterlimit:23.7036;}
	.st1{fill:none;stroke:#FF0000;stroke-width:2.3703;stroke-miterlimit:9.4815;}
	.st2{fill:#FFFFFF;stroke:#FF0000;stroke-miterlimit:10;}
	.st3{fill:none;stroke:#000000;stroke-width:1.000000e-03;}
	.st4{fill:none;stroke:#000000;stroke-width:1.000000e-03;stroke-miterlimit:10;}
</style>
<g id="Layer_1">
	
		<g id="Layer_1_00000066479996087598506950000012748701602428794265_" inkscape:version="0.92.4 (5da689c313, 2019-01-14)" sodipodi:docname="Bubble Pack templatev2.svg" xmlns:cc="http://creativecommons.org/ns#" xmlns:dc="http://purl.org/dc/elements/1.1/" xmlns:inkscape="http://www.inkscape.org/namespaces/inkscape" xmlns:osb="http://www.openswatchbook.org/uri/2009/osb" xmlns:rdf="http://www.w3.org/1999/02/22-rdf-syntax-ns#" xmlns:sodipodi="http://sodipodi.sourceforge.net/DTD/sodipodi-0.dtd" xmlns:svg="http://www.w3.org/2000/svg">
		<g id="svg15158" transform="scale(1.3333333)" inkscape:version="0.91 r13725" sodipodi:docname="AxiDraw_First.svg">
			<path id="path11" inkscape:connector-curvature="0" class="st0" d="M54.5,146v12.6H42.6c-17.2,0-31.2,14.1-31.2,31.3v79.4
				c0,17.2,14,31.2,31.2,31.2h11.9v12.7c0,17.2,14,31.2,31.2,31.2h130.8h12.1H504c17.2,0,31.2-14,31.2-31.2v-12.6h11.9
				c17.2,0,31.2-14,31.2-31.2V190c0-17.2-14-31.2-31.2-31.2h-11.9v-12.6c0-17.2-14-31.2-31.2-31.2H228.6h-12.1H85.8
				C68.6,114.8,54.5,128.9,54.5,146L54.5,146z"/>
			<path id="path7" inkscape:connector-curvature="0" class="st0" d="M41.3,204v15.9c-0.1,0-0.1,0-0.1,0c-5.3,0-9.7,4.3-9.7,9.7
				c0,5.3,4.4,9.7,9.7,9.7c0.1,0,0.1,0,0.2,0v15.9c0,2.8,2.3,5,5,5h1.9c2.8,0,5-2.3,5-5V204c0-2.8-2.3-5-5-5h-1.9
				C43.6,199,41.3,201.2,41.3,204z"/>
			<path id="path9" inkscape:connector-curvature="0" class="st0" d="M548.5,255.2v-15.9c0.1,0,0.1,0,0.2,0c5.3,0,9.7-4.3,9.7-9.7
				c0-5.3-4.3-9.7-9.7-9.7c-0.1,0-0.1,0-0.2,0V204c0-2.8-2.3-5-5-5h-1.9c-2.8,0-5,2.3-5,5v51.2c0,2.8,2.3,5,5,5h1.9
				C546.2,260.2,548.5,257.9,548.5,255.2z"/>
			<g id="g19">
				<line id="line13" class="st1" x1="294.9" y1="343.7" x2="294.9" y2="341.5"/>
				<line id="line15" class="st1" x1="294.9" y1="336.8" x2="294.9" y2="119.3"/>
				<line id="line17" class="st1" x1="294.9" y1="116.9" x2="294.9" y2="114.7"/>
			</g>
		</g>
	</g>
	<g id="Layer_2_00000005267674938470384930000007299763746156256904_">
	</g>
	<path class="st2" d="M510,209.4V404c0,6.9-5.6,12.6-12.6,12.6h-54.9c-6.9,0-12.6-5.6-12.6-12.6V209.4c0-6.9,5.6-12.6,12.6-12.6
		h54.9C504.4,196.8,510,202.5,510,209.4z"/>
</g>
<g id="Pen">
	<g>
		<path class="st3" d="M555.4,278.6l-11,0.2l0-2.9l4.6,0l0-0.9l-4.6,0l0-2.9l11-0.2l0,2.9l-3.9,0l0,0.9l3.9,0L555.4,278.6z"/>
		<path class="st3" d="M550.4,285.9l-2.2,0c-0.8,0-1.4,0-1.8-0.1s-0.7-0.3-1.1-0.5c-0.3-0.3-0.6-0.6-0.7-1c-0.2-0.4-0.2-0.9-0.2-1.4
			c0-0.6,0.1-1.1,0.2-1.5c0.1-0.4,0.3-0.8,0.6-1c0.3-0.2,0.6-0.4,1-0.5s1-0.2,1.7-0.2l2.3,0c0.8,0,1.5,0.1,2,0.3
			c0.5,0.2,0.9,0.5,1.1,1c0.3,0.5,0.4,1.1,0.4,1.8c0,0.6-0.1,1.1-0.3,1.6c-0.2,0.4-0.4,0.8-0.7,1c-0.3,0.2-0.6,0.4-0.9,0.5
			C551.5,285.9,551,285.9,550.4,285.9z M551.1,283.2c0.5,0,0.8,0,0.9-0.1c0.1-0.1,0.2-0.2,0.2-0.3c0-0.2-0.1-0.3-0.2-0.3
			c-0.1,0-0.4-0.1-0.9-0.1l-4.1,0c-0.4,0-0.7,0-0.8,0.1c-0.1,0.1-0.2,0.2-0.2,0.3c0,0.2,0.1,0.3,0.2,0.3c0.1,0.1,0.4,0.1,0.8,0.1
			L551.1,283.2z"/>
		<path class="st3" d="M553.6,289.6l-0.8,0c0.3,0.2,0.6,0.4,0.7,0.7c0.2,0.3,0.3,0.6,0.3,1c0,0.5-0.1,0.9-0.3,1.2
			c-0.2,0.3-0.5,0.5-0.8,0.6c-0.3,0.1-0.9,0.1-1.7,0.1l-6.3,0l0-2.7l6.2,0c0.6,0,1,0,1.1-0.1c0.1,0,0.2-0.2,0.2-0.3
			c0-0.2-0.1-0.3-0.2-0.4c-0.2,0-0.6-0.1-1.3-0.1l-6.1,0l0-2.7l9-0.1L553.6,289.6z"/>
		<path class="st3" d="M555.6,300.3l-11,0.2l0-2.7l0.7,0c-0.3-0.3-0.5-0.5-0.6-0.8c-0.1-0.3-0.2-0.6-0.2-0.9c0-0.4,0.1-0.8,0.3-1.1
			c0.2-0.3,0.5-0.5,0.8-0.6c0.3-0.1,0.8-0.1,1.4-0.1l4.2,0c0.7,0,1.2,0,1.5,0.1c0.3,0.1,0.5,0.3,0.8,0.6c0.2,0.3,0.3,0.7,0.3,1.1
			c0,0.3-0.1,0.7-0.2,0.9c-0.1,0.3-0.3,0.5-0.5,0.8l2.6,0L555.6,300.3z M551.4,297.6c0.3,0,0.6,0,0.7-0.1c0.1-0.1,0.2-0.2,0.2-0.3
			c0-0.2-0.1-0.3-0.2-0.3c-0.1-0.1-0.3-0.1-0.7-0.1l-4.4,0c-0.4,0-0.6,0-0.7,0.1c-0.1,0.1-0.2,0.2-0.2,0.3c0,0.2,0.1,0.3,0.2,0.4
			c0.1,0.1,0.4,0.1,0.9,0.1L551.4,297.6z"/>
		<path class="st3" d="M550.3,303.8l0-2.6l0.6,0c0.7,0,1.2,0.1,1.6,0.2c0.4,0.2,0.7,0.5,1,1s0.4,1.1,0.4,1.9c0,0.9-0.2,1.6-0.5,2.1
			c-0.3,0.5-0.7,0.8-1.2,0.9c-0.5,0.1-1.5,0.2-2.9,0.2l-4.5,0l0-2.7l0.8,0c-0.3-0.2-0.6-0.4-0.7-0.6c-0.2-0.3-0.2-0.6-0.2-0.9
			c0-0.5,0.1-0.9,0.4-1.3c0.3-0.4,0.9-0.6,1.8-0.6l0.7,0c0.7,0,1.1,0.1,1.4,0.3c0.2,0.2,0.5,0.7,0.9,1.6c0.4,0.9,0.6,1.4,0.7,1.4
			c0.1,0.1,0.4,0.1,0.7,0.1c0.5,0,0.8,0,0.9-0.1c0.1-0.1,0.2-0.2,0.2-0.4c0-0.2-0.1-0.3-0.2-0.3c-0.1,0-0.4-0.1-0.9-0.1L550.3,303.8
			z M549,304.6c-0.3-0.4-0.6-0.7-0.8-0.8c-0.2-0.1-0.5-0.1-0.9-0.1c-0.5,0-0.8,0-0.9,0.1c-0.1,0.1-0.2,0.2-0.2,0.4
			c0,0.2,0.1,0.3,0.2,0.3c0.1,0.1,0.4,0.1,0.8,0.1L549,304.6z"/>
		<path class="st3" d="M552.5,316.9l0-2.7l0.8,0c0.4,0,0.6,0,0.7-0.1c0.1-0.1,0.2-0.2,0.2-0.3c0-0.2-0.1-0.3-0.2-0.4
			c-0.1-0.1-0.4-0.1-0.6-0.1c-0.4,0-0.6,0.1-0.8,0.2s-0.4,0.4-0.7,0.8c-0.7,1.3-1.4,2.1-1.8,2.4c-0.5,0.3-1.3,0.5-2.3,0.5
			c-0.8,0-1.4-0.1-1.7-0.3c-0.4-0.2-0.7-0.5-0.9-1.1c-0.3-0.5-0.4-1.1-0.4-1.8c0-0.8,0.1-1.4,0.4-2c0.3-0.5,0.7-0.9,1.1-1.1
			s1.1-0.3,1.9-0.3l0.7,0l0,2.7l-1.3,0c-0.4,0-0.7,0-0.8,0.1c-0.1,0.1-0.2,0.2-0.2,0.4c0,0.2,0.1,0.3,0.2,0.4s0.4,0.1,0.7,0.1
			c0.6,0,1.1-0.1,1.3-0.3c0.2-0.2,0.5-0.6,1-1.3c0.5-0.7,0.8-1.2,1-1.4c0.2-0.2,0.5-0.4,0.9-0.6s0.9-0.2,1.4-0.2
			c0.8,0,1.5,0.1,1.8,0.3c0.4,0.2,0.7,0.6,0.9,1c0.2,0.5,0.3,1.1,0.3,1.7c0,0.7-0.1,1.4-0.3,1.9c-0.2,0.5-0.5,0.9-0.9,1
			c-0.4,0.2-1,0.3-1.9,0.3L552.5,316.9z"/>
		<path class="st3" d="M546.8,323.9l-1.9,0l0-6l1.6,0c2.9,1.8,4.8,2.8,5.4,3.2c0.7,0.3,1.2,0.5,1.6,0.5c0.3,0,0.5-0.1,0.7-0.2
			c0.1-0.1,0.2-0.3,0.2-0.5c0-0.2-0.1-0.4-0.2-0.5c-0.2-0.1-0.5-0.2-1-0.1l-1,0l0-2.5l0.4,0c0.6,0,1.1,0,1.5,0.1s0.7,0.2,1.1,0.5
			c0.3,0.2,0.6,0.6,0.8,1s0.3,0.9,0.3,1.4c0,1.1-0.3,1.9-0.8,2.5c-0.5,0.6-1.2,0.8-2,0.9c-0.6,0-1.3-0.1-2-0.5
			c-0.7-0.3-2.2-1.2-4.5-2.8L546.8,323.9z"/>
		<path class="st3" d="M552.3,331.4l-3.7,0c-0.8,0-1.4,0-1.8-0.1c-0.4-0.1-0.7-0.3-1.1-0.6c-0.3-0.3-0.6-0.6-0.7-1
			c-0.1-0.4-0.2-0.9-0.2-1.4c0-0.7,0.1-1.2,0.2-1.6c0.1-0.4,0.4-0.8,0.7-1c0.3-0.3,0.7-0.4,1-0.6c0.4-0.1,0.9-0.2,1.7-0.2l3.8,0
			c1,0,1.8,0.1,2.3,0.2c0.5,0.2,0.9,0.5,1.2,1c0.3,0.5,0.5,1.1,0.5,1.9c0,0.6-0.1,1.1-0.3,1.6s-0.5,0.8-0.8,1.1
			c-0.3,0.3-0.6,0.4-1,0.5C553.7,331.4,553.1,331.4,552.3,331.4z M553.2,328.7c0.6,0,0.9,0,1.1-0.1c0.1-0.1,0.2-0.2,0.2-0.4
			c0-0.2-0.1-0.3-0.2-0.4c-0.2-0.1-0.5-0.1-1.1-0.1l-5.4,0c-0.6,0-1,0-1.2,0.1c-0.1,0.1-0.2,0.2-0.2,0.4c0,0.2,0.1,0.3,0.2,0.4
			c0.2,0.1,0.5,0.1,1,0.1L553.2,328.7z"/>
		<path class="st3" d="M552.3,338.9l-3.7,0c-0.8,0-1.4,0-1.8-0.1c-0.4-0.1-0.7-0.3-1.1-0.6c-0.3-0.3-0.6-0.6-0.7-1
			c-0.1-0.4-0.2-0.9-0.2-1.4c0-0.7,0.1-1.2,0.2-1.6c0.1-0.4,0.4-0.8,0.7-1c0.3-0.2,0.7-0.4,1-0.6c0.4-0.1,0.9-0.2,1.7-0.2l3.8,0
			c1,0,1.8,0.1,2.3,0.2c0.5,0.2,0.9,0.5,1.2,1c0.3,0.5,0.5,1.1,0.5,1.9c0,0.6-0.1,1.1-0.3,1.6s-0.5,0.8-0.8,1.1
			c-0.3,0.2-0.6,0.4-1,0.5C553.8,338.8,553.2,338.9,552.3,338.9z M553.2,336.1c0.6,0,0.9,0,1.1-0.1c0.1-0.1,0.2-0.2,0.2-0.4
			c0-0.2-0.1-0.3-0.2-0.4c-0.2-0.1-0.5-0.1-1.1-0.1l-5.4,0c-0.6,0-1,0-1.2,0.1c-0.1,0.1-0.2,0.2-0.2,0.4c0,0.2,0.1,0.3,0.2,0.4
			c0.2,0.1,0.5,0.1,1,0.1L553.2,336.1z"/>
		<path class="st3" d="M552.5,346.3l-3.7,0c-0.8,0-1.4,0-1.8-0.1c-0.4-0.1-0.7-0.3-1.1-0.6c-0.3-0.3-0.6-0.6-0.7-1
			c-0.1-0.4-0.2-0.9-0.2-1.4c0-0.7,0.1-1.2,0.2-1.6c0.1-0.4,0.4-0.8,0.7-1c0.3-0.3,0.7-0.4,1-0.6c0.4-0.1,0.9-0.2,1.7-0.2l3.8,0
			c1,0,1.8,0.1,2.3,0.2c0.5,0.2,0.9,0.5,1.2,1c0.3,0.5,0.5,1.1,0.5,1.9c0,0.6-0.1,1.1-0.3,1.6s-0.5,0.8-0.8,1.1
			c-0.3,0.2-0.6,0.4-1,0.5C553.9,346.3,553.3,346.3,552.5,346.3z M553.4,343.6c0.6,0,0.9,0,1.1-0.1c0.1-0.1,0.2-0.2,0.2-0.4
			c0-0.2-0.1-0.3-0.2-0.4c-0.2-0.1-0.5-0.1-1.1-0.1l-5.4,0c-0.6,0-1,0-1.2,0.1c-0.1,0.1-0.2,0.2-0.2,0.4c0,0.2,0.1,0.3,0.2,0.4
			c0.2,0.1,0.5,0.1,1,0.1L553.4,343.6z"/>
	</g>
	<g>
		<path class="st3" d="M697.4,265l-19.2,0.2l-0.1-5l8.1-0.1v-1.5l-8.1,0.1l-0.1-5l19.2-0.2l0.1,5l-6.9,0.1v1.5l6.9-0.1L697.4,265z"
			/>
		<path class="st3" d="M688.6,277.8h-3.9c-1.4,0-2.5,0-3.1-0.2c-0.7-0.1-1.3-0.4-1.9-0.9c-0.6-0.5-1-1.1-1.3-1.8
			c-0.3-0.7-0.4-1.6-0.4-2.5c0-1.1,0.1-2,0.3-2.7s0.6-1.3,1-1.7c0.5-0.4,1-0.7,1.7-0.9c0.7-0.2,1.7-0.3,3-0.3h4
			c1.5,0,2.6,0.1,3.4,0.4c0.8,0.3,1.5,0.9,2,1.7c0.5,0.8,0.8,1.9,0.8,3.1c0,1.1-0.1,2-0.4,2.8c-0.3,0.8-0.7,1.4-1.2,1.8
			s-1,0.7-1.6,0.9C690.6,277.7,689.7,277.8,688.6,277.8z M689.7,273c0.8,0,1.3-0.1,1.5-0.1c0.2-0.1,0.3-0.3,0.3-0.6
			c0-0.3-0.1-0.5-0.3-0.6s-0.7-0.1-1.5-0.1l-7.1,0.1c-0.7,0-1.2,0.1-1.5,0.2c-0.2,0.1-0.3,0.3-0.3,0.6c0,0.3,0.1,0.5,0.3,0.6
			s0.6,0.1,1.3,0.1L689.7,273z"/>
		<path class="st3" d="M696.3,284.3h-2.5v1.3h-2.5v-1.3l-8.4,0.1c-1,0-1.6,0.1-1.7,0.2c-0.1,0.1-0.2,0.6-0.2,1.3h-2.5V284
			c0-1.1,0-1.9,0.1-2.3c0.1-0.5,0.3-0.9,0.6-1.2c0.3-0.4,0.7-0.6,1.1-0.7c0.4-0.1,1.4-0.1,3-0.2l8-0.1v-1h2.5v1h2.5L696.3,284.3z"/>
		<path class="st3" d="M698,309.9l-19.2-2l-0.1-6.2c2.9-0.6,6.3-1.1,10-1.6c-1.6-0.2-5-0.6-10.1-1.3l-0.1-6.2l19.2-2.5l0.1,4.8
			l-6.7,0.6l-6.5,0.6c3.4,0.1,7.7,0.6,13.2,1.2l0.1,5.2c-0.6,0.1-2.7,0.3-6.3,0.6l-7.3,0.6c4.7,0.2,9.2,0.6,13.7,1.2L698,309.9z"/>
		<path class="st3" d="M698.1,315.5l-4.3,0.1c0.4,0.4,0.7,0.8,0.9,1.3s0.3,1,0.3,1.5c0,0.8-0.2,1.6-0.6,2.1s-0.9,1-1.5,1.1
			s-1.6,0.2-3,0.2l-10.8,0.1l-0.1-4.8l11.1-0.1c0.9,0,1.5-0.1,1.8-0.2s0.4-0.3,0.4-0.6c0-0.3-0.1-0.5-0.4-0.6
			c-0.3-0.1-0.8-0.1-1.6-0.1l-11.2,0.1l-0.1-4.8l19.2-0.2L698.1,315.5z"/>
		<path class="st3" d="M686.7,334.4l-0.1-6.2h-3.4c-0.7,0-1.2,0.1-1.4,0.2s-0.3,0.3-0.3,0.6c0,0.4,0.1,0.6,0.4,0.7
			c0.3,0.1,0.8,0.2,1.6,0.2h2.1l0.1,4.5h-1.2c-1,0-1.7,0-2.2-0.2c-0.5-0.1-1.1-0.4-1.7-0.8c-0.6-0.4-1.1-1-1.4-1.7
			c-0.3-0.7-0.5-1.6-0.5-2.6s0.1-1.9,0.4-2.7c0.3-0.8,0.7-1.4,1.2-1.8s1.1-0.7,1.7-0.9c0.6-0.2,1.5-0.3,2.7-0.3l4.6-0.1
			c1.4,0,2.5,0.2,3.3,0.5c0.8,0.4,1.4,1,1.8,1.8c0.4,0.8,0.7,1.8,0.7,2.9c0,1.3-0.2,2.5-0.7,3.3s-1.2,1.5-2,1.9s-2,0.6-3.5,0.6
			L686.7,334.4z M689.2,329.6h1.2c0.8,0,1.3-0.1,1.6-0.1s0.4-0.3,0.3-0.5c0-0.3-0.1-0.5-0.3-0.6s-0.7-0.1-1.6-0.1h-1.2V329.6z"/>
		<path class="st3" d="M686.8,346.8l-0.1-6.2h-3.4c-0.7,0-1.2,0.1-1.4,0.2s-0.3,0.3-0.3,0.6c0,0.4,0.1,0.6,0.4,0.7
			c0.3,0.1,0.8,0.2,1.6,0.2h2.1l0.1,4.5h-1.2c-1,0-1.7,0-2.2-0.2c-0.5-0.1-1.1-0.4-1.7-0.8c-0.6-0.4-1.1-1-1.4-1.7
			c-0.3-0.7-0.5-1.6-0.5-2.6s0.1-1.9,0.4-2.7c0.3-0.8,0.7-1.4,1.2-1.8s1.1-0.7,1.7-0.9s1.5-0.3,2.7-0.3l4.6-0.1
			c1.4,0,2.5,0.2,3.3,0.5c0.8,0.4,1.4,1,1.8,1.8c0.4,0.8,0.7,1.8,0.7,2.9c0,1.3-0.2,2.5-0.7,3.3s-1.2,1.5-2,1.9s-2,0.6-3.5,0.6
			L686.8,346.8z M689.3,342h1.2c0.8,0,1.3-0.1,1.6-0.1s0.4-0.3,0.3-0.5c0-0.3-0.1-0.5-0.3-0.6s-0.7-0.1-1.6-0.1h-1.2V342z"/>
		<path class="st3" d="M698.5,353.2l-19.2,0.2l-0.1-4.9l19.2-0.2L698.5,353.2z"/>
		<path class="st3" d="M690.2,364.8l-0.1-4.2h0.9c0.7,0,1.2-0.1,1.4-0.1c0.2-0.1,0.3-0.3,0.3-0.6c0-0.3-0.1-0.5-0.3-0.6
			s-0.4-0.2-0.8-0.2c-0.5,0-0.8,0-1.1,0.1c-0.2,0.1-0.5,0.3-0.7,0.6c-0.3,0.3-0.6,1-1.1,2.1c-0.7,1.4-1.3,2.3-1.9,2.8
			c-0.6,0.4-1.5,0.7-2.6,0.7c-1.3,0-2.2-0.1-2.9-0.5s-1.2-0.9-1.5-1.6c-0.4-0.8-0.5-1.7-0.6-2.8c0-1.2,0.2-2.3,0.5-3.1
			c0.4-0.9,0.9-1.5,1.5-1.8s1.6-0.5,2.9-0.5h0.8l0.1,4.2h-1c-0.8,0-1.4,0.1-1.6,0.2c-0.3,0.1-0.4,0.3-0.4,0.6c0,0.3,0.1,0.6,0.3,0.7
			s0.5,0.2,1.1,0.2c0.8,0,1.2-0.1,1.4-0.3c0.2-0.2,0.7-1.1,1.6-2.8c0.8-1.4,1.5-2.3,2.1-2.6c0.6-0.3,1.4-0.5,2.3-0.5
			c1.3,0,2.2,0.1,2.8,0.5c0.6,0.3,1.1,0.9,1.4,1.7c0.3,0.8,0.5,1.7,0.5,2.8c0,1-0.1,1.9-0.4,2.7c-0.3,0.7-0.6,1.3-1,1.7
			c-0.4,0.4-0.8,0.6-1.2,0.7s-1,0.1-1.7,0.1L690.2,364.8z"/>
	</g>
	<g>
		<path class="st3" d="M669.9,262v1.7c0,1.2,0,2-0.1,2.4s-0.3,0.8-0.7,1c-0.4,0.3-1,0.4-1.8,0.4c-0.7,0-1.2-0.1-1.5-0.3
			s-0.4-0.5-0.5-1.1c-0.1,0.5-0.3,0.8-0.5,1s-0.4,0.3-0.6,0.3c-0.2,0-0.6,0.1-1.4,0.1h-2.5v-2.3h3.2c0.5,0,0.8,0,0.9-0.1
			s0.2-0.3,0.2-0.6h-4.3V262H669.9z M668.3,264.5h-2.1c0,0.3,0,0.5,0.1,0.6s0.3,0.2,0.7,0.2h0.5c0.3,0,0.5-0.1,0.6-0.2
			C668.2,265,668.3,264.8,668.3,264.5z"/>
		<path class="st3" d="M665.2,270.6v-2.2h0.5c0.6,0,1.1,0.1,1.4,0.2s0.6,0.4,0.9,0.8c0.3,0.4,0.4,1,0.4,1.6c0,0.8-0.1,1.4-0.4,1.8
			s-0.6,0.7-1,0.7c-0.4,0.1-1.3,0.1-2.5,0.1h-3.9v-2.3h0.7c-0.3-0.1-0.5-0.3-0.6-0.6c-0.1-0.2-0.2-0.5-0.2-0.8
			c0-0.4,0.1-0.8,0.3-1.1c0.2-0.3,0.7-0.5,1.5-0.5h0.6c0.6,0,1,0.1,1.2,0.3c0.2,0.2,0.5,0.6,0.8,1.4s0.5,1.2,0.6,1.2
			c0.1,0.1,0.3,0.1,0.6,0.1c0.4,0,0.7,0,0.8-0.1s0.2-0.2,0.2-0.3c0-0.2-0.1-0.3-0.2-0.3s-0.4-0.1-0.8-0.1L665.2,270.6z M664.2,271.3
			c-0.3-0.4-0.5-0.6-0.7-0.7s-0.5-0.1-0.8-0.1c-0.4,0-0.7,0-0.8,0.1s-0.2,0.2-0.2,0.3c0,0.1,0,0.2,0.1,0.3s0.3,0.1,0.7,0.1
			L664.2,271.3z"/>
		<path class="st3" d="M665.4,279.7v-2.2h0.9c0.3,0,0.5,0,0.6-0.1s0.2-0.1,0.2-0.3c0-0.1-0.1-0.2-0.1-0.3s-0.3-0.1-0.7-0.1h-3.7
			c-0.3,0-0.5,0-0.6,0.1s-0.2,0.2-0.2,0.3c0,0.2,0.1,0.3,0.2,0.3c0.1,0.1,0.4,0.1,0.8,0.1h0.9v2.1c-0.6,0-1.1,0-1.4-0.1
			c-0.3,0-0.6-0.2-1-0.4s-0.6-0.5-0.7-0.9c-0.2-0.4-0.3-0.8-0.3-1.3c0-0.7,0.1-1.2,0.3-1.6s0.5-0.7,1-0.8c0.4-0.2,1-0.3,1.8-0.3h2.2
			c0.7,0,1.2,0.1,1.5,0.2s0.6,0.4,0.9,0.8c0.3,0.4,0.4,1,0.4,1.6s-0.1,1.1-0.4,1.6c-0.3,0.4-0.6,0.7-1,0.9
			C666.7,279.6,666.1,279.7,665.4,279.7z"/>
		<path class="st3" d="M664.4,285.8v-3.1h-1.7c-0.4,0-0.6,0-0.7,0.1c-0.1,0.1-0.2,0.1-0.1,0.3c0,0.2,0.1,0.3,0.2,0.4
			c0.1,0.1,0.4,0.1,0.8,0.1h1v2.2h-0.6c-0.5,0-0.9,0-1.1-0.1c-0.3-0.1-0.5-0.2-0.8-0.4c-0.3-0.2-0.5-0.5-0.7-0.8
			c-0.1-0.3-0.2-0.8-0.2-1.3s0.1-0.9,0.2-1.3c0.1-0.4,0.3-0.7,0.6-0.9c0.2-0.2,0.5-0.4,0.8-0.4s0.7-0.1,1.3-0.1h2.3
			c0.7,0,1.2,0.1,1.6,0.3c0.4,0.2,0.7,0.5,0.9,0.9s0.3,0.9,0.3,1.4c0,0.7-0.1,1.2-0.4,1.6c-0.2,0.4-0.6,0.7-1,0.9s-1,0.3-1.8,0.3
			L664.4,285.8z M665.6,283.4h0.6c0.4,0,0.7,0,0.8-0.1c0.1,0,0.2-0.1,0.2-0.3c0-0.2-0.1-0.3-0.2-0.3s-0.4-0.1-0.8-0.1h-0.6V283.4z"
			/>
		<path class="st3" d="M665.5,291.8v-2.2h0.9c0.3,0,0.5,0,0.6-0.1s0.2-0.1,0.2-0.3c0-0.1-0.1-0.2-0.1-0.3s-0.3-0.1-0.7-0.1h-3.7
			c-0.3,0-0.5,0-0.6,0.1s-0.2,0.2-0.2,0.3c0,0.2,0.1,0.3,0.2,0.3c0.1,0.1,0.4,0.1,0.8,0.1h0.9v2.1c-0.6,0-1.1,0-1.4-0.1
			s-0.6-0.2-1-0.4s-0.6-0.5-0.7-0.9c-0.2-0.4-0.3-0.8-0.3-1.3c0-0.7,0.1-1.2,0.3-1.6s0.5-0.7,1-0.8c0.4-0.2,1-0.3,1.8-0.3h2.2
			c0.7,0,1.2,0.1,1.5,0.2s0.6,0.4,0.9,0.8c0.3,0.4,0.4,1,0.4,1.6s-0.1,1.1-0.4,1.6c-0.3,0.4-0.6,0.7-1,0.9
			C666.8,291.7,666.2,291.8,665.5,291.8z"/>
		<path class="st3" d="M665.5,294.6v-2.2h0.5c0.6,0,1.1,0.1,1.4,0.2s0.6,0.4,0.9,0.8c0.3,0.4,0.4,1,0.4,1.6c0,0.8-0.1,1.4-0.4,1.8
			s-0.6,0.7-1,0.7c-0.4,0.1-1.3,0.1-2.5,0.1h-3.9v-2.3h0.7c-0.3-0.1-0.5-0.3-0.6-0.6s-0.2-0.5-0.2-0.8c0-0.4,0.1-0.8,0.3-1.1
			c0.2-0.3,0.7-0.5,1.5-0.5h0.6c0.6,0,1,0.1,1.2,0.3s0.5,0.6,0.8,1.4s0.5,1.2,0.6,1.2c0.1,0.1,0.3,0.1,0.6,0.1c0.4,0,0.7,0,0.8-0.1
			s0.2-0.2,0.2-0.3c0-0.2-0.1-0.3-0.2-0.3s-0.4-0.1-0.8-0.1L665.5,294.6z M664.4,295.4c-0.3-0.4-0.5-0.6-0.7-0.7s-0.5-0.1-0.8-0.1
			c-0.4,0-0.7,0-0.8,0.1s-0.2,0.2-0.2,0.3c0,0.1,0,0.2,0.1,0.3s0.3,0.1,0.7,0.1L664.4,295.4z"/>
		<path class="st3" d="M668.5,300.9l-1-0.1c0.7,0.3,1.1,0.8,1.2,1.5H666c0-0.4-0.1-0.8-0.2-1s-0.3-0.3-0.5-0.4
			c-0.2,0-0.7-0.1-1.4-0.1h-3.1v-2.4l7.8-0.1L668.5,300.9z"/>
		<path class="st3" d="M666.2,310.8v-2.5h1.6c0.5,0,0.8,0,0.9-0.1c0.1-0.1,0.2-0.2,0.2-0.3c0-0.2-0.1-0.3-0.2-0.4
			c-0.1-0.1-0.5-0.1-0.9-0.1h-4.4c-0.5,0-0.8,0-0.9,0.1c-0.1,0.1-0.2,0.2-0.2,0.4c0,0.2,0.1,0.3,0.2,0.4c0.1,0.1,0.5,0.1,1,0.1h1.2
			v2.5h-0.4c-1,0-1.7-0.1-2.1-0.2s-0.8-0.4-1.1-0.9s-0.5-1.1-0.5-1.8c0-0.7,0.1-1.3,0.4-1.8c0.3-0.5,0.6-0.8,1.1-0.9
			c0.5-0.2,1.2-0.2,2.1-0.2h2.8c0.7,0,1.2,0,1.5,0.1c0.3,0,0.7,0.2,1,0.4c0.3,0.2,0.6,0.5,0.8,1s0.3,0.9,0.3,1.4
			c0,0.7-0.1,1.3-0.4,1.8c-0.3,0.5-0.6,0.8-1,0.9c-0.4,0.2-1.1,0.2-2,0.2L666.2,310.8z"/>
		<path class="st3" d="M665.9,317H664c-0.7,0-1.2,0-1.5-0.1s-0.6-0.2-0.9-0.4c-0.3-0.2-0.5-0.5-0.6-0.9s-0.2-0.8-0.2-1.2
			c0-0.5,0-1,0.2-1.3s0.3-0.6,0.5-0.9c0.2-0.2,0.5-0.3,0.8-0.4s0.8-0.1,1.5-0.1h2c0.7,0,1.3,0.1,1.7,0.2c0.4,0.2,0.7,0.4,1,0.8
			c0.2,0.4,0.4,0.9,0.4,1.6c0,0.5-0.1,1-0.2,1.4c-0.2,0.4-0.4,0.7-0.6,0.9s-0.5,0.4-0.8,0.4C666.9,316.9,666.5,317,665.9,317z
			 M666.5,314.6c0.4,0,0.7,0,0.8-0.1c0.1,0,0.2-0.1,0.2-0.3c0-0.1-0.1-0.2-0.2-0.3s-0.4-0.1-0.8-0.1H663c-0.4,0-0.6,0-0.7,0.1
			c-0.1,0-0.2,0.1-0.2,0.3c0,0.1,0.1,0.2,0.2,0.3c0.1,0,0.3,0.1,0.7,0.1H666.5z"/>
		<path class="st3" d="M670.4,320.1l-9.5,0.1v-2.4l9.5-0.1V320.1z"/>
		<path class="st3" d="M670.4,323.4l-9.5,0.1v-2.4l9.5-0.1V323.4z"/>
		<path class="st3" d="M664.8,329.7v-3.1h-1.7c-0.4,0-0.6,0-0.7,0.1s-0.2,0.1-0.2,0.3c0,0.2,0.1,0.3,0.2,0.4
			c0.1,0.1,0.4,0.1,0.8,0.1h1v2.2h-0.6c-0.5,0-0.8,0-1.1-0.1s-0.5-0.2-0.8-0.4c-0.3-0.2-0.5-0.5-0.7-0.8s-0.2-0.8-0.2-1.3
			s0.1-0.9,0.2-1.3c0.1-0.4,0.3-0.7,0.6-0.9c0.2-0.2,0.5-0.4,0.8-0.4c0.3-0.1,0.7-0.1,1.3-0.1h2.3c0.7,0,1.2,0.1,1.6,0.3
			c0.4,0.2,0.7,0.5,0.9,0.9s0.3,0.9,0.3,1.4c0,0.7-0.1,1.2-0.4,1.6c-0.2,0.4-0.6,0.7-1,0.9c-0.4,0.2-1,0.3-1.8,0.3L664.8,329.7z
			 M666,327.3h0.6c0.4,0,0.7,0,0.8-0.1s0.2-0.1,0.2-0.3c0-0.2-0.1-0.3-0.2-0.3s-0.4-0.1-0.8-0.1H666V327.3z"/>
		<path class="st3" d="M665.9,335.7v-2.2h0.9c0.3,0,0.5,0,0.6-0.1s0.2-0.1,0.2-0.3c0-0.1-0.1-0.2-0.1-0.3c-0.1,0-0.3-0.1-0.7-0.1
			h-3.7c-0.3,0-0.5,0-0.6,0.1s-0.2,0.2-0.2,0.3c0,0.2,0.1,0.3,0.2,0.3c0.1,0.1,0.4,0.1,0.8,0.1h0.9v2.1c-0.6,0-1.1,0-1.4-0.1
			s-0.6-0.2-1-0.4c-0.3-0.2-0.6-0.5-0.7-0.9c-0.2-0.4-0.3-0.8-0.3-1.3c0-0.7,0.1-1.2,0.3-1.6s0.5-0.7,1-0.8c0.4-0.2,1-0.3,1.8-0.3
			h2.2c0.7,0,1.2,0.1,1.5,0.2s0.6,0.4,0.9,0.8s0.4,1,0.4,1.6s-0.1,1.1-0.4,1.6c-0.3,0.4-0.6,0.7-1,0.9
			C667.2,335.6,666.6,335.7,665.9,335.7z"/>
		<path class="st3" d="M669.9,338.8h-1.2v0.6h-1.2v-0.6h-4.2c-0.5,0-0.8,0-0.9,0.1c-0.1,0.1-0.1,0.3-0.1,0.7H661v-1
			c0-0.5,0-0.9,0.1-1.2c0-0.2,0.1-0.4,0.3-0.6s0.3-0.3,0.6-0.3s0.7-0.1,1.5-0.1h3.9v-0.5h1.2v0.5h1.2L669.9,338.8z"/>
		<path class="st3" d="M668.9,342.4l-7.8,0.1v-2.4l7.8-0.1V342.4z M670.6,342.4h-1.2V340h1.2V342.4z"/>
		<path class="st3" d="M666.2,348.7h-1.9c-0.7,0-1.2,0-1.5-0.1s-0.6-0.2-0.9-0.4c-0.3-0.2-0.5-0.5-0.6-0.9s-0.2-0.8-0.2-1.2
			c0-0.5,0-1,0.2-1.3s0.3-0.6,0.5-0.9c0.2-0.2,0.5-0.3,0.8-0.4s0.8-0.1,1.5-0.1h2c0.7,0,1.3,0.1,1.7,0.2c0.4,0.2,0.7,0.4,1,0.8
			c0.2,0.4,0.4,0.9,0.4,1.6c0,0.5-0.1,1-0.2,1.4c-0.2,0.4-0.4,0.7-0.6,0.9s-0.5,0.4-0.8,0.4C667.2,348.6,666.8,348.7,666.2,348.7z
			 M666.8,346.3c0.4,0,0.7,0,0.8-0.1s0.2-0.1,0.2-0.3c0-0.1-0.1-0.2-0.2-0.3s-0.4-0.1-0.8-0.1h-3.5c-0.4,0-0.6,0-0.7,0.1
			c-0.1,0-0.2,0.1-0.2,0.3c0,0.1,0.1,0.2,0.2,0.3c0.1,0,0.3,0.1,0.7,0.1H666.8z"/>
		<path class="st3" d="M669,351.8h-0.7c0.3,0.2,0.5,0.4,0.6,0.6s0.2,0.5,0.2,0.9s-0.1,0.7-0.3,1s-0.4,0.4-0.7,0.5s-0.8,0.1-1.5,0.1
			h-5.4v-2.4h5.4c0.5,0,0.9,0,1-0.1c0.1,0,0.2-0.1,0.2-0.3c0-0.2-0.1-0.3-0.2-0.3c-0.1,0-0.5-0.1-1.1-0.1h-5.3v-2.4l7.8-0.1V351.8z"
			/>
	</g>
	<g>
		<path class="st4" d="M628.2,178.8c1.5,4.9,1.1,9.5,0,14.3c0.2-0.2,0.3-0.3,0.4-0.4c4.7-5.2,10.7-7.5,18-6.6
			c6.4,0.7,11.9,3.8,16.2,9c2.5,3.1,4.2,6.5,5,10.2c0.8,3.5,0.7,6.9-0.2,10.3c-1.2,4.7-3.9,8.3-7.7,11c-2.8,2-6.1,3.1-9.7,3.5
			c-4.6,0.4-9.1-0.5-13.3-2.8c-5-2.7-8.7-6.6-11-11.8c-1-2.2-1.7-4.5-2.2-6.8c-0.5-2.5,0-5,0.6-7.4c0.8-3.1,1.8-6.1,2.6-9.2
			c0.8-3.4,1.2-6.8,0.5-10.4c-0.2-1.1-0.6-2.2-0.9-3.2c-0.3-1-0.1-1.3,0.9-1.1c1.7,0.3,3.3,0.9,4.7,2.1c0.3,0.3,0.5,0.6,0.7,0.9
			c0.3,0.4,0.4,0.7,0,1s-0.8,0.1-1.1-0.3c-0.8-1.1-2-1.7-3.2-2.1C628.5,178.8,628.4,178.8,628.2,178.8z M662.1,222.9
			c7.6-8.5,6.1-21.4-2.3-29.2c-9.2-8.6-22-8.2-29.3-0.7c-8,8.3-6.4,21.6,2.1,29.5C641.6,230.8,654.5,230.8,662.1,222.9z"/>
		<path class="st4" d="M644.8,164.7c0.4,0.6,0.7,1.1,1,1.6c1,1.8,0.5,3.3-1.3,3.8c-2.5,0.8-4.9,0.2-7.3-1.1
			c-2.3-1.3-4.2-3.2-6.1-5.1c0.2,0.6,0.4,1.2,0.6,1.7c0.8,1.5,1.8,2.8,3.1,4s2.4,2.5,2.9,4.3c0.6,2.2,0.2,4.2-0.4,6.2
			c-0.6,1.8-1.7,3.4-2.8,4.9c-0.3,0.4-0.6,0.7-1.1,0.3c-0.6-0.4-0.3-0.9,0-1.3c1.4-1.8,2.5-3.7,3-6c0.6-2.6,0.1-5-2.1-7.1
			c-1.4-1.4-2.8-2.8-3.7-4.5c-0.7-1.2-1.1-2.5-0.9-3.8c0.1-0.5,0.1-1.2,0.8-1.3c0.6-0.1,1,0.5,1.3,0.9c1.8,2.3,3.8,4.3,6.4,5.7
			c1.7,1,3.6,1.4,5.4,0.9c1.5-0.3,1.8-1.1,0.8-2.4c-0.6-0.8-1.3-1.5-1.9-2.2c-0.2-0.2-0.4-0.7-0.3-0.8c0.1-0.2,0.5-0.4,0.8-0.4
			c3.4,0.4,6.5,1.6,9,4.4c1.7,1.9,2.6,4.1,3.2,6.4c0.7,2.7,1.4,5.4,2.2,8c0.4,1.4,1.4,2.5,2.7,3.2c0.2,0.1,0.3,0.2,0.5,0.3
			c0.5,0.3,0.7,0.6,0.5,1.1c-0.3,0.5-0.7,0.4-1.1,0.1c-2.2-1.2-3.6-2.9-4.2-5.2c-0.7-2.4-1.3-4.8-1.9-7.2c-0.7-2.7-1.7-5.2-4-7.1
			C648.3,165.9,646.6,165.2,644.8,164.7z"/>
		<path class="st4" d="M661.4,178.7c0.2,1,0.7,1.9,1.5,2.7c1,0.9,2,1.9,2.5,3.2c0.5,1.4,0.4,2.7-0.1,3.9c-0.5,1.1-1.5,1.4-2.6,1.5
			c-0.6,0-1.2,0-1.8-0.2c-0.3-0.1-0.5-0.5-0.7-0.7c0.2-0.2,0.5-0.5,0.8-0.6c0.2-0.1,0.5,0,0.8,0.1c2.1,0.2,2.8-0.8,2.5-2.9
			c-0.1-1.1-0.7-2-1.6-2.8c-1.5-1.3-2.6-2.8-2.7-4.7c-0.1-0.9,0.2-1.9,0.4-2.8c0-0.2,0.4-0.4,0.6-0.4c0.2,0.1,0.6,0.4,0.7,0.6
			c0.6,2.3,2.1,3.9,4.1,4.9c6.5,3.3,11.4,12.7,7.9,20.6c-0.4,0.9-0.9,1.8-1.4,2.7c-0.2,0.4-0.6,0.6-1.1,0.3s-0.4-0.7-0.2-1.1
			c1.1-1.7,1.9-3.5,2.2-5.6c0.7-5.1-1.1-9.5-4.9-13.4c-0.7-0.8-1.7-1.3-2.5-2c-0.8-0.6-1.7-1-2.4-1.6
			C662.7,180.1,662.1,179.3,661.4,178.7z"/>
		<path class="st4" d="M644.6,177.6c0.2,0.3,0.4,0.7,0.6,1c1.2,1.9,1,4.2-0.4,5.7c-0.1,0.1-0.2,0.2-0.3,0.3c-0.3,0-0.7,0.1-1,0
			c-0.4-0.3-0.3-0.7,0-1c0.4-0.5,0.8-1,1-1.6c0.3-0.9,0-1.8-0.5-2.8s-1-2.1-1.3-3.2c-0.1-0.5,0.1-1.2,0.4-1.7c0.4-0.6,1-0.5,1.4,0.2
			c0.8,1.5,1.8,3,3.1,4.1c0.7,0.6,1.5,1.1,2.4,1.2c0.3,0,0.7,0.4,0.8,0.7c0.1,0.5-0.3,0.7-0.8,0.7c-1.7-0.1-2.9-1.1-4.1-2.3
			C645.4,178.5,645.1,178,644.6,177.6C644.7,177.6,644.6,177.6,644.6,177.6z"/>
		<path class="st4" d="M661.1,222c-7,7.5-19.5,7.3-27.8-0.4c-8.2-7.7-9.3-20.2-2.2-27.7c7.2-7.6,19.4-7.4,27.8,0.4
			C667.4,202.3,668,214.6,661.1,222z M632.2,194.9c-6.6,7-5.7,18.4,2,25.7c7.4,7,19,7.7,25.9,0.4c6.5-6.9,5.5-18.6-2.1-25.7
			C650.3,188.1,638.8,188,632.2,194.9z"/>
		<path class="st4" d="M656,197.5c6.4,6,7.1,15.6,1.7,21.4c-5.5,5.9-15.1,5.7-21.5-0.3s-7.1-15.6-1.5-21.5
			C640.1,191.3,649.7,191.5,656,197.5z M659.8,210.5c-1.9,0.8-3,0.4-4.2-1.4c-0.1-0.1-0.3-0.3-0.4-0.3c-1.4-0.1-2.8-0.1-4.2-0.2
			c-0.3,0.9-0.5,1.6-0.8,2.3c1,1,2.1,2,3.2,3c0.1,0.1,0.5,0.1,0.7,0.1c1.1-0.3,2.1-0.1,2.9,0.8c0.3,0.4,0.6,0.8,0.9,1.3
			C659,214.7,659.8,212.3,659.8,210.5z M643.5,211.8c-0.9,0.9-1.8,1.9-2.6,2.8c-0.1,0.1-0.1,0.5,0,0.7c0.4,1.1,0.3,2-0.4,2.8
			c-0.4,0.4-0.9,0.6-1.4,0.9c1.8,1.2,3.8,2.1,5.9,2.4c-1-2.2-0.8-2.9,1-4.1c0.1-0.1,0.2-0.2,0.2-0.3c-0.1-1.5-0.1-2.9-0.2-4.2
			C645,212.5,644.3,212.2,643.5,211.8z M656.7,200.2c-1,2.1-1.5,2.4-3.8,1.9c-0.1,0-0.3,0-0.4,0.1c-0.9,1-1.9,2-2.7,2.9
			c0.4,0.8,0.7,1.5,1,2.2c1.3,0,2.6,0.1,4,0.1c0.4,0,0.6-0.1,0.8-0.5c0.5-1.2,1.7-1.7,3-1.3c0.3,0.1,0.6,0.2,1,0.4
			C659,203.9,658.1,202,656.7,200.2z M634.3,199.8c-1.2,1.8-1.8,3.7-2,5.8c1.9-0.9,3.1-0.5,4.3,1.2c0.1,0.1,0.3,0.3,0.5,0.3
			c1.4,0,2.8,0.1,4.2,0.1c0.2-0.6,0.3-1.2,0.6-1.7c0.2-0.4,0.1-0.6-0.2-0.9c-0.9-0.8-1.7-1.6-2.6-2.4c-0.3-0.3-0.5-0.4-1-0.2
			c-1.2,0.4-2.5-0.1-3.2-1.1C634.7,200.6,634.5,200.2,634.3,199.8z M653.3,197c-1.9-1.3-3.9-2.1-6-2.5c1,2.2,0.8,2.8-1,4.2
			c-0.1,0.1-0.2,0.2-0.2,0.3c0.1,1.4,0.2,2.9,0.3,4.2c0.7,0.3,1.3,0.6,1.9,0.8c0.2,0.1,0.5,0,0.6-0.1c0.8-0.8,1.6-1.7,2.4-2.6
			c0.1-0.1,0.2-0.4,0.1-0.6C650.9,198.6,651.3,197.8,653.3,197z M645.1,203.2c-0.1-1.3-0.2-2.7-0.4-4.1c0-0.2-0.2-0.4-0.3-0.5
			c-1.8-1.1-2.3-2.2-1.5-4.2c-2.1,0.3-4,1-5.6,2.3c2.1,0.8,2.7,1.8,2.4,3.9c0,0.2,0.1,0.4,0.2,0.5c1,1,2.1,2,3.1,3
			C643.7,203.7,644.3,203.5,645.1,203.2z M655,219.3c-2.1-0.8-2.7-1.8-2.4-3.8c0-0.1,0-0.4-0.1-0.4c-1.1-1.1-2.2-2.1-3.2-3.1
			c-0.8,0.3-1.4,0.6-1.9,0.8c0.1,1.4,0.1,2.8,0.2,4.1c0,0.2,0.2,0.5,0.4,0.6c0.8,0.4,1.5,1,1.6,1.9c0.1,0.7,0,1.5,0,2.2
			C651.5,221.3,653.3,220.5,655,219.3z M635.5,215.8c0.1-0.1,0.1-0.1,0.1-0.1c0.6-1.9,1.5-2.4,3.5-1.9c0.2,0,0.4,0,0.5-0.1
			c0.8-0.8,1.6-1.7,2.4-2.6c0.1-0.1,0.2-0.4,0.1-0.6c-0.3-0.6-0.6-1.2-0.9-1.8c-1.3,0-2.6,0-3.9-0.1c-0.4,0-0.6,0.1-0.8,0.5
			c-0.5,1.3-1.9,1.8-3.2,1.2c-0.2-0.1-0.4-0.2-0.8-0.3C633.2,212.1,634.2,214,635.5,215.8z M648.7,210.4c1.2-1.3,1.1-3.4-0.4-4.8
			c-1.4-1.3-3.5-1.3-4.8,0c-1.2,1.2-1,3.4,0.4,4.7C645.4,211.7,647.5,211.7,648.7,210.4z M638,200.4c0.5-0.5,0.4-1.3-0.1-1.8
			s-1.4-0.6-1.8-0.1c-0.5,0.5-0.4,1.3,0.1,1.8C636.7,200.9,637.6,200.9,638,200.4z M646,195.2c-0.6-0.5-1.4-0.5-1.8,0
			c-0.4,0.5-0.4,1.3,0.2,1.8c0.6,0.5,1.4,0.6,1.8,0.1C646.7,196.6,646.6,195.7,646,195.2z M658.9,207.3c-0.6-0.5-1.4-0.5-1.8,0
			c-0.4,0.5-0.4,1.3,0.1,1.8s1.4,0.5,1.8,0.1C659.5,208.6,659.5,207.9,658.9,207.3z M656.2,217.5c0.5-0.5,0.4-1.3-0.2-1.8
			c-0.6-0.5-1.4-0.5-1.8,0c-0.4,0.5-0.3,1.3,0.2,1.8S655.8,218,656.2,217.5z M635.1,206.9c-0.6-0.5-1.4-0.6-1.8-0.1
			c-0.4,0.5-0.4,1.3,0.1,1.8s1.4,0.6,1.9,0.1C635.7,208.3,635.6,207.5,635.1,206.9z M637.4,215.4c-0.5,0.5-0.4,1.3,0.1,1.8
			s1.3,0.5,1.8,0s0.5-1.3-0.1-1.8C638.7,214.9,637.9,214.9,637.4,215.4z M654.8,198.8c-0.6-0.5-1.4-0.5-1.8,0
			c-0.4,0.5-0.4,1.3,0.1,1.8s1.3,0.6,1.8,0.1C655.4,200.2,655.3,199.4,654.8,198.8z M647.9,219c-0.5-0.5-1.4-0.5-1.8,0
			c-0.4,0.5-0.4,1.3,0.2,1.8c0.5,0.5,1.4,0.6,1.8,0.1C648.5,220.3,648.5,219.5,647.9,219z"/>
	</g>
	<g>
		<path class="st4" d="M628.6,428.9c1.2-0.4,2.4-0.9,3.2-2.1c0.3-0.4,0.6-0.6,1.1-0.3c0.4,0.3,0.3,0.7,0,1c-0.2,0.3-0.5,0.6-0.7,0.9
			c-1.3,1.3-3,1.8-4.7,2.1c-1,0.2-1.3-0.2-0.9-1.1c0.4-1.1,0.7-2.1,0.9-3.2c0.7-3.6,0.3-7.1-0.5-10.4c-0.8-3.1-1.8-6.1-2.6-9.2
			c-0.6-2.4-1.1-4.9-0.6-7.4c0.4-2.3,1.2-4.6,2.2-6.8c2.2-5.2,6-9.1,11-11.8c4.3-2.3,8.7-3.2,13.3-2.8c3.6,0.3,6.8,1.5,9.7,3.5
			c3.9,2.7,6.5,6.4,7.7,11c0.9,3.3,1,6.8,0.2,10.3c-0.8,3.7-2.5,7.1-5,10.2c-4.3,5.2-9.8,8.3-16.2,9c-7.3,0.8-13.3-1.5-18-6.6
			c-0.1-0.1-0.2-0.2-0.4-0.4c1.1,4.8,1.5,9.4,0,14.3C628.4,428.9,628.5,428.9,628.6,428.9z M632.5,385.4
			c-8.4,7.9-10.1,21.1-2.1,29.5c7.3,7.5,20,7.9,29.3-0.7c8.4-7.8,10-20.8,2.3-29.2C654.5,377,641.6,376.9,632.5,385.4z"/>
		<path class="st4" d="M644.8,443c0.4-0.6,0.7-1.1,1-1.6c1-1.8,0.5-3.3-1.3-3.8c-2.5-0.8-4.9-0.2-7.3,1.1c-2.3,1.3-4.2,3.2-6.1,5.1
			c0.2-0.6,0.4-1.2,0.6-1.7c0.8-1.5,1.8-2.8,3.1-4s2.4-2.5,2.9-4.3c0.6-2.2,0.2-4.2-0.4-6.2c-0.6-1.8-1.7-3.4-2.8-4.9
			c-0.3-0.4-0.6-0.7-1.1-0.3c-0.6,0.4-0.3,0.9,0,1.3c1.4,1.8,2.5,3.7,3,6c0.6,2.6,0.1,5-2.1,7.1c-1.4,1.4-2.8,2.8-3.7,4.5
			c-0.7,1.2-1.1,2.5-0.9,3.8c0.1,0.5,0.1,1.2,0.8,1.3c0.6,0.1,1-0.5,1.3-0.9c1.8-2.3,3.8-4.3,6.4-5.7c1.7-1,3.6-1.4,5.4-0.9
			c1.5,0.3,1.8,1.1,0.8,2.4c-0.6,0.8-1.3,1.5-1.9,2.2c-0.2,0.2-0.4,0.7-0.3,0.8c0.1,0.2,0.5,0.4,0.8,0.4c3.4-0.4,6.5-1.6,9-4.4
			c1.7-1.9,2.6-4.1,3.2-6.4c0.7-2.7,1.4-5.4,2.2-8c0.4-1.4,1.4-2.5,2.7-3.2c0.2-0.1,0.3-0.2,0.5-0.3c0.5-0.3,0.7-0.6,0.5-1.1
			c-0.3-0.5-0.7-0.4-1.1-0.1c-2.2,1.2-3.6,2.9-4.2,5.2c-0.7,2.4-1.3,4.8-1.9,7.2c-0.7,2.7-1.7,5.2-4,7.1
			C648.3,441.9,646.6,442.6,644.8,443z"/>
		<path class="st4" d="M661.4,429.1c0.2-1,0.7-1.9,1.5-2.7c1-0.9,2-1.9,2.5-3.2c0.5-1.4,0.4-2.7-0.1-3.9c-0.5-1.1-1.5-1.4-2.6-1.5
			c-0.6,0-1.2,0-1.8,0.2c-0.3,0.1-0.5,0.5-0.7,0.7c0.2,0.2,0.5,0.5,0.8,0.6c0.2,0.1,0.5,0,0.8-0.1c2.1-0.2,2.8,0.8,2.5,2.9
			c-0.1,1.1-0.7,2-1.6,2.8c-1.5,1.3-2.6,2.8-2.7,4.7c-0.1,0.9,0.2,1.9,0.4,2.8c0,0.2,0.4,0.4,0.6,0.4c0.2-0.1,0.6-0.4,0.7-0.6
			c0.6-2.3,2.1-3.9,4.1-4.9c6.5-3.3,11.4-12.7,7.9-20.6c-0.4-0.9-0.9-1.8-1.4-2.7c-0.2-0.4-0.6-0.6-1.1-0.3
			c-0.5,0.3-0.4,0.7-0.2,1.1c1.1,1.7,1.9,3.5,2.2,5.6c0.7,5.1-1.1,9.5-4.9,13.4c-0.7,0.8-1.7,1.3-2.5,2c-0.8,0.6-1.7,1-2.4,1.6
			C662.7,427.7,662.1,428.4,661.4,429.1z"/>
		<path class="st4" d="M644.6,430.2c0.2-0.3,0.4-0.7,0.6-1c1.2-1.9,1-4.2-0.4-5.7c-0.1-0.1-0.2-0.2-0.3-0.3c-0.3,0-0.7-0.1-1,0
			c-0.4,0.3-0.3,0.7,0,1c0.4,0.5,0.8,1,1,1.6c0.3,0.9,0,1.8-0.5,2.8s-1,2.1-1.3,3.2c-0.1,0.5,0.1,1.2,0.4,1.7c0.4,0.6,1,0.5,1.4-0.2
			c0.8-1.5,1.8-3,3.1-4.1c0.7-0.6,1.5-1.1,2.4-1.2c0.3,0,0.7-0.4,0.8-0.7c0.1-0.5-0.3-0.7-0.8-0.7c-1.7,0.1-2.9,1.1-4.1,2.3
			C645.4,429.3,645.1,429.8,644.6,430.2C644.7,430.2,644.6,430.2,644.6,430.2z"/>
		<path class="st4" d="M658.9,413.4c-8.3,7.8-20.6,8-27.8,0.4c-7.1-7.5-6.1-20,2.2-27.7s20.7-7.9,27.8-0.4
			C668,393.2,667.4,405.4,658.9,413.4z M658,412.4c7.6-7.1,8.6-18.8,2.1-25.7c-6.9-7.3-18.5-6.7-25.9,0.4c-7.7,7.3-8.5,18.7-2,25.7
			C638.8,419.8,650.3,419.6,658,412.4z"/>
		<path class="st4" d="M634.7,410.7c-5.6-5.9-4.9-15.5,1.5-21.5s16-6.1,21.5-0.3c5.4,5.8,4.6,15.4-1.7,21.4
			C649.7,416.3,640.1,416.5,634.7,410.7z M657.9,391.7c-0.3,0.4-0.5,0.9-0.9,1.3c-0.8,0.9-1.8,1.1-2.9,0.8c-0.2-0.1-0.6,0-0.7,0.1
			c-1.1,1-2.2,2-3.2,3c0.3,0.7,0.5,1.4,0.8,2.3c1.3-0.1,2.7-0.1,4.2-0.2c0.1,0,0.4-0.1,0.4-0.3c1.1-1.8,2.3-2.1,4.2-1.4
			C659.8,395.4,659,393.1,657.9,391.7z M645.9,394.9c0.1-1.3,0.1-2.8,0.2-4.2c0-0.1-0.1-0.3-0.2-0.3c-1.8-1.2-2-2-1-4.1
			c-2.2,0.4-4.1,1.2-5.9,2.4c0.5,0.3,1.1,0.5,1.4,0.9c0.7,0.8,0.8,1.7,0.4,2.8c-0.1,0.2-0.1,0.6,0,0.7c0.9,1,1.8,1.9,2.6,2.8
			C644.3,395.6,645,395.3,645.9,394.9z M659.5,401.7c-0.4,0.1-0.7,0.3-1,0.4c-1.3,0.4-2.5-0.2-3-1.3c-0.2-0.4-0.4-0.5-0.8-0.5
			c-1.3,0.1-2.7,0.1-4,0.1c-0.3,0.7-0.7,1.4-1,2.2c0.9,0.9,1.8,1.9,2.7,2.9c0.1,0.1,0.3,0.2,0.4,0.1c2.3-0.5,2.8-0.2,3.8,1.9
			C658.1,405.8,659,403.9,659.5,401.7z M634.9,406.9c0.7-1.1,2-1.6,3.2-1.1c0.4,0.1,0.7,0.1,1-0.2c0.8-0.8,1.7-1.6,2.6-2.4
			c0.3-0.3,0.4-0.5,0.2-0.9c-0.3-0.5-0.4-1.1-0.6-1.7c-1.3,0-2.8,0-4.2,0.1c-0.1,0-0.4,0.1-0.5,0.3c-1.2,1.8-2.4,2.1-4.3,1.2
			c0.2,2.2,0.8,4.1,2,5.8C634.5,407.5,634.7,407.2,634.9,406.9z M651.5,407c0-0.2,0-0.4-0.1-0.6c-0.8-0.9-1.6-1.7-2.4-2.6
			c-0.1-0.1-0.4-0.2-0.6-0.1c-0.6,0.2-1.2,0.5-1.9,0.8c-0.1,1.3-0.2,2.8-0.3,4.2c0,0.1,0.1,0.3,0.2,0.3c1.8,1.3,2,2,1,4.2
			c2.2-0.4,4.1-1.2,6-2.5C651.3,410,650.9,409.1,651.5,407z M642.9,403.7c-1,1-2.1,1.9-3.1,3c-0.1,0.1-0.2,0.4-0.2,0.5
			c0.3,2.1-0.2,3-2.4,3.9c1.7,1.3,3.5,2,5.6,2.3c-0.7-2-0.3-3.1,1.5-4.2c0.2-0.1,0.3-0.3,0.3-0.5c0.1-1.4,0.2-2.8,0.4-4.1
			C644.3,404.3,643.7,404,642.9,403.7z M649.6,386.2c0,0.7,0.2,1.5,0,2.2c-0.1,0.9-0.8,1.5-1.6,1.9c-0.2,0.1-0.4,0.4-0.4,0.6
			c-0.1,1.4-0.1,2.7-0.2,4.1c0.5,0.2,1.2,0.5,1.9,0.8c1-1,2.1-2,3.2-3.1c0.1-0.1,0.1-0.3,0.1-0.4c-0.4-2,0.3-3.1,2.4-3.8
			C653.3,387.2,651.5,386.5,649.6,386.2z M632.7,397.8c0.3-0.1,0.5-0.2,0.8-0.3c1.4-0.5,2.7,0,3.2,1.2c0.2,0.4,0.4,0.5,0.8,0.5
			c1.3-0.1,2.6-0.1,3.9-0.1c0.3-0.6,0.6-1.2,0.9-1.8c0.1-0.2,0-0.5-0.1-0.6c-0.8-0.9-1.6-1.7-2.4-2.6c-0.1-0.1-0.4-0.2-0.5-0.1
			c-2,0.5-3,0-3.5-1.9l-0.1-0.1C634.2,393.7,633.2,395.6,632.7,397.8z M643.9,397.4c-1.4,1.3-1.6,3.5-0.4,4.7c1.2,1.3,3.4,1.3,4.8,0
			c1.5-1.3,1.6-3.5,0.4-4.8C647.5,396.1,645.4,396.1,643.9,397.4z M636.2,407.4c-0.5,0.5-0.6,1.4-0.1,1.8c0.5,0.5,1.3,0.5,1.8-0.1
			c0.5-0.5,0.6-1.4,0.1-1.8C637.6,406.9,636.7,406.9,636.2,407.4z M646.2,410.7c-0.5-0.5-1.3-0.5-1.8,0.1c-0.5,0.5-0.6,1.3-0.2,1.8
			c0.5,0.5,1.3,0.5,1.8,0C646.6,412,646.7,411.2,646.2,410.7z M659,398.6c-0.5-0.5-1.3-0.5-1.8,0.1c-0.5,0.5-0.6,1.3-0.1,1.8
			s1.3,0.5,1.8,0C659.5,399.9,659.5,399.1,659,398.6z M654.4,390.3c-0.5,0.5-0.6,1.3-0.2,1.8c0.5,0.5,1.3,0.5,1.8,0
			c0.6-0.5,0.7-1.3,0.2-1.8C655.8,389.8,654.9,389.8,654.4,390.3z M635.2,399c-0.5-0.5-1.3-0.4-1.9,0.1c-0.5,0.5-0.6,1.3-0.1,1.8
			s1.3,0.5,1.8-0.1C635.6,400.3,635.7,399.5,635.2,399z M639.2,392.4c0.5-0.5,0.6-1.3,0.1-1.8s-1.2-0.5-1.8,0s-0.6,1.3-0.1,1.8
			S638.7,392.9,639.2,392.4z M654.9,407.1c-0.5-0.5-1.3-0.5-1.8,0.1c-0.5,0.5-0.6,1.3-0.1,1.8s1.3,0.5,1.8,0
			C655.3,408.4,655.4,407.6,654.9,407.1z M648.1,386.9c-0.5-0.5-1.3-0.5-1.8,0.1c-0.5,0.5-0.6,1.3-0.2,1.8c0.5,0.5,1.3,0.5,1.8,0
			C648.5,388.2,648.5,387.4,648.1,386.9z"/>
	</g>
	<g id="Dgqkwl.tif">
		<g>
			<path class="st4" d="M141.6,385.6c-0.5,0.2-0.8,0.3-1.1,0.6c-0.6,0.3-1.3,0.6-1.6-0.2c-0.3-0.7,0.2-1,0.8-1.4c4-2,8-4.2,12.1-6.3
				c4.6-2.4,9.2-4.8,13.9-7.3c-0.3-0.2-0.7-0.5-1-0.6c-8-4.8-15.9-9.6-23.9-14.3c-0.6-0.3-1.4-0.7-0.9-1.5c0.5-0.8,1.1-0.3,1.7,0
				c0.2,0.1,0.6,0.3,1,0.6c0.3-1.3,0.6-2.3,0.8-3.4c0.2-1.4,0.3-2.7,0.5-4.1c0.2-2.2,1.3-3.9,2.7-5.4c1.8-1.9,3.8-3.8,5.6-5.6
				c1.7-1.7,2.7-3.9,3-6.4c0.1-1,0.7-1.4,1.7-0.8c5.8,3.4,11.7,6.8,17.5,10.1c0.6,0.3,0.8,0.8,0.7,1.5c-0.3,2.3-1.5,4.1-3,5.7
				c-2,2.3-4.1,4.4-6.3,6.6c-2.2,2-2.8,4.6-2.5,7.5c0.2,2,0.3,4.2-0.8,6.3c1.6,0.9,3.2,1.9,4.8,2.8c0.2,0.1,0.7-0.1,0.9-0.2
				c5-2.6,9.9-5.2,14.9-7.7c0.1-0.1,0.3-0.2,0.5-0.2c0.5,0.1,1,0.1,1.3,0.3c0.3,0.5,0,0.9-0.5,1.3c-1.1,0.6-2.3,1.1-3.3,1.7
				c-3.9,2-7.7,4.1-11.8,6.1c0.3,0.2,0.7,0.5,0.9,0.6c4.4,2.6,8.8,5.2,13.2,7.9c0.1,0.1,0.2,0.1,0.3,0.2c0.6,0.3,0.9,0.8,0.6,1.5
				c-0.3,0.7-0.9,0.5-1.5,0.1c-1.5-0.8-2.8-1.7-4.3-2.5c-3.4-2-6.9-4.1-10.4-6.3c-0.6-0.3-0.9-0.3-1.5,0c-1.3,0.7-2.5,1.3-3.8,2
				c-0.2,0.1-0.5,0.6-0.5,0.7c0.7,1.9,0.3,3.9,0.2,5.8c0,1.3-0.1,2.4,0,3.6c0.1,0.9,0.3,1.8,0.9,2.5c1.1,1.6,2.4,3,3.6,4.4
				c1.8,2,3.9,4,5,6.6c0.5,1,0.7,2,1,3.1c0.2,0.9,0,1.5-0.9,1.8c-5.6,2.7-11,5.6-16.6,8.4c-0.6,0.2-1,0.6-1.6,0.8
				c-0.7,0.3-1.5-0.1-1.4-0.8c0.3-3.4-1.7-5.7-3.8-8.1c-1.5-1.8-3.2-3.4-4.7-5.2c-1.6-1.8-1.8-4-2-6.3c-0.1-1.8-0.3-3.8-0.6-5.6
				C141.8,386.1,141.6,385.9,141.6,385.6z M154.5,410c0.1,0,0.2,0,0.2,0c5.4-2.7,10.8-5.5,16.2-8.3c0.2-0.1,0.5-0.7,0.3-0.8
				c-0.5-1.1-0.8-2.4-1.6-3.4c-1.6-2.2-3.3-4.3-5.2-6.1c-3-3-4.3-6.4-3.5-10.6c0.3-1.6,0.1-3.2-0.3-4.9c-5.9,3.1-11.6,6.1-17.2,9
				c0.2,2.5,0.5,4.8,0.6,7.2c0.1,2.4,0.8,4.6,2.5,6.4c1.1,1.1,2.2,2.4,3.3,3.6C152.2,404.1,154,406.6,154.5,410z M143.9,356
				c5.7,3.4,11.4,6.8,17.2,10.2c0.2-1.1,0.5-2.2,0.5-3.1c0-1.4-0.1-2.6-0.1-4c0-1.9,0.2-3.9,1.7-5.5c2-2.3,4.2-4.4,6.4-6.7
				c1.5-1.5,2.6-3.2,3.4-5.1c0.3-0.7,0.2-1-0.5-1.5c-3.6-2-7.4-4.2-11-6.4c-1.5-0.9-3.1-1.7-4.6-2.6c-0.5,2.6-1.9,4.7-3.6,6.5
				c-1.6,1.7-3.2,3.3-4.9,4.9c-1.8,1.8-2.8,3.9-3.1,6.4C145.2,351.6,145.2,353.9,143.9,356z"/>
		</g>
	</g>
	<g id="Dgqkwl.tif_00000028313352052233688150000005719026302104046756_">
		<g>
			<path class="st4" d="M141.3,243.7c-0.5,0.2-0.8,0.3-1.1,0.6c-0.6,0.3-1.3,0.6-1.6-0.2c-0.3-0.7,0.2-1,0.8-1.4
				c4-2.1,8-4.2,12.1-6.3c4.6-2.4,9.2-4.8,13.9-7.3c-0.3-0.2-0.7-0.5-1-0.6c-8-4.8-16-9.6-24-14.4c-0.6-0.3-1.4-0.7-0.9-1.5
				s1.1-0.3,1.7,0c0.2,0.1,0.6,0.3,1,0.6c0.3-1.3,0.6-2.3,0.8-3.4c0.2-1.4,0.3-2.7,0.5-4.1c0.2-2.2,1.3-3.9,2.7-5.4
				c1.8-1.9,3.8-3.8,5.6-5.6c1.7-1.7,2.7-3.9,3-6.4c0.1-1,0.7-1.4,1.7-0.8c5.8,3.4,11.7,6.8,17.6,10.2c0.6,0.3,0.8,0.8,0.7,1.5
				c-0.3,2.3-1.5,4.1-3,5.7c-2.1,2.3-4.1,4.4-6.3,6.6c-2.2,2.1-2.9,4.6-2.5,7.5c0.2,2.1,0.3,4.2-0.8,6.3c1.6,0.9,3.2,1.9,4.8,2.9
				c0.2,0.1,0.7-0.1,0.9-0.2c5-2.6,9.9-5.2,14.9-7.8c0.1-0.1,0.3-0.2,0.5-0.2c0.5,0.1,1,0.1,1.3,0.3c0.3,0.5,0,0.9-0.5,1.3
				c-1.1,0.6-2.3,1.1-3.3,1.7c-3.9,2.1-7.8,4.1-11.9,6.2c0.3,0.2,0.7,0.5,0.9,0.6c4.4,2.6,8.8,5.2,13.2,7.9c0.1,0.1,0.2,0.1,0.3,0.2
				c0.6,0.3,0.9,0.8,0.6,1.5c-0.3,0.7-0.9,0.5-1.5,0.1c-1.5-0.8-2.9-1.7-4.3-2.5c-3.4-2.1-7-4.1-10.4-6.3c-0.6-0.3-0.9-0.3-1.5,0
				c-1.3,0.7-2.5,1.3-3.8,2.1c-0.2,0.1-0.5,0.6-0.5,0.7c0.7,1.9,0.3,3.9,0.2,5.8c0,1.3-0.1,2.4,0,3.7c0.1,0.9,0.3,1.8,0.9,2.5
				c1.1,1.6,2.4,3,3.7,4.4c1.8,2.1,3.9,4,5,6.6c0.5,1,0.7,2.1,1,3.1c0.2,0.9,0,1.5-0.9,1.8c-5.6,2.7-11.1,5.6-16.7,8.4
				c-0.6,0.2-1,0.6-1.6,0.8c-0.7,0.3-1.5-0.1-1.4-0.8c0.3-3.4-1.7-5.7-3.8-8.1c-1.5-1.8-3.2-3.4-4.7-5.2c-1.6-1.8-1.8-4-2.1-6.3
				c-0.1-1.8-0.3-3.8-0.6-5.6C141.4,244.1,141.3,244,141.3,243.7z M154.2,268.1c0.1,0,0.2,0,0.2,0c5.4-2.7,10.8-5.5,16.2-8.3
				c0.2-0.1,0.5-0.7,0.3-0.8c-0.5-1.1-0.8-2.4-1.6-3.4c-1.6-2.2-3.3-4.3-5.2-6.2c-3-3-4.3-6.4-3.5-10.6c0.3-1.6,0.1-3.2-0.3-4.9
				c-5.9,3.1-11.6,6.2-17.2,9c0.2,2.5,0.5,4.8,0.6,7.2c0.1,2.4,0.8,4.6,2.5,6.4c1.1,1.1,2.2,2.4,3.3,3.7
				C151.9,262.2,153.7,264.8,154.2,268.1z M143.6,214c5.7,3.4,11.4,6.8,17.2,10.3c0.2-1.1,0.5-2.2,0.5-3.1c0-1.4-0.1-2.6-0.1-4
				c0-1.9,0.2-3.9,1.7-5.5c2.1-2.3,4.2-4.4,6.4-6.7c1.5-1.5,2.6-3.2,3.4-5.1c0.3-0.7,0.2-1-0.5-1.5c-3.7-2.1-7.4-4.2-11.1-6.4
				c-1.5-0.9-3.1-1.7-4.6-2.6c-0.5,2.6-1.9,4.7-3.7,6.5c-1.6,1.7-3.2,3.3-4.9,4.9c-1.8,1.8-2.9,3.9-3.1,6.4
				C144.8,209.7,144.8,212,143.6,214z"/>
		</g>
	</g>
	<g>
		<path class="st4" d="M312.8,250.9c-6.3,0-12.5,0.5-18.6-0.2c-10-1.1-20-0.3-29.9-0.5c-10.2-0.3-20.4-0.1-30.6-0.2c-1,0-2,0-3,0
			c0-0.2,0-0.4,0-0.5c1.5,0,3,0,5,0c-0.5-3.6-1.1-6.8-1.5-10.1c-0.1-0.7,0.5-1.4,0.7-2.1c0.2-0.8,0.6-1.6,0.6-2.4
			c0.1-3.6,0.1-7.2,0.2-10.8c1.4,4.5-1,9.5,2.2,15.3c-0.3,2.1-0.9,5.9-1.5,9.9c14.7,0,29.2,0.1,43.6,0.1c-3-1.9-4.9-4.9-9-5.9
			c-3.5-0.9-6.9-0.8-10.5-1.4c0.1-22.7,0.2-45.4,0.2-68.4c1.5,0,2.9,0.1,4.3,0c3-0.3,6.1-0.3,8.8-1.3c2.5-1,4.5-3.2,6.7-4.8
			c0.5-0.4,1.1-0.9,1.7-1c10.2-0.6,20.4-1.1,30.9-1.6C313,193.9,312.9,222.2,312.8,250.9z M280.1,242.6c0.1-23,0.2-45.9,0.2-68.7
			c-3.2,0-6.2,0-9.3,0c-0.1,23-0.2,45.8-0.2,68.7C274.1,242.6,277,242.6,280.1,242.6z M294.8,236.7c4.4-3,8.1-5.4,11.6-8
			c1-0.8,1.8-2.4,1.8-3.7c0.1-11.2,0.1-22.4,0.1-33.6c0-0.9,0-2.1-0.5-2.5c-3.9-3-8-5.9-12-8.8c-0.3,0.2-0.5,0.4-0.8,0.6
			c0,2.5,0,5.1,0,7.6c-0.3,0.2-0.6,0.3-0.9,0.5c-1-1.2-1.9-2.4-3.1-3.8c-0.1,15.6-0.1,30.8-0.2,46c1.1-1.2,2.2-2.4,3.2-3.5
			c0.3,0.2,0.5,0.4,0.8,0.5C294.8,230.5,294.8,233.1,294.8,236.7z M285.8,174.3c-2.9,1.6-4.2,4-4.1,7.7c0.2,17.3,0.1,34.6-0.2,51.8
			c-0.1,4,1.2,6.5,4.2,8.1c4.5-2,3.8-5.8,3.8-9.5c0-16.2,0.1-32.3,0.2-48.5C289.7,180.2,290.2,176.5,285.8,174.3z M266.2,239.1
			c0.1-20.3,0.1-40.3,0.2-60.4c-1.2,0-2.2,0-3.3,0c-0.1,20.2-0.1,40.2-0.2,60.4C264,239.1,265,239.1,266.2,239.1z M286.1,173.4
			c7.8,4.8,14.9,9.2,22,13.6c0-5.1,0-10.2,0.1-15.3c-4.5,0.7-9.1,1.2-12.4-1.6c-3-2.6-4.5-1.6-6.5,0.7
			C288.7,171.5,287.8,172,286.1,173.4z M308,229.6c-6.2,3.6-12.3,7-18.4,10.6c-1.1,0.7-2,1.8-3.1,2.8c1.4,1.4,2.6,2.4,3.6,3.5
			c1.5,1.7,2.8,2.7,4.7,0.2c0.8-1,2.6-1.6,4-1.8c2.9-0.4,6-0.4,9.2-0.6C308,239.5,308,234.5,308,229.6z M268.6,240.9
			c0.1-21.9,0.1-43.8,0.2-65.8c-2.4,0-4.6,0-6.9,0c0,1,0,1.8,0,2.7c5.5-1.2,5.9-0.8,5.9,4.4c-0.1,17.8-0.1,35.5-0.2,53.3
			c0,5.5,0,5.5-5.6,4.7c-0.1,0-0.2,0.3-0.6,0.7C263.9,240.8,266.2,240.8,268.6,240.9z M312,181.9c-0.3-0.1-0.5-0.2-0.8-0.4
			c-0.3,0.8-0.9,1.6-0.9,2.4c-0.1,16.2-0.2,32.3-0.2,48.5c0,0.8,0.6,1.6,0.9,2.4c0.2-0.1,0.5-0.2,0.7-0.3
			C311.8,217,311.9,199.4,312,181.9z M294.7,249.4c5.9,0,11.4,0,17,0.1c-1.4-3.2-5.5-4.8-10.9-4C298.4,245.9,295.5,246,294.7,249.4z
			 M295.1,168.1c5.1,4.6,15.5,3.6,16.6-0.8C306.4,167.6,301,167.8,295.1,168.1z M289.6,248.4c0.2-0.3,0.3-0.7,0.5-1
			c-1.9-1.2-3.8-2.5-5.9-3.4c-1.2-0.5-2.7-0.6-2.7,1.5c0,1.6,0.2,3,2.4,2.9C285.9,248.3,287.8,248.4,289.6,248.4z M291,167.7
			c-2.3,0-3.7,0-5.1,0c-3.6,0-4.4,1.2-3.2,4.7C286.5,173.1,288.1,170.2,291,167.7z M311.5,246c1.1-7.1,0.6-9.7-2-10.4
			C308.6,244.9,308.6,244.9,311.5,246z M309.8,181.4c4.1-3.2,1.1-7.4,2.3-10.9C308.8,171.4,308.6,172.7,309.8,181.4z M276,171.8
			c0.1,0.2,0.1,0.4,0.2,0.6c1.6,0,3.1,0,4.9,0c-0.1-0.9-0.2-1.6-0.3-2.5C279.1,170.7,277.6,171.2,276,171.8z"/>
		<path class="st4" d="M236.7,165.7c-2.7,0-4.1,0-5.6,0c0-0.1,0-0.3,0-0.4c19.5,0.1,39,0.1,58.6,0.2c0,0.1,0,0.2,0,0.3
			C272.1,165.8,254.6,165.7,236.7,165.7c0.5,4,1.1,7.9,1.7,11.7c-0.2-0.1-0.4-0.1-0.6-0.2c-0.5,1.1-1.3,2.1-1.4,3.2
			c-0.2,3.5-0.1,7-0.7,10.6c0-2.4,0.1-4.7,0-7.1C235.5,178,233.2,172,236.7,165.7z"/>
		<path class="st4" d="M232.2,217.2c0.1-1.3,0-2.7,0.5-3.8c0.2-0.5,1.8-0.3,2.8-0.4c0.4,0,0.7-0.1,1.1-0.1c1.1,0.1,3-0.2,3.3,0.4
			c0.6,1.2,0.4,2.8,0.2,4.1c-0.6-1.3-1.1-2.6-1.7-3.8c-0.7,0.7-1.5,1.5-2.2,2.2c-0.6-0.5-1.4-1.3-2.2-2c-0.4,1.1-0.7,2.3-1.1,3.4
			C232.6,217.2,232.4,217.2,232.2,217.2z"/>
		<path class="st4" d="M240.4,207.9c-1.8,2.1-5.3-1.1-6.5,2.5c-0.5-0.7-1.1-1.4-2-2.6C235,207.8,237.6,207.8,240.4,207.9z"/>
		<path class="st4" d="M240.6,198.1c-2.1,1.9-5.4-0.9-6.7,2.6c-0.5-0.7-1.1-1.5-1.9-2.6C235,198.1,237.6,198.1,240.6,198.1z"/>
		<path class="st4" d="M303.4,187.9c0,13.3-0.1,26.4-0.1,39.7c-1.9,0-3.8,0-5.9,0c0-3.5,0-7.1,0-10.6c0-8.4,0.1-16.8,0.1-25.1
			c0-4.2,0-4.2,4.1-4.1C302.1,187.8,302.6,187.8,303.4,187.9z M300.7,223.1c0.2-0.1,0.5-0.2,0.7-0.3c0-10.6,0.1-21.3,0.1-31.9
			c-0.2-0.1-0.5-0.2-0.7-0.3c-0.3,0.6-0.9,1.2-0.9,1.8c-0.1,9.6-0.1,19.2-0.1,28.8C299.8,221.9,300.4,222.5,300.7,223.1z"/>
	</g>
	<g>
		<path class="st4" d="M573.9,279.6c1.4-1.1,2.8-2.2,4.1-3.4c0.4-0.4,0.6-1.2,0.7-1.8c0.6-6,1.1-12.1,1.6-18.1
			c0.1-0.6-0.1-1.4,0.2-1.7c2.1-2.3,1.9-5.1,1.9-7.9c7.4-0.5,9.3-0.4,13.1,7.6c6-3.9,11.7-9.9,19.9-4.2c0-11.8,0.1-23.1,0.1-34.7
			c-3.1,0.5-6.2,0.9-8.7,1.3c-1.2-0.9-2-1.5-2.7-2c3.4-2.9,7.3,0.1,11.4-0.1c0-1.3,0-2.5,0-3.8c0.2,0,0.4,0,0.6,0
			c-0.1,15.3-0.1,30.6-0.2,46.2c-0.3,0.2-0.9,0.7-1.6,0.9c-4.2,1.2-6.3,4.1-7.2,8.2c-0.7,2.8-1.7,5.6-2.4,8.4
			c-0.9,3.8-0.6,7.5,0.5,11.3c3.2,10.6,4,21.3,2.1,32.2c-1,5.7-3.6,10.8-6.9,15.6c-0.6,0.9-1,2.2-1.1,3.4
			c-0.3,10.2,0.1,20.5-0.8,30.6c-0.5,5.9-2.9,11.7-4.6,17.5c-0.2,0.7-0.9,1.4-1.6,1.8c-5.3,3.6-10.7,7.1-16.6,11c0-2.7,0-4.9,0-7.2
			c0-2.3,0-4.7,0.1-7c0.1-2.8,0-5.4-1.9-7.9c-2.3-3-1.1-7.4,2-10c1.9-1.6,2.4-7.2,0.6-8.9c-1.2-1.1-1.5-2.4-1.5-4
			c0.1-18,0.2-35.9,0.2-53.9c0-2.6-0.3-5.4,2.4-7.5c-4.5-2.8-4.4-7.1-4.4-11.5c0.2-22.9,0.2-45.9,0.3-68.8c0-0.2,0.1-0.5,0.4-0.7
			c0,1.2,0,2.5,0,3.8c4.3,0.5,8.4-2.8,12.1,0.2c-0.5,0.5-1.1,1.1-1.9,1.6c-0.4,0.3-1.1,0.3-1.6,0.2c-2.8-0.4-5.5-0.9-8.4-1.3
			C574.1,236.8,574,258.3,573.9,279.6z M602,288c-0.1,0.6-0.1,1.1-0.1,1.1c-0.8-0.1-1.5-0.1-2.4-0.2c0.1,1.7,0.1,3.1,0.2,4.5
			c6.4-1.6,7.3-3.1,4.4-6.8c-0.1-3.6-0.2-7.2-0.4-10.9c-0.1-1-0.3-2-0.5-3c0.4-0.1,1.1,0,1.3-0.3c2.1-3.2,1.3-5.8-2.1-7.3
			c-0.3-0.1-0.6-0.2-0.8-0.3c-0.7,2.4-1.4,4.6-2,6.6c1,0.2,2,0.5,3,0.7c-0.4,0.5-0.9,1-1.3,1.4c-0.5-0.1-1.1-0.3-1.9-0.5
			c0,5.1,0,9.9-0.1,14.8C599.9,287.8,601,287.9,602,288z M597.6,295.1c-7.3,0-14.2-0.1-21.2-0.1c-0.1,15.1-0.1,30-0.2,45.2
			c6.7,0,13.3,0.1,19.9,0c0.8,0,2.2-1.6,2.2-2.4c-0.3-2.5,1.1-4.1,2.4-6c7.3-10.6,7.8-22.4,6-34.9c-3,0-6.1,0-9.4,0
			C597.4,296.2,597.5,295.6,597.6,295.1z M599.3,261c2,0,3.7,0,5.4,0c1.1,0,2.3,0.3,3.2-0.2c2.2-1.1,4.3-2.5,6.5-3.8
			c0.4-0.3,0.9-0.8,0.9-1.2c0.4-4.2-2.2-7.1-6.4-7.1c-1.3,0-2.7,0.2-3.8,0.8c-2.7,1.4-5.2,3.2-7.8,4.8c-0.7,0.5-1.4,0.9-2.2,1.4
			c-0.4-0.8-0.6-1.2-0.8-1.7c-3.7-7.2-4.5-8.1-11.3-1.5c-3,3-1.6,7-2.6,10.7c6.6,0,12.9,0,19.3,0.1
			C599.6,262.7,599.5,262.1,599.3,261z M589.7,369.4c0.6-7.4,1.2-14.5,1.7-21.5c-5.3,0-10.2,0-15.4-0.1c0,1.7-0.1,3.2,0,4.8
			c0.1,1.2,0.2,2.7,0.9,3.4c1.4,1.3,1.6,2.7,1.5,4.4c-0.1,1.3,0,2.6,0,3.9c5.2-0.2,5.9,0.1,9.5,4.3
			C588.3,369,588.9,369.1,589.7,369.4z M594.6,380.2c3.6-6.4,5.5-27.6,3.4-39.9c-1.3,0.9-2.7,1.6-3.4,2.7c-1.7,2.7-2.7,5.6-2.7,8.9
			c-0.1,3.5-0.4,7-0.9,10.4C590.1,368.8,590.5,374.9,594.6,380.2z M576.9,379.5c0,5.5,0,10.9-0.1,16.8c5.5-3.7,10.6-6.9,15.5-10.5
			c1.6-1.2,2.4-3.2,1.1-5.5c-1.3-2.3-2.1-4.8-3.2-7.2c-0.2-0.5-0.6-1-1.1-1.8C587.9,378.4,584,381.5,576.9,379.5z M579.4,275.6
			c3.7-0.4,6.8,0.3,9.1,3c2.3,2.8,2.2,6,1.3,9.4c2.4,0,4.4,0.1,6.5,0c0.6,0,1.6-0.5,1.7-0.9c1.2-4.8,1.6-9.6,0.2-14.5
			c-6.2,0-12.2,0-18.3-0.1C579.6,273.5,579.5,274.3,579.4,275.6z M579.7,271.4c5.9,0,11.8,0.1,17.6,0c0.4,0,1.1-0.5,1.3-0.9
			c0.7-1.8,1.3-3.7,2-5.8c-7.1,0-13.6-0.1-20.1-0.1C580.2,266.8,580,269,579.7,271.4z M576.2,346.7c4.9,0,9.7,0.1,14.5,0
			c0.5,0,1.2-0.5,1.5-0.9c0.8-1.3,1.4-2.8,2.1-4.4c-6.2,0-12.1,0-18.1-0.1C576.2,343.1,576.2,344.7,576.2,346.7z M577.3,293
			c0.1,0.3,0.2,0.5,0.3,0.8c7,0,13.9,0.1,21.2,0.1c-0.1-1.7-0.1-3.2-0.2-4.9c-3.1,0-5.9-0.1-8.7,0c-0.5,0-1.1,0.3-1.5,0.6
			c-2.4,2.8-5.4,3.5-8.9,2.8C578.8,292.3,578,292.8,577.3,293z M574.2,283.9c-0.1,4.4,3.2,7.8,7.5,7.9c4.1,0.1,7.8-3.5,7.9-7.7
			c0.1-4.2-3.4-7.8-7.6-7.9C577.7,276.2,574.3,279.6,574.2,283.9z M580.8,379.3c3.8,0,7-3.1,7-6.9c0.1-4-3-7.2-6.9-7.3
			c-3.9-0.1-7.1,3-7.2,6.7C573.7,376,576.9,379.3,580.8,379.3z M598.3,296.3c3.1,0,5.7,0,8.4,0c-0.1-1-0.3-1.8-0.4-2.9
			C603.4,293.5,600.5,293.1,598.3,296.3z M600.7,261.7c0.6,1.8,3.5,3.9,5.1,3.3c1-0.4,1.5-1.9,2.4-3.2
			C605.3,261.7,603,261.7,600.7,261.7z M583.5,250.5c1.4-1,2.6-1.8,4-2.8c-1.7,0-2.9,0-4,0C583.5,248.6,583.5,249.4,583.5,250.5z"/>
		<path class="st4" d="M591.8,223.5c0.4-0.3,1.2-0.9,1.9-1.4c1.2,1.9,4.6-1.6,5.1,2.1c0,0.1,0,0.2,0,0.2c-0.6,0.6-1.2,1.2-1.9,1.8
			C595.6,224.6,591.8,228.8,591.8,223.5z"/>
		<path class="st4" d="M591.8,211.2c0-0.4-0.1-0.7,0-0.8c0.6-0.6,1.3-1.2,1.9-1.8c1.2,1.8,4.7-1.6,5,2.2c0,0.1,0,0.2,0,0.2
			c-0.5,0.6-1.1,1.2-1.6,1.8C595.8,211.1,592.2,215.3,591.8,211.2z"/>
		<path class="st4" d="M592.1,217.4c0.6,0.9,1.1,1.8,1.8,2.9c0.4-0.5,0.6-0.6,0.6-0.7c-0.3-1.6,0-3.1,1.9-2.9
			c0.8,0.1,2.2,1.2,2.3,1.9c0.2,1.9-1.3,2.4-2.9,2.5C592.9,221.2,591.7,219.9,592.1,217.4z"/>
		<path class="st4" d="M599,205.9c-2.7,0-4.8,0-7.3,0c1.7-1.7,4.5,0.5,5.7-2.1C597.8,204.2,598.2,204.8,599,205.9z"/>
		<path class="st4" d="M593,334.4c0.5-9.7,0.9-19,1.3-28.4c4,0,7.7,0,11.3,0C607.3,314.5,600.7,329.7,593,334.4z M594.1,332
			c7.3-6.8,10.8-15.1,11-24.9c-3.4,0-6.6,0-9.9,0C594.9,315.5,594.5,323.8,594.1,332z"/>
		<path class="st4" d="M590.3,306.5c1.8,2.3,1.8,4.4-0.1,6.7C588,310.8,588.1,308.8,590.3,306.5z"/>
		<path class="st4" d="M575.1,284c0-3.9,2.9-6.8,6.8-6.7c3.8,0,6.8,3.1,6.8,6.8c0,3.8-3.2,6.9-7,6.9
			C577.9,290.8,575.1,287.9,575.1,284z M587.8,284c0-3.2-2.9-6.1-6-6c-3.1,0.1-5.8,2.8-5.9,5.9c-0.1,3.3,2.6,6,5.9,6.1
			C585.1,290,587.8,287.4,587.8,284z"/>
		<path class="st4" d="M587,372.2c0,3.6-2.7,6.2-6.3,6.2c-3.6,0-6.3-2.7-6.2-6.3c0.1-3.4,2.8-6.1,6.2-6.2
			C584.2,365.8,587,368.6,587,372.2z M575.5,372.2c0,3,2.4,5.4,5.3,5.4c2.9,0,5.4-2.5,5.5-5.4c0.1-2.9-2.6-5.6-5.6-5.5
			C577.8,366.8,575.4,369.2,575.5,372.2z"/>
	</g>
	<g id="fXjG0J.tif">
		<g>
			<path class="st4" d="M318.2,295.2c-0.1,5.3,0,10.3-0.3,15.2c-0.1,1.5-2,2.5-1.9,4.5c0.1,2-0.4,4-0.4,6c-0.1,4.6-1.3,8.9-3.2,13.2
				c-1.1,2.5-0.7,5.7-0.7,8.5c-0.2,12.3-0.3,24.5-0.4,36.8c0,2.9,0.6,3.5,3.4,3.6c0.6,0,1.3,0,2.1,0c-0.1,5.6,0.1,11-0.4,16.4
				c-0.3,3.4-1.9,6.5-4.4,9.1c-2.1,2.1-2.8,4.7-2.7,7.7c0.1,4.1-0.1,8.3-0.1,12.6c-3.3-0.1-6.2-0.1-9.2-0.1
				c-12.9-0.2-25.7-0.4-38.6-0.6c-2.4,0-4.8,0-7.3-0.2c-0.5,0-1-0.8-1.5-1.2c0.1-0.3,0.3-0.5,0.4-0.8c18.4,0.3,36.9,0.6,55.3,0.9
				c0-0.2,0-0.5,0-0.7c-18.4-0.3-36.7-0.6-55.4-0.9c0.1-3.8,0-7.3,0.2-10.8c0.2-2.6-0.6-4.6-2.1-6.6c-1.6-2.2-3.9-4.2-3.3-7.4
				c-3.4-5.8,0-12.1-1.6-18.2c1-0.1,1.5-0.2,1.9-0.2c4,0,4.4-0.4,4.5-4.3c0.2-13.9,0.4-27.8,0.7-41.6c0-0.8,0.2-1.8-0.2-2.4
				c-3.7-6.6-2.6-13.9-3.5-20.9c-0.1-0.7-0.9-1.4-1.3-2.1c-0.3-0.4-0.6-0.9-0.6-1.4c0-4.9,0.1-9.8,0.2-14.6c0.3-0.2,0.4-0.4,0.5-0.4
				c3.4,0.6,5.1-1.1,7-3.9c2.9-4.4,6.6-8.2,9.9-12.2c-9.7-0.2-19.8-0.3-30.2-0.5c0.4,2.8,0.8,5.4,1.1,8.1c0.1,0.5-0.4,1.1-0.6,1.7
				c-0.2,0.7-0.6,1.4-0.6,2.2c-0.2,12-0.4,24.1-0.6,36.1c0,0.8,0,1.6,0,2.4c-0.2,0-0.3,0-0.5,0c0-0.8,0-1.7,0-2.5
				c0.2-12,0.4-24.1,0.5-36.1c0-0.9-0.5-1.7-0.8-2.6c-0.3,0-0.5,0.1-0.8,0.1c0.5-3.1,1.1-6.2,1.6-9.5c-1.3,0-2.5,0-3.7-0.1
				c0-0.1,0-0.3,0-0.4c0.5,0,1.1-0.1,1.6-0.1c6.5,0.1,12.9,0.2,19.4,0.3c9.7,0.1,19.4,0.2,29.1,0.3c5.6,0,11.3-0.1,16.9,0
				c0.9,0,2,0.5,2.7,1.2c5,4.3,9.1,9.4,12.2,15.2c0.3,0.6,1.3,1.1,2,1.3C315.8,295.3,316.9,295.1,318.2,295.2z M304,407
				c1.6,1.3,3.2,2.7,4.9,4.1c1.7-2.3,3.4-4.6,4.9-6.7c-0.7-0.4-1.3-0.8-1.8-1.1c0.5-1,1-2,1.4-2.6c0.1,0.3,0.2,1,0.4,1.8
				c0.2,0,0.4,0,0.6-0.1c0.1-4.8,0.2-9.5,0.2-14c-0.8-0.2-1.6-0.4-2.3-0.6c0.5-0.6,0.9-1.1,1.5-1.8c-1-1.4-2.1-2.8-3.2-4.2
				c-0.9,0.6-1.7,1-2.2,1.6c-0.9,0.9-1.7,1.9-2.6,2.9c-0.5-0.2-1-0.5-1.6-0.7c0.1-0.3,0.1-0.5,0.2-0.8c6.9-2.5,6.3-7.9,5.8-13.3
				c-18.9-0.3-37.6-0.6-56.5-0.9c0,2.8-0.8,5.8,0.1,8.2c0.8,2.2,3.2,3.9,4.8,5.9c-0.1,0.1-0.2,0.2-0.3,0.3c-1.3-1-2.5-2-3.5-2.7
				c-2,1.7-3.8,3.1-5.5,4.6c-0.3,0.3-0.4,1-0.4,1.6c-0.1,4.2-0.2,8.5-0.2,12.7c0,0.8,0.3,1.5,0.3,1.6c3.7,1,3.9,4.8,6.5,6.2
				c1.3-0.9,2.6-1.8,3.8-2.7c-1.2,2.9-5.8,3.3-5.2,7.5c18.2,0.3,36.2,0.6,54.8,0.9c-0.6-1.4-0.9-2.7-1.6-3.5c-0.8-1-2.1-1.6-3.1-2.5
				C303.9,408.3,304.1,407.5,304,407z M310.8,341.1c-18.9-0.3-37.7-0.6-56.4-0.9c-0.2,9.8-0.3,19.5-0.5,29.1
				c18.9,0.3,37.6,0.6,56.4,0.9C310.5,360.4,310.6,350.8,310.8,341.1z M307.7,315.4c-0.1-7.4,1.4-14.4,3.8-21.2
				c0.6-1.6-2.4-5.1-4-5.1c-16.1-0.3-32.2-0.5-48.3-0.7c-0.7,0-1.7,0.5-2.2,1.1c-2.1,2.1-1.9,4.5-1.2,7.3c1.3,5.9,2.1,11.8,3.1,17.9
				C274.7,314.8,291.1,315.1,307.7,315.4z M306.9,338.8c0.1-7.5,0.2-14.9,0.4-22.1c-16.6-0.3-32.8-0.5-49.3-0.8
				c-0.1,7.5-0.2,14.8-0.4,22.1c-1.2,0.1-2.3,0.2-3.3,0.3c0,0.2,0,0.4,0.1,0.5c18.8,0.3,37.6,0.6,56.5,0.9c0-0.2,0-0.4,0.1-0.6
				C309.7,339,308.5,338.9,306.9,338.8z M254,423.7c18.2,0.3,36.3,0.6,54.3,0.9c0-1.8,0.1-3.4,0.1-5.2c-18.2-0.3-36.2-0.6-54.3-0.9
				C254,420.2,254,421.9,254,423.7z M305.7,285.4c0.2-0.2,0.4-0.5,0.5-0.7c-1.5-1.4-3.1-2.6-4.5-4.1c-1.6-1.7-3.4-2.3-5.7-2.3
				c-8,0-15.9,0.3-23.9-0.4c-5.7-0.5-8,3.4-11.3,6.3c0.1,0.2,0.1,0.5,0.2,0.7c2,0,3.9,0.1,6.6,0.1c-1.2,1-1.9,1.5-2.6,2.1
				c12.3,0.2,24.4,0.4,36.6,0.6c-0.9-0.7-1.6-1.3-2.3-1.9c0.1-0.2,0.2-0.4,0.3-0.5C301.6,285.4,303.6,285.4,305.7,285.4z
				 M308.2,335.2c1.3-0.9,2.9-1.3,3.4-2.3c1.2-2.2,2.2-4.7,2.5-7.2c0.8-5.2,0.8-10.6,1.6-15.8c0.9-5.4-0.8-10-3.3-14.7
				C309,301.7,307.4,316.6,308.2,335.2z M256.7,334c1.3-20,0.4-33.4-2.8-39.7c-1.8,3.9-3.9,7.4-3.6,11.8c0.4,6.6,0.5,13.2,1.2,19.8
				C251.7,329.1,252.7,332.6,256.7,334z M306.7,417.5c0-0.2,0-0.3,0-0.5c-16.5-0.3-33-0.5-49.6-0.8c0,0.2,0,0.3,0,0.5
				C273.6,416.9,290.1,417.2,306.7,417.5z M314.1,296.2c0.9,2.5,1.8,4.8,2.8,7.6c0-2.9,0.1-5.2,0.1-7.6
				C316.1,296.2,315.2,296.2,314.1,296.2z M247.4,398.3c1.4-5.5-1.2-10.8,2.7-15.4c-1,0-1.7,0-2.4,0.1
				C247.6,388,247.5,392.8,247.4,398.3z M307.5,338.2c1.7,0,2.5,0,3.5,0.1c0-0.9,0-1.6,0-2.3c0-0.3-0.1-0.6-0.3-1.7
				C309.5,335.7,308.7,336.7,307.5,338.2z M249.3,295.8c0,0-0.1,0-0.1,0c-0.1,4.3-0.1,8.5-0.2,12.8c0,0,0.1,0,0.1,0
				C249.1,304.4,249.2,300.1,249.3,295.8z M254.4,337.6c0.9-0.1,1.6-0.1,2.9-0.3c-0.9-1.4-1.6-2.4-2.3-3.5c-0.2,0.1-0.4,0.2-0.6,0.3
				C254.4,335.2,254.4,336.2,254.4,337.6z M250.5,404c-0.2,0.1-0.4,0.3-0.6,0.4c1.3,1.9,2.5,3.9,3.8,5.8c0.3-0.2,0.5-0.3,0.8-0.5
				C253.2,407.8,251.9,405.9,250.5,404z"/>
			<path class="st4" d="M232.8,426.5c5.8,0.1,11.4,0.2,17,0.3c0,0.1,0,0.2,0,0.4c-7.1-0.1-14.2-0.2-21.3-0.3c0-0.1,0-0.2,0-0.3
				c1.2,0,2.3,0,3.8,0.1c-0.5-3.4-0.9-6.6-1.3-9.7c0.3,0,0.5,0.1,0.8,0.1c0.3-0.9,0.8-1.9,0.8-2.8c0.3-16.5,0.6-32.9,0.8-49.4
				c0-0.9,0-1.7,0-2.6c0.2,0,0.3,0,0.5,0c0,0.9,0,1.8,0,2.7c-0.3,16.2-0.5,32.4-0.7,48.6c0,1.1-0.9,2.7,1.1,3.3c0.1,0,0,1-0.1,1.6
				C233.7,421,233.3,423.6,232.8,426.5z"/>
			<path class="st4" d="M232.8,355.9c-0.1-1.8,0-3.6,2.4-3.3c0.6,0.1,1.5,0.7,1.6,1.2c0.2,0.7,0,2.1-0.3,2.2
				c-1.5,0.4-3.2,0.8-4.6,0.5c-0.9-0.2-1.4-1.8-2.1-2.8c0.2-0.1,0.4-0.3,0.6-0.4c0.6,0.9,1.2,1.9,1.8,2.8
				C232.5,356,232.6,356,232.8,355.9z M234.8,352.9c-0.6,0.9-1.1,1.5-1.1,2c0,0.4,0.9,1.2,1.2,1.1c0.6-0.2,1.3-0.8,1.4-1.3
				C236.3,354.3,235.5,353.7,234.8,352.9z"/>
			<path class="st4" d="M233.5,338.5c2,0.7,3.9,0.7,3.8,3c-0.1,2.1-2,2.2-3.5,2.1c-1.6,0-3.6-0.3-3.2-2.4
				C230.6,340.2,232.4,339.4,233.5,338.5z M233.9,339.4c-1.1,0.8-1.9,1.4-2.6,1.9c0.9,0.4,1.7,1.2,2.6,1.2c0.9,0,1.8-0.7,2.7-1.1
				C235.7,340.9,234.9,340.2,233.9,339.4z"/>
			<path class="st4" d="M230.5,337.7c0.2-1.1,0-2.6,0.6-3.1c2.4-1.8,3.4,1.2,5.2,2c0.2-0.9,0.4-1.8,0.5-2.6c0.1,0,0.3,0,0.4,0.1
				c0,1.4,0,2.7-0.1,4.7c-1.1-1-1.8-1.8-2.6-2.4c-0.8-0.5-1.7-0.8-2.5-1.2c-0.3,0.8-0.6,1.7-0.8,2.5
				C231,337.6,230.7,337.7,230.5,337.7z"/>
			<path class="st4" d="M230.5,351.4c0-1.3,0-2.7,0.1-4.6c2.4,1.1,4.5,2.1,6.6,3.1c-0.1,0.2-0.2,0.5-0.3,0.7
				c-1.7-0.8-3.4-1.5-5.5-2.4c-0.1,1.2-0.3,2.2-0.4,3.3C230.8,351.4,230.6,351.4,230.5,351.4z"/>
			<path class="st4" d="M268.6,329.9c0.8-0.4,1.6-1,2.3-1c7.1,0,14.3,0.1,21.4,0.3c0.8,0,1.6,0.8,2.4,1.2c-0.1,0.2-0.2,0.5-0.3,0.7
				c-8.4-0.1-16.9-0.3-25.3-0.4C268.9,330.5,268.8,330.2,268.6,329.9z"/>
			<path class="st4" d="M295.7,335.3c-9.6-0.2-19.2-0.3-28.8-0.5c-0.1-0.3-0.2-0.5-0.3-0.8c0.6-0.3,1.2-0.9,1.8-0.9
				c8.5,0.1,17.1,0.3,25.6,0.5c0.7,0,1.3,0.6,2,0.9C296,334.9,295.8,335.1,295.7,335.3z"/>
			<path class="st4" d="M270.9,326.6c0.3-1,0.5-1.6,0.7-2.3c6.5,0.1,12.9,0.1,19.3,0.4c0.7,0,1.4,1.1,2.2,1.7
				c-0.2,0.2-0.3,0.4-0.5,0.6C285.5,326.9,278.4,326.8,270.9,326.6z M291.2,326c0-0.1,0-0.1,0-0.2c-6.1-0.1-12.1-0.2-18.2-0.3
				c0,0.1,0,0.1,0,0.2C279.1,325.8,285.1,325.9,291.2,326z"/>
			<path class="st4" d="M272.8,321.9c0.7-0.3,1.5-1,2.2-1c4.8,0,9.6,0.1,14.4,0.2c0.7,0,1.4,0.6,2.1,1c-0.1,0.3-0.2,0.5-0.3,0.8
				c-6.1-0.1-12.1-0.2-18.2-0.3C273,322.4,272.9,322.2,272.8,321.9z"/>
			<path class="st4" d="M299.3,284.4c-10.5-0.2-20.8-0.3-31-0.6c-0.6,0-1.6-1.1-1.6-1.8c0-0.7,0.8-2,1.3-2c10.4,0,20.9,0.2,31.4,0.4
				C299.4,281.8,299.3,282.9,299.3,284.4z M295.4,282.7c0-0.1,0-0.1,0-0.2c-8.4-0.1-16.8-0.3-25.2-0.4c0,0.1,0,0.1,0,0.2
				C278.6,282.4,287,282.6,295.4,282.7z"/>
		</g>
	</g>
</g>
</svg>
